%TF.GenerationSoftware,KiCad,Pcbnew,9.0.6*%
%TF.CreationDate,2026-01-02T13:15:05-05:00*%
%TF.ProjectId,Ionto,496f6e74-6f2e-46b6-9963-61645f706362,rev?*%
%TF.SameCoordinates,Original*%
%TF.FileFunction,Copper,L1,Top*%
%TF.FilePolarity,Positive*%
%FSLAX46Y46*%
G04 Gerber Fmt 4.6, Leading zero omitted, Abs format (unit mm)*
G04 Created by KiCad (PCBNEW 9.0.6) date 2026-01-02 13:15:05*
%MOMM*%
%LPD*%
G01*
G04 APERTURE LIST*
G04 Aperture macros list*
%AMRoundRect*
0 Rectangle with rounded corners*
0 $1 Rounding radius*
0 $2 $3 $4 $5 $6 $7 $8 $9 X,Y pos of 4 corners*
0 Add a 4 corners polygon primitive as box body*
4,1,4,$2,$3,$4,$5,$6,$7,$8,$9,$2,$3,0*
0 Add four circle primitives for the rounded corners*
1,1,$1+$1,$2,$3*
1,1,$1+$1,$4,$5*
1,1,$1+$1,$6,$7*
1,1,$1+$1,$8,$9*
0 Add four rect primitives between the rounded corners*
20,1,$1+$1,$2,$3,$4,$5,0*
20,1,$1+$1,$4,$5,$6,$7,0*
20,1,$1+$1,$6,$7,$8,$9,0*
20,1,$1+$1,$8,$9,$2,$3,0*%
G04 Aperture macros list end*
%TA.AperFunction,SMDPad,CuDef*%
%ADD10RoundRect,0.250000X0.350000X0.450000X-0.350000X0.450000X-0.350000X-0.450000X0.350000X-0.450000X0*%
%TD*%
%TA.AperFunction,SMDPad,CuDef*%
%ADD11RoundRect,0.250000X0.650000X-1.000000X0.650000X1.000000X-0.650000X1.000000X-0.650000X-1.000000X0*%
%TD*%
%TA.AperFunction,SMDPad,CuDef*%
%ADD12RoundRect,0.250000X-0.450000X0.350000X-0.450000X-0.350000X0.450000X-0.350000X0.450000X0.350000X0*%
%TD*%
%TA.AperFunction,SMDPad,CuDef*%
%ADD13RoundRect,0.250000X0.337500X0.475000X-0.337500X0.475000X-0.337500X-0.475000X0.337500X-0.475000X0*%
%TD*%
%TA.AperFunction,ComponentPad*%
%ADD14C,2.600000*%
%TD*%
%TA.AperFunction,ConnectorPad*%
%ADD15C,4.400000*%
%TD*%
%TA.AperFunction,ComponentPad*%
%ADD16O,3.200000X1.900000*%
%TD*%
%TA.AperFunction,WasherPad*%
%ADD17C,1.700000*%
%TD*%
%TA.AperFunction,ComponentPad*%
%ADD18C,3.500000*%
%TD*%
%TA.AperFunction,ComponentPad*%
%ADD19RoundRect,0.250000X0.550000X0.550000X-0.550000X0.550000X-0.550000X-0.550000X0.550000X-0.550000X0*%
%TD*%
%TA.AperFunction,ComponentPad*%
%ADD20C,1.600000*%
%TD*%
%TA.AperFunction,SMDPad,CuDef*%
%ADD21RoundRect,0.250001X0.462499X0.624999X-0.462499X0.624999X-0.462499X-0.624999X0.462499X-0.624999X0*%
%TD*%
%TA.AperFunction,ComponentPad*%
%ADD22R,1.050000X1.500000*%
%TD*%
%TA.AperFunction,ComponentPad*%
%ADD23O,1.050000X1.500000*%
%TD*%
%TA.AperFunction,SMDPad,CuDef*%
%ADD24C,0.500000*%
%TD*%
%TA.AperFunction,ComponentPad*%
%ADD25RoundRect,0.650000X0.650000X-0.650000X0.650000X0.650000X-0.650000X0.650000X-0.650000X-0.650000X0*%
%TD*%
%TA.AperFunction,SMDPad,CuDef*%
%ADD26RoundRect,0.250000X-0.475000X0.337500X-0.475000X-0.337500X0.475000X-0.337500X0.475000X0.337500X0*%
%TD*%
%TA.AperFunction,SMDPad,CuDef*%
%ADD27RoundRect,0.250000X0.550000X-1.137500X0.550000X1.137500X-0.550000X1.137500X-0.550000X-1.137500X0*%
%TD*%
%TA.AperFunction,SMDPad,CuDef*%
%ADD28RoundRect,0.250000X-1.500000X-1.000000X1.500000X-1.000000X1.500000X1.000000X-1.500000X1.000000X0*%
%TD*%
%TA.AperFunction,SMDPad,CuDef*%
%ADD29R,2.200000X1.500000*%
%TD*%
%TA.AperFunction,SMDPad,CuDef*%
%ADD30RoundRect,0.150000X-0.150000X0.512500X-0.150000X-0.512500X0.150000X-0.512500X0.150000X0.512500X0*%
%TD*%
%TA.AperFunction,SMDPad,CuDef*%
%ADD31RoundRect,0.250000X0.475000X-0.337500X0.475000X0.337500X-0.475000X0.337500X-0.475000X-0.337500X0*%
%TD*%
%TA.AperFunction,ComponentPad*%
%ADD32R,1.700000X1.700000*%
%TD*%
%TA.AperFunction,ComponentPad*%
%ADD33C,1.700000*%
%TD*%
%TA.AperFunction,SMDPad,CuDef*%
%ADD34RoundRect,0.250000X1.250000X0.550000X-1.250000X0.550000X-1.250000X-0.550000X1.250000X-0.550000X0*%
%TD*%
%TA.AperFunction,ComponentPad*%
%ADD35C,2.200000*%
%TD*%
%TA.AperFunction,ComponentPad*%
%ADD36R,2.000000X1.905000*%
%TD*%
%TA.AperFunction,ComponentPad*%
%ADD37O,2.000000X1.905000*%
%TD*%
%TA.AperFunction,ComponentPad*%
%ADD38C,3.000000*%
%TD*%
%TA.AperFunction,ComponentPad*%
%ADD39C,2.500000*%
%TD*%
%TA.AperFunction,SMDPad,CuDef*%
%ADD40RoundRect,0.250000X1.000000X-1.500000X1.000000X1.500000X-1.000000X1.500000X-1.000000X-1.500000X0*%
%TD*%
%TA.AperFunction,SMDPad,CuDef*%
%ADD41RoundRect,0.250000X-0.400000X-0.400000X0.400000X-0.400000X0.400000X0.400000X-0.400000X0.400000X0*%
%TD*%
%TA.AperFunction,SMDPad,CuDef*%
%ADD42RoundRect,0.250000X-0.750000X-0.400000X0.750000X-0.400000X0.750000X0.400000X-0.750000X0.400000X0*%
%TD*%
%TA.AperFunction,ComponentPad*%
%ADD43RoundRect,0.249999X-0.850001X-0.850001X0.850001X-0.850001X0.850001X0.850001X-0.850001X0.850001X0*%
%TD*%
%TA.AperFunction,ComponentPad*%
%ADD44R,2.000000X2.000000*%
%TD*%
%TA.AperFunction,ComponentPad*%
%ADD45C,2.000000*%
%TD*%
%TA.AperFunction,ComponentPad*%
%ADD46C,2.400000*%
%TD*%
%TA.AperFunction,SMDPad,CuDef*%
%ADD47RoundRect,0.250000X-0.337500X-0.475000X0.337500X-0.475000X0.337500X0.475000X-0.337500X0.475000X0*%
%TD*%
%TA.AperFunction,ComponentPad*%
%ADD48RoundRect,0.250000X-0.550000X0.550000X-0.550000X-0.550000X0.550000X-0.550000X0.550000X0.550000X0*%
%TD*%
%TA.AperFunction,SMDPad,CuDef*%
%ADD49R,1.500000X0.900000*%
%TD*%
%TA.AperFunction,SMDPad,CuDef*%
%ADD50R,0.900000X1.500000*%
%TD*%
%TA.AperFunction,HeatsinkPad*%
%ADD51C,0.600000*%
%TD*%
%TA.AperFunction,HeatsinkPad*%
%ADD52R,3.900000X3.900000*%
%TD*%
%TA.AperFunction,SMDPad,CuDef*%
%ADD53RoundRect,0.250000X0.450000X-0.350000X0.450000X0.350000X-0.450000X0.350000X-0.450000X-0.350000X0*%
%TD*%
%TA.AperFunction,SMDPad,CuDef*%
%ADD54R,0.300000X1.150000*%
%TD*%
%TA.AperFunction,HeatsinkPad*%
%ADD55O,1.000000X2.100000*%
%TD*%
%TA.AperFunction,HeatsinkPad*%
%ADD56O,1.000000X1.600000*%
%TD*%
%TA.AperFunction,ComponentPad*%
%ADD57R,1.500000X1.500000*%
%TD*%
%TA.AperFunction,ViaPad*%
%ADD58C,1.500000*%
%TD*%
%TA.AperFunction,ViaPad*%
%ADD59C,2.000000*%
%TD*%
%TA.AperFunction,ViaPad*%
%ADD60C,1.000000*%
%TD*%
%TA.AperFunction,ViaPad*%
%ADD61C,0.800000*%
%TD*%
%TA.AperFunction,ViaPad*%
%ADD62C,0.600000*%
%TD*%
%TA.AperFunction,Conductor*%
%ADD63C,1.500000*%
%TD*%
%TA.AperFunction,Conductor*%
%ADD64C,2.000000*%
%TD*%
%TA.AperFunction,Conductor*%
%ADD65C,3.000000*%
%TD*%
%TA.AperFunction,Conductor*%
%ADD66C,0.750000*%
%TD*%
%TA.AperFunction,Conductor*%
%ADD67C,0.250000*%
%TD*%
%TA.AperFunction,Conductor*%
%ADD68C,0.500000*%
%TD*%
%TA.AperFunction,Conductor*%
%ADD69C,1.000000*%
%TD*%
G04 APERTURE END LIST*
D10*
%TO.P,R1,1*%
%TO.N,PWM_OUT*%
X80000000Y-35260000D03*
%TO.P,R1,2*%
%TO.N,V_Control*%
X78000000Y-35260000D03*
%TD*%
D11*
%TO.P,D1,1,A1*%
%TO.N,V_Boost*%
X83150000Y-107760000D03*
%TO.P,D1,2,A2*%
%TO.N,Earth*%
X83150000Y-103760000D03*
%TD*%
D12*
%TO.P,R7,1*%
%TO.N,+3V3*%
X43150000Y-59760000D03*
%TO.P,R7,2*%
%TO.N,Dec - BTN*%
X43150000Y-61760000D03*
%TD*%
D13*
%TO.P,C1,1*%
%TO.N,Net-(U2-BST)*%
X100687500Y-50235000D03*
%TO.P,C1,2*%
%TO.N,Net-(U2-SW)*%
X98612500Y-50235000D03*
%TD*%
D14*
%TO.P,H1,1*%
%TO.N,N/C*%
X78214000Y-29020000D03*
D15*
X78214000Y-29020000D03*
%TD*%
D16*
%TO.P,SW5,1,1*%
%TO.N,Dec - BTN*%
X45650000Y-61010000D03*
X58150000Y-61010000D03*
%TO.P,SW5,2,2*%
%TO.N,GND*%
X45650000Y-66010000D03*
X58150000Y-66010000D03*
%TD*%
D17*
%TO.P,J5,*%
%TO.N,*%
X46990000Y-104170000D03*
X57150000Y-104170000D03*
X46990000Y-94010000D03*
X57150000Y-94010000D03*
D18*
%TO.P,J5,1,Pin_1*%
%TO.N,Electrode R*%
X52070000Y-97810000D03*
%TD*%
D19*
%TO.P,U5,1,OUT1*%
%TO.N,Net-(U5-OUT1)*%
X27980000Y-50070000D03*
D20*
%TO.P,U5,2,IN1-*%
%TO.N,Net-(Q3-S)*%
X27980000Y-47530000D03*
%TO.P,U5,3,IN1+*%
%TO.N,Filtered V_Control*%
X27980000Y-44990000D03*
%TO.P,U5,4,VCC-*%
%TO.N,Earth*%
X27980000Y-42450000D03*
%TO.P,U5,5,IN2+*%
%TO.N,unconnected-(U5-IN2+-Pad5)*%
X17820000Y-42450000D03*
%TO.P,U5,6,IN2-*%
%TO.N,unconnected-(U5-IN2--Pad6)*%
X17820000Y-44990000D03*
%TO.P,U5,7,OUT2*%
%TO.N,unconnected-(U5-OUT2-Pad7)*%
X17820000Y-47530000D03*
%TO.P,U5,8,VCC+*%
%TO.N,ISO_12v*%
X17820000Y-50070000D03*
%TD*%
D21*
%TO.P,50mA1,1*%
%TO.N,V_Boost*%
X68387500Y-109510000D03*
%TO.P,50mA1,2*%
%TO.N,V_Boost_FUSED*%
X65412500Y-109510000D03*
%TD*%
D22*
%TO.P,Q1,1,E*%
%TO.N,GND*%
X45110000Y-51510000D03*
D23*
%TO.P,Q1,2,B*%
%TO.N,Net-(Q1-B)*%
X43840000Y-51510000D03*
%TO.P,Q1,3,C*%
%TO.N,Net-(D3-A)*%
X42570000Y-51510000D03*
%TD*%
D10*
%TO.P,R14,1*%
%TO.N,Earth*%
X30650000Y-39760000D03*
%TO.P,R14,2*%
%TO.N,Net-(R13-Pad2)*%
X28650000Y-39760000D03*
%TD*%
D24*
%TO.P,REF\u002A\u002A,*%
%TO.N,*%
X94800000Y-74760000D03*
%TD*%
D12*
%TO.P,R5,1*%
%TO.N,+3V3*%
X92650000Y-58510000D03*
%TO.P,R5,2*%
%TO.N,Enter BTN*%
X92650000Y-60510000D03*
%TD*%
D25*
%TO.P,J1,1,Pin_1*%
%TO.N,GND*%
X103650000Y-49800000D03*
D14*
%TO.P,J1,2,Pin_2*%
%TO.N,Net-(J1-Pin_2)*%
X103650000Y-44720000D03*
%TD*%
D26*
%TO.P,C6,1*%
%TO.N,Enter BTN*%
X92650000Y-62722500D03*
%TO.P,C6,2*%
%TO.N,GND*%
X92650000Y-64797500D03*
%TD*%
D27*
%TO.P,C11,1*%
%TO.N,Filtered V_Control*%
X32150000Y-46572500D03*
%TO.P,C11,2*%
%TO.N,Earth*%
X32150000Y-42447500D03*
%TD*%
D28*
%TO.P,C10,1*%
%TO.N,ISO_12v*%
X87150000Y-87010000D03*
%TO.P,C10,2*%
%TO.N,Earth*%
X93650000Y-87010000D03*
%TD*%
D10*
%TO.P,R6,1*%
%TO.N,+3V3*%
X72650000Y-55260000D03*
%TO.P,R6,2*%
%TO.N,Inc + BTN*%
X70650000Y-55260000D03*
%TD*%
D22*
%TO.P,Q2,1,E*%
%TO.N,GND*%
X45150000Y-46010000D03*
D23*
%TO.P,Q2,2,B*%
%TO.N,Net-(Q2-B)*%
X43880000Y-46010000D03*
%TO.P,Q2,3,C*%
%TO.N,Net-(D2-A)*%
X42610000Y-46010000D03*
%TD*%
D16*
%TO.P,SW4,1,1*%
%TO.N,Inc + BTN*%
X61650000Y-61010000D03*
X74150000Y-61010000D03*
%TO.P,SW4,2,2*%
%TO.N,GND*%
X61650000Y-66010000D03*
X74150000Y-66010000D03*
%TD*%
D29*
%TO.P,L1,1,1*%
%TO.N,Net-(U2-SW)*%
X90150000Y-50960000D03*
%TO.P,L1,2,2*%
%TO.N,+3V3*%
X90150000Y-44560000D03*
%TD*%
D30*
%TO.P,U2,1,FB*%
%TO.N,+3V3*%
X99400000Y-45235000D03*
%TO.P,U2,2,EN*%
%TO.N,Vbat*%
X98450000Y-45235000D03*
%TO.P,U2,3,IN*%
X97500000Y-45235000D03*
%TO.P,U2,4,GND*%
%TO.N,GND*%
X97500000Y-47510000D03*
%TO.P,U2,5,SW*%
%TO.N,Net-(U2-SW)*%
X98450000Y-47510000D03*
%TO.P,U2,6,BST*%
%TO.N,Net-(U2-BST)*%
X99400000Y-47510000D03*
%TD*%
D31*
%TO.P,C12,1*%
%TO.N,+3V3*%
X80650000Y-23047500D03*
%TO.P,C12,2*%
%TO.N,GND*%
X80650000Y-20972500D03*
%TD*%
D32*
%TO.P,J2,1,Pin_1*%
%TO.N,SDA*%
X72497000Y-28860000D03*
D33*
%TO.P,J2,2,Pin_2*%
%TO.N,SCL*%
X69957000Y-28860000D03*
%TO.P,J2,3,Pin_3*%
%TO.N,+3V3*%
X67417000Y-28860000D03*
%TO.P,J2,4,Pin_4*%
%TO.N,GND*%
X64877000Y-28860000D03*
%TD*%
D34*
%TO.P,C3,1*%
%TO.N,+3V3*%
X84050000Y-51760000D03*
%TO.P,C3,2*%
%TO.N,GND*%
X79650000Y-51760000D03*
%TD*%
D12*
%TO.P,R4,1*%
%TO.N,+3V3*%
X52999000Y-18701000D03*
%TO.P,R4,2*%
%TO.N,EN*%
X52999000Y-20701000D03*
%TD*%
D16*
%TO.P,SW3,1,1*%
%TO.N,Enter BTN*%
X77650000Y-61010000D03*
X90150000Y-61010000D03*
%TO.P,SW3,2,2*%
%TO.N,GND*%
X77650000Y-66010000D03*
X90150000Y-66010000D03*
%TD*%
D35*
%TO.P,SW2,*%
%TO.N,*%
X55749000Y-22701000D03*
X62749000Y-22701000D03*
D33*
%TO.P,SW2,1,1*%
%TO.N,EN*%
X56999000Y-20201000D03*
%TO.P,SW2,2,2*%
%TO.N,GND*%
X61499000Y-20201000D03*
%TD*%
D10*
%TO.P,R8,1*%
%TO.N,IN2*%
X49550000Y-50250000D03*
%TO.P,R8,2*%
%TO.N,Net-(Q1-B)*%
X47550000Y-50250000D03*
%TD*%
D36*
%TO.P,Q3,1,G*%
%TO.N,Net-(Q3-G)*%
X32300000Y-60650000D03*
D37*
%TO.P,Q3,2,D*%
%TO.N,REG_Drain*%
X32300000Y-58110000D03*
%TO.P,Q3,3,S*%
%TO.N,Net-(Q3-S)*%
X32300000Y-55570000D03*
%TD*%
D26*
%TO.P,C8,1*%
%TO.N,Dec - BTN*%
X43150000Y-63722500D03*
%TO.P,C8,2*%
%TO.N,GND*%
X43150000Y-65797500D03*
%TD*%
D13*
%TO.P,C7,1*%
%TO.N,Inc + BTN*%
X65437500Y-55260000D03*
%TO.P,C7,2*%
%TO.N,GND*%
X63362500Y-55260000D03*
%TD*%
D38*
%TO.P,K1,1*%
%TO.N,Electrode L*%
X25850000Y-89410000D03*
D39*
%TO.P,K1,2*%
%TO.N,Net-(D2-A)*%
X31900000Y-87460000D03*
D38*
%TO.P,K1,3*%
%TO.N,V_Boost_FUSED*%
X31900000Y-75260000D03*
%TO.P,K1,4*%
%TO.N,REG_Drain*%
X19850000Y-75210000D03*
D39*
%TO.P,K1,5*%
%TO.N,Vbat*%
X19900000Y-87460000D03*
%TD*%
D40*
%TO.P,C9,1*%
%TO.N,V_Boost*%
X90400000Y-109010000D03*
%TO.P,C9,2*%
%TO.N,Earth*%
X90400000Y-102510000D03*
%TD*%
D14*
%TO.P,H3,1*%
%TO.N,N/C*%
X55114000Y-52580000D03*
D15*
X55114000Y-52580000D03*
%TD*%
D41*
%TO.P,RV1,1,1*%
%TO.N,Net-(U4-ADJ)*%
X77800000Y-103260000D03*
D42*
%TO.P,RV1,2,2*%
%TO.N,V_Boost*%
X76650000Y-108760000D03*
D41*
%TO.P,RV1,3,3*%
%TO.N,unconnected-(RV1-Pad3)*%
X75500000Y-103260000D03*
%TD*%
D34*
%TO.P,C4,1*%
%TO.N,+3V3*%
X84050000Y-45760000D03*
%TO.P,C4,2*%
%TO.N,GND*%
X79650000Y-45760000D03*
%TD*%
D43*
%TO.P,D4,1,K*%
%TO.N,ISO_12v*%
X84070000Y-93260000D03*
D35*
%TO.P,D4,2,A*%
%TO.N,Earth*%
X94230000Y-93260000D03*
%TD*%
D44*
%TO.P,BZ1,1,+*%
%TO.N,Buzzer*%
X109150000Y-30510000D03*
D45*
%TO.P,BZ1,2,-*%
%TO.N,GND*%
X109150000Y-25510000D03*
%TD*%
D26*
%TO.P,C2,1*%
%TO.N,Vbat*%
X95650000Y-45447500D03*
%TO.P,C2,2*%
%TO.N,GND*%
X95650000Y-47522500D03*
%TD*%
D38*
%TO.P,K2,1*%
%TO.N,Electrode R*%
X52100000Y-89460000D03*
D39*
%TO.P,K2,2*%
%TO.N,Net-(D3-A)*%
X58150000Y-87510000D03*
D38*
%TO.P,K2,3*%
%TO.N,V_Boost_FUSED*%
X58150000Y-75310000D03*
%TO.P,K2,4*%
%TO.N,REG_Drain*%
X46100000Y-75260000D03*
D39*
%TO.P,K2,5*%
%TO.N,Vbat*%
X46150000Y-87510000D03*
%TD*%
D46*
%TO.P,R12,1*%
%TO.N,V_Boost*%
X94150000Y-97760000D03*
%TO.P,R12,2*%
%TO.N,ISO_12v*%
X78910000Y-97760000D03*
%TD*%
D47*
%TO.P,C5,1*%
%TO.N,EN*%
X58211500Y-23201000D03*
%TO.P,C5,2*%
%TO.N,GND*%
X60286500Y-23201000D03*
%TD*%
D48*
%TO.P,D2,1,K*%
%TO.N,Vbat*%
X36150000Y-79340000D03*
D20*
%TO.P,D2,2,A*%
%TO.N,Net-(D2-A)*%
X36150000Y-86960000D03*
%TD*%
D17*
%TO.P,J4,*%
%TO.N,*%
X20740000Y-104120000D03*
X30900000Y-104120000D03*
X20740000Y-93960000D03*
X30900000Y-93960000D03*
D18*
%TO.P,J4,1,Pin_1*%
%TO.N,Electrode L*%
X25820000Y-97760000D03*
%TD*%
D46*
%TO.P,R11,1*%
%TO.N,Net-(Q3-S)*%
X34150000Y-66000000D03*
%TO.P,R11,2*%
%TO.N,Earth*%
X18910000Y-66000000D03*
%TD*%
D49*
%TO.P,U3,1,GND*%
%TO.N,GND*%
X82779216Y-21600000D03*
%TO.P,U3,2,3V3*%
%TO.N,+3V3*%
X82779216Y-22870000D03*
%TO.P,U3,3,EN*%
%TO.N,EN*%
X82779216Y-24140000D03*
%TO.P,U3,4,IO4*%
%TO.N,unconnected-(U3-IO4-Pad4)*%
X82779216Y-25410000D03*
%TO.P,U3,5,IO5*%
%TO.N,unconnected-(U3-IO5-Pad5)*%
X82779216Y-26680000D03*
%TO.P,U3,6,IO6*%
%TO.N,unconnected-(U3-IO6-Pad6)*%
X82779216Y-27950000D03*
%TO.P,U3,7,IO7*%
%TO.N,PWM_OUT*%
X82779216Y-29220000D03*
%TO.P,U3,8,IO15*%
%TO.N,unconnected-(U3-IO15-Pad8)*%
X82779216Y-30490000D03*
%TO.P,U3,9,IO16*%
%TO.N,unconnected-(U3-IO16-Pad9)*%
X82779216Y-31760000D03*
%TO.P,U3,10,IO17*%
%TO.N,IN1*%
X82779216Y-33030000D03*
%TO.P,U3,11,IO18*%
%TO.N,IN2*%
X82779216Y-34300000D03*
%TO.P,U3,12,IO8*%
%TO.N,SDA*%
X82779216Y-35570000D03*
%TO.P,U3,13,USB_D-*%
%TO.N,D-*%
X82779216Y-36840000D03*
%TO.P,U3,14,USB_D+*%
%TO.N,D+*%
X82779216Y-38110000D03*
D50*
%TO.P,U3,15,IO3*%
%TO.N,unconnected-(U3-IO3-Pad15)*%
X84544216Y-39360000D03*
%TO.P,U3,16,IO46*%
%TO.N,unconnected-(U3-IO46-Pad16)*%
X85814216Y-39360000D03*
%TO.P,U3,17,IO9*%
%TO.N,SCL*%
X87084216Y-39360000D03*
%TO.P,U3,18,IO10*%
%TO.N,unconnected-(U3-IO10-Pad18)*%
X88354216Y-39360000D03*
%TO.P,U3,19,IO11*%
%TO.N,unconnected-(U3-IO11-Pad19)*%
X89624216Y-39360000D03*
%TO.P,U3,20,IO12*%
%TO.N,unconnected-(U3-IO12-Pad20)*%
X90894216Y-39360000D03*
%TO.P,U3,21,IO13*%
%TO.N,unconnected-(U3-IO13-Pad21)*%
X92164216Y-39360000D03*
%TO.P,U3,22,IO14*%
%TO.N,unconnected-(U3-IO14-Pad22)*%
X93434216Y-39360000D03*
%TO.P,U3,23,IO21*%
%TO.N,unconnected-(U3-IO21-Pad23)*%
X94704216Y-39360000D03*
%TO.P,U3,24,IO47*%
%TO.N,unconnected-(U3-IO47-Pad24)*%
X95974216Y-39360000D03*
%TO.P,U3,25,IO48*%
%TO.N,unconnected-(U3-IO48-Pad25)*%
X97244216Y-39360000D03*
%TO.P,U3,26,IO45*%
%TO.N,unconnected-(U3-IO45-Pad26)*%
X98514216Y-39360000D03*
D49*
%TO.P,U3,27,IO0*%
%TO.N,unconnected-(U3-IO0-Pad27)*%
X100279216Y-38110000D03*
%TO.P,U3,28,IO35*%
%TO.N,unconnected-(U3-IO35-Pad28)*%
X100279216Y-36840000D03*
%TO.P,U3,29,IO36*%
%TO.N,unconnected-(U3-IO36-Pad29)*%
X100279216Y-35570000D03*
%TO.P,U3,30,IO37*%
%TO.N,unconnected-(U3-IO37-Pad30)*%
X100279216Y-34300000D03*
%TO.P,U3,31,IO38*%
%TO.N,Enter BTN*%
X100279216Y-33030000D03*
%TO.P,U3,32,IO39*%
%TO.N,Inc + BTN*%
X100279216Y-31760000D03*
%TO.P,U3,33,IO40*%
%TO.N,Dec - BTN*%
X100279216Y-30490000D03*
%TO.P,U3,34,IO41*%
%TO.N,Buzzer*%
X100279216Y-29220000D03*
%TO.P,U3,35,IO42*%
%TO.N,unconnected-(U3-IO42-Pad35)*%
X100279216Y-27950000D03*
%TO.P,U3,36,RXD0*%
%TO.N,unconnected-(U3-RXD0-Pad36)*%
X100279216Y-26680000D03*
%TO.P,U3,37,TXD0*%
%TO.N,unconnected-(U3-TXD0-Pad37)*%
X100279216Y-25410000D03*
%TO.P,U3,38,IO2*%
%TO.N,unconnected-(U3-IO2-Pad38)*%
X100279216Y-24140000D03*
%TO.P,U3,39,IO1*%
%TO.N,unconnected-(U3-IO1-Pad39)*%
X100279216Y-22870000D03*
%TO.P,U3,40,GND*%
%TO.N,GND*%
X100279216Y-21600000D03*
D51*
%TO.P,U3,41,GND*%
X88629216Y-28620000D03*
X88629216Y-30020000D03*
X89329216Y-27920000D03*
X89329216Y-29320000D03*
X89329216Y-30720000D03*
X90029216Y-28620000D03*
D52*
X90029216Y-29320000D03*
D51*
X90029216Y-30020000D03*
X90729216Y-27920000D03*
X90729216Y-29320000D03*
X90729216Y-30720000D03*
X91429216Y-28620000D03*
X91429216Y-30020000D03*
%TD*%
D45*
%TO.P,U4,1,Vin+*%
%TO.N,Vbat*%
X106800000Y-57310000D03*
%TO.P,U4,2,Vin+*%
X106800000Y-59850000D03*
D44*
%TO.P,U4,3,Vin-*%
%TO.N,GND*%
X106800000Y-62390000D03*
%TO.P,U4,4,Vin-*%
X106800000Y-64930000D03*
D45*
%TO.P,U4,5,-VDC*%
%TO.N,Earth*%
X106800000Y-103030000D03*
%TO.P,U4,6,ADJ*%
%TO.N,Net-(U4-ADJ)*%
X106800000Y-105570000D03*
D44*
%TO.P,U4,7,+VDC*%
%TO.N,V_Boost*%
X106800000Y-108110000D03*
%TD*%
D14*
%TO.P,H2,1*%
%TO.N,N/C*%
X55114000Y-29020000D03*
D15*
X55114000Y-29020000D03*
%TD*%
D53*
%TO.P,R13,1*%
%TO.N,Filtered V_Control*%
X25900000Y-36760000D03*
%TO.P,R13,2*%
%TO.N,Net-(R13-Pad2)*%
X25900000Y-34760000D03*
%TD*%
D24*
%TO.P,REF\u002A\u002A,*%
%TO.N,*%
X29900000Y-21060000D03*
%TD*%
D54*
%TO.P,J3,A1,GND*%
%TO.N,GND*%
X45600000Y-21735000D03*
%TO.P,J3,A4,VBUS*%
%TO.N,unconnected-(J3-VBUS-PadA4)*%
X44800000Y-21735000D03*
%TO.P,J3,A5,CC1*%
%TO.N,Net-(J3-CC1)*%
X43500000Y-21735000D03*
%TO.P,J3,A6,D+*%
%TO.N,D+*%
X42500000Y-21735000D03*
%TO.P,J3,A7,D-*%
%TO.N,D-*%
X42000000Y-21735000D03*
%TO.P,J3,A8*%
%TO.N,N/C*%
X41000000Y-21735000D03*
%TO.P,J3,A9,VBUS*%
%TO.N,unconnected-(J3-VBUS-PadA4)_1*%
X39700000Y-21735000D03*
%TO.P,J3,A12,GND*%
%TO.N,GND*%
X38900000Y-21735000D03*
%TO.P,J3,B1,GND*%
X39200000Y-21735000D03*
%TO.P,J3,B4,VBUS*%
%TO.N,unconnected-(J3-VBUS-PadA4)_3*%
X40000000Y-21735000D03*
%TO.P,J3,B5,CC2*%
%TO.N,Net-(J3-CC2)*%
X40500000Y-21735000D03*
%TO.P,J3,B6,D+*%
%TO.N,D+*%
X41500000Y-21735000D03*
%TO.P,J3,B7,D-*%
%TO.N,D-*%
X43000000Y-21735000D03*
%TO.P,J3,B8*%
%TO.N,N/C*%
X44000000Y-21735000D03*
%TO.P,J3,B9,VBUS*%
%TO.N,unconnected-(J3-VBUS-PadA4)_2*%
X44500000Y-21735000D03*
%TO.P,J3,B12,GND*%
%TO.N,GND*%
X45300000Y-21735000D03*
D55*
%TO.P,J3,S1,SHIELD*%
X46570000Y-21170000D03*
D56*
X46570000Y-16990000D03*
D55*
X37930000Y-21170000D03*
D56*
X37930000Y-16990000D03*
%TD*%
D53*
%TO.P,R10,1*%
%TO.N,Net-(Q3-G)*%
X27900000Y-54660000D03*
%TO.P,R10,2*%
%TO.N,Net-(U5-OUT1)*%
X27900000Y-52660000D03*
%TD*%
D48*
%TO.P,D3,1,K*%
%TO.N,Vbat*%
X62400000Y-79450000D03*
D20*
%TO.P,D3,2,A*%
%TO.N,Net-(D3-A)*%
X62400000Y-87070000D03*
%TD*%
D57*
%TO.P,SW1,1,B*%
%TO.N,Vbat*%
X110860000Y-38260000D03*
D20*
%TO.P,SW1,2,C*%
%TO.N,Net-(J1-Pin_2)*%
X113400000Y-38260000D03*
%TO.P,SW1,3,A*%
%TO.N,unconnected-(SW1-A-Pad3)*%
X108320000Y-38260000D03*
%TD*%
D19*
%TO.P,U6,1*%
%TO.N,V_Control*%
X36650000Y-36800000D03*
D20*
%TO.P,U6,2*%
%TO.N,GND*%
X36650000Y-34260000D03*
%TO.P,U6,3*%
%TO.N,Net-(R13-Pad2)*%
X29030000Y-34260000D03*
%TO.P,U6,4*%
%TO.N,ISO_12v*%
X29030000Y-36800000D03*
%TD*%
D10*
%TO.P,R9,1*%
%TO.N,IN1*%
X49550000Y-47200000D03*
%TO.P,R9,2*%
%TO.N,Net-(Q2-B)*%
X47550000Y-47200000D03*
%TD*%
D58*
%TO.N,Earth*%
X32150000Y-40260000D03*
D59*
X85400000Y-102510000D03*
X65650000Y-103760000D03*
%TO.N,Vbat*%
X89650000Y-76510000D03*
D60*
X97150000Y-43735000D03*
D59*
%TO.N,V_Boost*%
X72900000Y-108760000D03*
X85400000Y-109010000D03*
%TO.N,GND*%
X51408565Y-28574878D03*
D61*
X62150000Y-55260000D03*
D62*
X101650000Y-21760000D03*
D59*
X77650000Y-48510000D03*
D62*
X84150000Y-21760000D03*
D60*
X96900000Y-48985000D03*
D62*
%TO.N,Dec - BTN*%
X87150000Y-37010000D03*
D61*
%TO.N,IN2*%
X84400000Y-34260000D03*
X71000000Y-43860000D03*
D59*
%TO.N,V_Boost_FUSED*%
X39900000Y-92260000D03*
X62400000Y-109510000D03*
D61*
%TO.N,IN1*%
X66200000Y-45260000D03*
X84400000Y-33010000D03*
%TO.N,SCL*%
X86900000Y-35760000D03*
%TO.N,SDA*%
X85900000Y-35760000D03*
D59*
%TO.N,+3V3*%
X64650000Y-40010000D03*
D61*
X43150000Y-58010000D03*
X92400000Y-56510000D03*
D60*
X99400000Y-43735000D03*
D61*
X51249000Y-18701000D03*
D59*
X85400000Y-48510000D03*
D60*
X92900000Y-45010000D03*
D62*
X84150000Y-22760000D03*
D61*
X73900000Y-55260000D03*
D62*
%TO.N,Enter BTN*%
X91150000Y-37010000D03*
%TO.N,Inc + BTN*%
X89150000Y-37010000D03*
D61*
%TO.N,V_Control*%
X76977515Y-34294656D03*
D59*
%TO.N,Net-(U4-ADJ)*%
X77900000Y-105510000D03*
%TD*%
D63*
%TO.N,Earth*%
X32150000Y-42447500D02*
X32150000Y-40260000D01*
D64*
X90920000Y-103030000D02*
X90400000Y-102510000D01*
X84400000Y-102510000D02*
X83150000Y-103760000D01*
D63*
X31650000Y-39760000D02*
X32150000Y-40260000D01*
D64*
X90400000Y-102510000D02*
X85400000Y-102510000D01*
X85400000Y-102510000D02*
X84400000Y-102510000D01*
D65*
X94230000Y-93260000D02*
X94230000Y-87590000D01*
X94230000Y-87590000D02*
X93650000Y-87010000D01*
D64*
X106800000Y-103030000D02*
X90920000Y-103030000D01*
D63*
X30650000Y-39760000D02*
X31650000Y-39760000D01*
D66*
%TO.N,Vbat*%
X97150000Y-43735000D02*
X97150000Y-43785000D01*
X98450000Y-44285000D02*
X98450000Y-45235000D01*
X97150000Y-43735000D02*
X96650000Y-43735000D01*
X97900000Y-43735000D02*
X98450000Y-44285000D01*
X95650000Y-44735000D02*
X95650000Y-45447500D01*
X97500000Y-44135000D02*
X97500000Y-45235000D01*
X97150000Y-43785000D02*
X97500000Y-44135000D01*
X96650000Y-43735000D02*
X95650000Y-44735000D01*
X97150000Y-43735000D02*
X97900000Y-43735000D01*
%TO.N,Net-(U2-SW)*%
X98524000Y-47978918D02*
X98450000Y-47904918D01*
X90150000Y-50960000D02*
X97887500Y-50960000D01*
X98450000Y-47904918D02*
X98450000Y-47510000D01*
X98612500Y-50235000D02*
X98524000Y-50146500D01*
X97887500Y-50960000D02*
X98612500Y-50235000D01*
X98524000Y-50146500D02*
X98524000Y-47978918D01*
D64*
%TO.N,V_Boost*%
X76650000Y-108760000D02*
X72900000Y-108760000D01*
X69137500Y-108760000D02*
X68387500Y-109510000D01*
X85400000Y-109010000D02*
X84400000Y-109010000D01*
X105900000Y-109010000D02*
X106800000Y-108110000D01*
X90400000Y-109010000D02*
X105900000Y-109010000D01*
X90400000Y-109010000D02*
X85400000Y-109010000D01*
X84400000Y-109010000D02*
X83150000Y-107760000D01*
X72900000Y-108760000D02*
X69137500Y-108760000D01*
X82150000Y-108760000D02*
X83150000Y-107760000D01*
X76650000Y-108760000D02*
X82150000Y-108760000D01*
D66*
%TO.N,Net-(U2-BST)*%
X100687500Y-48797500D02*
X99400000Y-47510000D01*
X100687500Y-50235000D02*
X100687500Y-48797500D01*
D67*
%TO.N,D-*%
X42000000Y-20850000D02*
X42000000Y-21735000D01*
X57103554Y-37250000D02*
X81244215Y-37250000D01*
X43000000Y-21735000D02*
X43000000Y-20858000D01*
X43000000Y-21735000D02*
X43000000Y-23146446D01*
X43000000Y-20858000D02*
X42976000Y-20834000D01*
X42976000Y-20834000D02*
X42016000Y-20834000D01*
X57076777Y-37223223D02*
X57103554Y-37250000D01*
X43000000Y-23146446D02*
X57076777Y-37223223D01*
X81244215Y-37250000D02*
X81654215Y-36840000D01*
X81654215Y-36840000D02*
X82779216Y-36840000D01*
X42016000Y-20834000D02*
X42000000Y-20850000D01*
D63*
%TO.N,Filtered V_Control*%
X30637500Y-45060000D02*
X28050000Y-45060000D01*
X32150000Y-46572500D02*
X30637500Y-45060000D01*
X28050000Y-45060000D02*
X27980000Y-44990000D01*
X25900000Y-43760000D02*
X27130000Y-44990000D01*
X25900000Y-36760000D02*
X25900000Y-43760000D01*
X27130000Y-44990000D02*
X27980000Y-44990000D01*
D64*
%TO.N,Net-(D2-A)*%
X32400000Y-86960000D02*
X31900000Y-87460000D01*
X36150000Y-86960000D02*
X32400000Y-86960000D01*
%TO.N,Net-(D3-A)*%
X58590000Y-87070000D02*
X58150000Y-87510000D01*
X62400000Y-87070000D02*
X58590000Y-87070000D01*
D68*
%TO.N,GND*%
X101490000Y-21600000D02*
X101650000Y-21760000D01*
X80650000Y-20972500D02*
X82151716Y-20972500D01*
D66*
X97500000Y-48385000D02*
X97500000Y-47510000D01*
D68*
X89900000Y-66010000D02*
X91437500Y-66010000D01*
X82151716Y-20972500D02*
X82779216Y-21600000D01*
D66*
X96900000Y-48985000D02*
X97500000Y-48385000D01*
D68*
X45687500Y-65797500D02*
X45900000Y-66010000D01*
X100279216Y-21600000D02*
X101490000Y-21600000D01*
X60286500Y-23201000D02*
X60286500Y-21413500D01*
X82779216Y-21600000D02*
X82939216Y-21760000D01*
X82939216Y-21760000D02*
X84150000Y-21760000D01*
D64*
X77650000Y-47760000D02*
X77650000Y-48510000D01*
D66*
X95650000Y-47735000D02*
X96900000Y-48985000D01*
D68*
X43150000Y-65797500D02*
X45687500Y-65797500D01*
D64*
X77650000Y-48510000D02*
X77650000Y-49760000D01*
X79650000Y-45760000D02*
X77650000Y-47760000D01*
D68*
X62150000Y-55260000D02*
X63362500Y-55260000D01*
X60286500Y-21413500D02*
X61499000Y-20201000D01*
D64*
X77650000Y-49760000D02*
X79650000Y-51760000D01*
D66*
X95650000Y-47522500D02*
X95650000Y-47735000D01*
D68*
X91437500Y-66010000D02*
X92650000Y-64797500D01*
X108400000Y-25510000D02*
X109150000Y-25510000D01*
D65*
%TO.N,ISO_12v*%
X84070000Y-93260000D02*
X84070000Y-90090000D01*
X84070000Y-90090000D02*
X87150000Y-87010000D01*
D67*
%TO.N,D+*%
X42500000Y-23353554D02*
X56723223Y-37576777D01*
X81244215Y-37700000D02*
X81654215Y-38110000D01*
X81654215Y-38110000D02*
X82779216Y-38110000D01*
X41500000Y-22612000D02*
X41900000Y-23012000D01*
X56846446Y-37700000D02*
X81244215Y-37700000D01*
X42500000Y-21735000D02*
X42500000Y-22612000D01*
X42100000Y-23012000D02*
X42500000Y-22612000D01*
X42500000Y-22612000D02*
X42500000Y-23353554D01*
X56723223Y-37576777D02*
X56846446Y-37700000D01*
X41500000Y-21735000D02*
X41500000Y-22612000D01*
X42500000Y-21735000D02*
X42500000Y-23353554D01*
X41900000Y-23012000D02*
X42100000Y-23012000D01*
D68*
%TO.N,Dec - BTN*%
X100279216Y-30490000D02*
X93661216Y-30490000D01*
X43150000Y-61760000D02*
X45150000Y-61760000D01*
D69*
X58400000Y-61010000D02*
X45900000Y-61010000D01*
D68*
X43150000Y-61760000D02*
X43150000Y-63722500D01*
X45150000Y-61760000D02*
X45900000Y-61010000D01*
X93661216Y-30490000D02*
X87150000Y-37001216D01*
X87150000Y-37010000D02*
X87150000Y-37001216D01*
%TO.N,IN2*%
X70990000Y-43860000D02*
X67750000Y-47100000D01*
X82819216Y-34260000D02*
X82779216Y-34300000D01*
X51600000Y-48350000D02*
X49700000Y-50250000D01*
X49700000Y-50250000D02*
X49550000Y-50250000D01*
X71000000Y-43860000D02*
X70990000Y-43860000D01*
X84400000Y-34260000D02*
X82819216Y-34260000D01*
X55550000Y-48350000D02*
X51600000Y-48350000D01*
X56800000Y-47100000D02*
X55550000Y-48350000D01*
X67750000Y-47100000D02*
X56800000Y-47100000D01*
D64*
%TO.N,V_Boost_FUSED*%
X65412500Y-109510000D02*
X62400000Y-109510000D01*
D63*
%TO.N,Net-(Q3-S)*%
X29111370Y-47530000D02*
X32300000Y-50718630D01*
X32300000Y-55570000D02*
X33770000Y-55570000D01*
X32300000Y-50718630D02*
X32300000Y-55570000D01*
X27980000Y-47530000D02*
X29111370Y-47530000D01*
X33770000Y-55570000D02*
X35350000Y-57150000D01*
X35350000Y-57150000D02*
X35350000Y-64800000D01*
X35350000Y-64800000D02*
X34150000Y-66000000D01*
D66*
%TO.N,PWM_OUT*%
X81000000Y-29499216D02*
X81000000Y-34260000D01*
X81000000Y-34260000D02*
X80000000Y-35260000D01*
X82779216Y-29220000D02*
X81279216Y-29220000D01*
X81279216Y-29220000D02*
X81000000Y-29499216D01*
D63*
%TO.N,Net-(Q3-G)*%
X27900000Y-58750000D02*
X29800000Y-60650000D01*
X29800000Y-60650000D02*
X32300000Y-60650000D01*
X27900000Y-54660000D02*
X27900000Y-58750000D01*
D68*
%TO.N,IN1*%
X66200000Y-45260000D02*
X65800000Y-44860000D01*
X50490000Y-46260000D02*
X49550000Y-47200000D01*
X55100000Y-46260000D02*
X50490000Y-46260000D01*
X84400000Y-33010000D02*
X82799216Y-33010000D01*
X82799216Y-33010000D02*
X82779216Y-33030000D01*
X56500000Y-44860000D02*
X55100000Y-46260000D01*
X65800000Y-44860000D02*
X56500000Y-44860000D01*
%TO.N,SCL*%
X86150000Y-36713496D02*
X86150000Y-37510000D01*
X86150000Y-37510000D02*
X87084216Y-38444216D01*
X87084216Y-38444216D02*
X87084216Y-39360000D01*
X86900000Y-35760000D02*
X86900000Y-35963496D01*
X86900000Y-35963496D02*
X86150000Y-36713496D01*
%TO.N,SDA*%
X82969216Y-35760000D02*
X82779216Y-35570000D01*
X85900000Y-35760000D02*
X82969216Y-35760000D01*
%TO.N,+3V3*%
X80827500Y-22870000D02*
X80650000Y-23047500D01*
D66*
X99400000Y-45235000D02*
X99400000Y-43735000D01*
D64*
X84050000Y-45760000D02*
X85400000Y-47110000D01*
X85400000Y-47110000D02*
X85400000Y-48510000D01*
X85400000Y-48510000D02*
X85400000Y-50410000D01*
D66*
X90150000Y-44560000D02*
X92450000Y-44560000D01*
D68*
X51249000Y-18701000D02*
X52999000Y-18701000D01*
X92650000Y-56760000D02*
X92400000Y-56510000D01*
X72650000Y-55260000D02*
X73900000Y-55260000D01*
X84040000Y-22870000D02*
X84150000Y-22760000D01*
X92650000Y-58510000D02*
X92650000Y-56760000D01*
D66*
X92450000Y-44560000D02*
X92900000Y-45010000D01*
D68*
X82779216Y-22870000D02*
X80827500Y-22870000D01*
X82779216Y-22870000D02*
X84040000Y-22870000D01*
D64*
X85400000Y-50410000D02*
X84050000Y-51760000D01*
D68*
X43150000Y-59760000D02*
X43150000Y-58010000D01*
%TO.N,Enter BTN*%
X92150000Y-61010000D02*
X92650000Y-60510000D01*
X95130000Y-33030000D02*
X100279216Y-33030000D01*
X91150000Y-37010000D02*
X95130000Y-33030000D01*
X89900000Y-61010000D02*
X92150000Y-61010000D01*
X92650000Y-60510000D02*
X92650000Y-62722500D01*
D69*
X77400000Y-61010000D02*
X89900000Y-61010000D01*
D68*
%TO.N,Buzzer*%
X107860000Y-29220000D02*
X100279216Y-29220000D01*
X109150000Y-30510000D02*
X107860000Y-29220000D01*
%TO.N,Inc + BTN*%
X94400000Y-31760000D02*
X89150000Y-37010000D01*
D69*
X68150000Y-61010000D02*
X67650000Y-61010000D01*
X67650000Y-55260000D02*
X65437500Y-55260000D01*
X67650000Y-55260000D02*
X70650000Y-55260000D01*
X67650000Y-61010000D02*
X61650000Y-61010000D01*
X68150000Y-55760000D02*
X67650000Y-55260000D01*
X74150000Y-61010000D02*
X68150000Y-61010000D01*
X68150000Y-61010000D02*
X68150000Y-55760000D01*
D68*
X100279216Y-31760000D02*
X94400000Y-31760000D01*
%TO.N,EN*%
X52999000Y-20201000D02*
X56999000Y-20201000D01*
X56999000Y-20201000D02*
X58211500Y-21413500D01*
X58211500Y-24011500D02*
X59350000Y-25150000D01*
X64500000Y-25150000D02*
X65250000Y-24400000D01*
X58211500Y-21413500D02*
X58211500Y-23201000D01*
X82519216Y-24400000D02*
X82779216Y-24140000D01*
X65250000Y-24400000D02*
X82519216Y-24400000D01*
X82659216Y-24260000D02*
X82779216Y-24140000D01*
X58211500Y-23201000D02*
X58211500Y-24011500D01*
X59350000Y-25150000D02*
X64500000Y-25150000D01*
D66*
%TO.N,V_Control*%
X78000000Y-35260000D02*
X77200000Y-34460000D01*
D68*
%TO.N,Net-(Q1-B)*%
X47550000Y-50250000D02*
X47491000Y-50309000D01*
X43840000Y-50603000D02*
X43840000Y-51510000D01*
X44134000Y-50309000D02*
X43840000Y-50603000D01*
X47491000Y-50309000D02*
X44134000Y-50309000D01*
%TO.N,Net-(Q2-B)*%
X44174000Y-47211000D02*
X43880000Y-46917000D01*
X43880000Y-46917000D02*
X43880000Y-46010000D01*
X47539000Y-47211000D02*
X44174000Y-47211000D01*
X47550000Y-47200000D02*
X47539000Y-47211000D01*
D64*
%TO.N,Net-(U4-ADJ)*%
X77800000Y-103260000D02*
X77800000Y-105410000D01*
X77800000Y-105410000D02*
X77900000Y-105510000D01*
D69*
%TO.N,Net-(R13-Pad2)*%
X28650000Y-39760000D02*
X27400000Y-38510000D01*
D63*
X29030000Y-34260000D02*
X26400000Y-34260000D01*
D69*
X27400000Y-38510000D02*
X27400000Y-35890000D01*
X27400000Y-35890000D02*
X29030000Y-34260000D01*
D63*
X26400000Y-34260000D02*
X25900000Y-34760000D01*
%TO.N,Net-(U5-OUT1)*%
X27980000Y-52580000D02*
X27900000Y-52660000D01*
X27980000Y-50070000D02*
X27980000Y-52580000D01*
%TD*%
M02*
