%TF.GenerationSoftware,KiCad,Pcbnew,9.0.6*%
%TF.CreationDate,2026-01-02T13:15:05-05:00*%
%TF.ProjectId,Ionto,496f6e74-6f2e-46b6-9963-61645f706362,rev?*%
%TF.SameCoordinates,Original*%
%TF.FileFunction,Soldermask,Bot*%
%TF.FilePolarity,Negative*%
%FSLAX46Y46*%
G04 Gerber Fmt 4.6, Leading zero omitted, Abs format (unit mm)*
G04 Created by KiCad (PCBNEW 9.0.6) date 2026-01-02 13:15:05*
%MOMM*%
%LPD*%
G01*
G04 APERTURE LIST*
G04 Aperture macros list*
%AMRoundRect*
0 Rectangle with rounded corners*
0 $1 Rounding radius*
0 $2 $3 $4 $5 $6 $7 $8 $9 X,Y pos of 4 corners*
0 Add a 4 corners polygon primitive as box body*
4,1,4,$2,$3,$4,$5,$6,$7,$8,$9,$2,$3,0*
0 Add four circle primitives for the rounded corners*
1,1,$1+$1,$2,$3*
1,1,$1+$1,$4,$5*
1,1,$1+$1,$6,$7*
1,1,$1+$1,$8,$9*
0 Add four rect primitives between the rounded corners*
20,1,$1+$1,$2,$3,$4,$5,0*
20,1,$1+$1,$4,$5,$6,$7,0*
20,1,$1+$1,$6,$7,$8,$9,0*
20,1,$1+$1,$8,$9,$2,$3,0*%
G04 Aperture macros list end*
%ADD10C,3.200000*%
%ADD11C,2.600000*%
%ADD12C,4.400000*%
%ADD13O,3.200000X1.900000*%
%ADD14C,1.700000*%
%ADD15C,3.500000*%
%ADD16RoundRect,0.250000X0.550000X0.550000X-0.550000X0.550000X-0.550000X-0.550000X0.550000X-0.550000X0*%
%ADD17C,1.600000*%
%ADD18R,1.050000X1.500000*%
%ADD19O,1.050000X1.500000*%
%ADD20RoundRect,0.650000X0.650000X-0.650000X0.650000X0.650000X-0.650000X0.650000X-0.650000X-0.650000X0*%
%ADD21R,1.700000X1.700000*%
%ADD22C,2.200000*%
%ADD23R,2.000000X1.905000*%
%ADD24O,2.000000X1.905000*%
%ADD25C,3.000000*%
%ADD26C,2.500000*%
%ADD27RoundRect,0.249999X-0.850001X-0.850001X0.850001X-0.850001X0.850001X0.850001X-0.850001X0.850001X0*%
%ADD28R,2.000000X2.000000*%
%ADD29C,2.000000*%
%ADD30C,2.400000*%
%ADD31RoundRect,0.250000X-0.550000X0.550000X-0.550000X-0.550000X0.550000X-0.550000X0.550000X0.550000X0*%
%ADD32C,0.650000*%
%ADD33O,1.000000X2.100000*%
%ADD34O,1.000000X1.600000*%
%ADD35R,1.500000X1.500000*%
%ADD36RoundRect,0.250000X0.450000X-0.350000X0.450000X0.350000X-0.450000X0.350000X-0.450000X-0.350000X0*%
G04 APERTURE END LIST*
D10*
%TO.C,REF\u002A\u002A*%
X38300000Y-108260000D03*
%TD*%
D11*
%TO.C,H1*%
X78214000Y-29020000D03*
D12*
X78214000Y-29020000D03*
%TD*%
D13*
%TO.C,SW5*%
X45650000Y-61010000D03*
X58150000Y-61010000D03*
X45650000Y-66010000D03*
X58150000Y-66010000D03*
%TD*%
D14*
%TO.C,J5*%
X46990000Y-104170000D03*
X57150000Y-104170000D03*
X46990000Y-94010000D03*
X57150000Y-94010000D03*
D15*
X52070000Y-97810000D03*
%TD*%
D16*
%TO.C,U5*%
X27980000Y-50070000D03*
D17*
X27980000Y-47530000D03*
X27980000Y-44990000D03*
X27980000Y-42450000D03*
X17820000Y-42450000D03*
X17820000Y-44990000D03*
X17820000Y-47530000D03*
X17820000Y-50070000D03*
%TD*%
D18*
%TO.C,Q1*%
X45110000Y-51510000D03*
D19*
X43840000Y-51510000D03*
X42570000Y-51510000D03*
%TD*%
D20*
%TO.C,J1*%
X103650000Y-49800000D03*
D11*
X103650000Y-44720000D03*
%TD*%
D18*
%TO.C,Q2*%
X45150000Y-46010000D03*
D19*
X43880000Y-46010000D03*
X42610000Y-46010000D03*
%TD*%
D13*
%TO.C,SW4*%
X61650000Y-61010000D03*
X74150000Y-61010000D03*
X61650000Y-66010000D03*
X74150000Y-66010000D03*
%TD*%
D10*
%TO.C,REF\u002A\u002A*%
X112900000Y-108260000D03*
%TD*%
D21*
%TO.C,J2*%
X72497000Y-28860000D03*
D14*
X69957000Y-28860000D03*
X67417000Y-28860000D03*
X64877000Y-28860000D03*
%TD*%
D10*
%TO.C,REF\u002A\u002A*%
X112900000Y-22760000D03*
%TD*%
%TO.C,REF\u002A\u002A*%
X23200000Y-25460000D03*
%TD*%
D13*
%TO.C,SW3*%
X77650000Y-61010000D03*
X90150000Y-61010000D03*
X77650000Y-66010000D03*
X90150000Y-66010000D03*
%TD*%
D22*
%TO.C,SW2*%
X55749000Y-22701000D03*
X62749000Y-22701000D03*
D14*
X56999000Y-20201000D03*
X61499000Y-20201000D03*
%TD*%
D23*
%TO.C,Q3*%
X32300000Y-60650000D03*
D24*
X32300000Y-58110000D03*
X32300000Y-55570000D03*
%TD*%
D25*
%TO.C,K1*%
X25850000Y-89410000D03*
D26*
X31900000Y-87460000D03*
D25*
X31900000Y-75260000D03*
X19850000Y-75210000D03*
D26*
X19900000Y-87460000D03*
%TD*%
D11*
%TO.C,H3*%
X55114000Y-52580000D03*
D12*
X55114000Y-52580000D03*
%TD*%
D27*
%TO.C,D4*%
X84070000Y-93260000D03*
D22*
X94230000Y-93260000D03*
%TD*%
D28*
%TO.C,BZ1*%
X109150000Y-30510000D03*
D29*
X109150000Y-25510000D03*
%TD*%
D25*
%TO.C,K2*%
X52100000Y-89460000D03*
D26*
X58150000Y-87510000D03*
D25*
X58150000Y-75310000D03*
X46100000Y-75260000D03*
D26*
X46150000Y-87510000D03*
%TD*%
D30*
%TO.C,R12*%
X94150000Y-97760000D03*
X78910000Y-97760000D03*
%TD*%
D31*
%TO.C,D2*%
X36150000Y-79340000D03*
D17*
X36150000Y-86960000D03*
%TD*%
D14*
%TO.C,J4*%
X20740000Y-104120000D03*
X30900000Y-104120000D03*
X20740000Y-93960000D03*
X30900000Y-93960000D03*
D15*
X25820000Y-97760000D03*
%TD*%
D30*
%TO.C,R11*%
X34150000Y-66000000D03*
X18910000Y-66000000D03*
%TD*%
D29*
%TO.C,U4*%
X106800000Y-57310000D03*
X106800000Y-59850000D03*
D28*
X106800000Y-62390000D03*
X106800000Y-64930000D03*
D29*
X106800000Y-103030000D03*
X106800000Y-105570000D03*
D28*
X106800000Y-108110000D03*
%TD*%
D11*
%TO.C,H2*%
X55114000Y-29020000D03*
D12*
X55114000Y-29020000D03*
%TD*%
D32*
%TO.C,J3*%
X45140000Y-20670000D03*
X39360000Y-20670000D03*
D33*
X46570000Y-21170000D03*
D34*
X46570000Y-16990000D03*
D33*
X37930000Y-21170000D03*
D34*
X37930000Y-16990000D03*
%TD*%
D31*
%TO.C,D3*%
X62400000Y-79450000D03*
D17*
X62400000Y-87070000D03*
%TD*%
D35*
%TO.C,SW1*%
X110860000Y-38260000D03*
D17*
X113400000Y-38260000D03*
X108320000Y-38260000D03*
%TD*%
D16*
%TO.C,U6*%
X36650000Y-36800000D03*
D17*
X36650000Y-34260000D03*
X29030000Y-34260000D03*
X29030000Y-36800000D03*
%TD*%
D29*
%TO.C,TP4*%
X43150000Y-100510000D03*
%TD*%
%TO.C,TP2*%
X39900000Y-95510000D03*
%TD*%
D36*
%TO.C,R3*%
X38700000Y-26300000D03*
X38700000Y-24300000D03*
%TD*%
D29*
%TO.C,TP11*%
X61900000Y-40760000D03*
%TD*%
D36*
%TO.C,R2*%
X43200000Y-26300000D03*
X43200000Y-24300000D03*
%TD*%
D29*
%TO.C,TP3*%
X35150000Y-100760000D03*
%TD*%
%TO.C,TP10*%
X49200000Y-31660000D03*
%TD*%
%TO.C,TP5*%
X92900000Y-76260000D03*
%TD*%
%TO.C,TP7*%
X65600000Y-42660000D03*
%TD*%
%TO.C,TP12*%
X64400000Y-105760000D03*
%TD*%
%TO.C,TP6*%
X33650000Y-51260000D03*
%TD*%
%TO.C,TP1*%
X70400000Y-105510000D03*
%TD*%
%TO.C,TP9*%
X42900000Y-33510000D03*
%TD*%
%TO.C,TP8*%
X70000000Y-45860000D03*
%TD*%
M02*
