%TF.GenerationSoftware,KiCad,Pcbnew,9.0.6*%
%TF.CreationDate,2026-01-02T13:15:05-05:00*%
%TF.ProjectId,Ionto,496f6e74-6f2e-46b6-9963-61645f706362,rev?*%
%TF.SameCoordinates,Original*%
%TF.FileFunction,Legend,Top*%
%TF.FilePolarity,Positive*%
%FSLAX46Y46*%
G04 Gerber Fmt 4.6, Leading zero omitted, Abs format (unit mm)*
G04 Created by KiCad (PCBNEW 9.0.6) date 2026-01-02 13:15:05*
%MOMM*%
%LPD*%
G01*
G04 APERTURE LIST*
G04 Aperture macros list*
%AMRoundRect*
0 Rectangle with rounded corners*
0 $1 Rounding radius*
0 $2 $3 $4 $5 $6 $7 $8 $9 X,Y pos of 4 corners*
0 Add a 4 corners polygon primitive as box body*
4,1,4,$2,$3,$4,$5,$6,$7,$8,$9,$2,$3,0*
0 Add four circle primitives for the rounded corners*
1,1,$1+$1,$2,$3*
1,1,$1+$1,$4,$5*
1,1,$1+$1,$6,$7*
1,1,$1+$1,$8,$9*
0 Add four rect primitives between the rounded corners*
20,1,$1+$1,$2,$3,$4,$5,0*
20,1,$1+$1,$4,$5,$6,$7,0*
20,1,$1+$1,$6,$7,$8,$9,0*
20,1,$1+$1,$8,$9,$2,$3,0*%
G04 Aperture macros list end*
%ADD10C,0.100000*%
%ADD11C,0.150000*%
%ADD12C,0.120000*%
%ADD13RoundRect,0.250000X0.350000X0.450000X-0.350000X0.450000X-0.350000X-0.450000X0.350000X-0.450000X0*%
%ADD14RoundRect,0.250000X0.650000X-1.000000X0.650000X1.000000X-0.650000X1.000000X-0.650000X-1.000000X0*%
%ADD15C,3.200000*%
%ADD16RoundRect,0.250000X-0.450000X0.350000X-0.450000X-0.350000X0.450000X-0.350000X0.450000X0.350000X0*%
%ADD17RoundRect,0.250000X0.337500X0.475000X-0.337500X0.475000X-0.337500X-0.475000X0.337500X-0.475000X0*%
%ADD18C,2.600000*%
%ADD19C,4.400000*%
%ADD20O,3.200000X1.900000*%
%ADD21C,1.700000*%
%ADD22C,3.500000*%
%ADD23RoundRect,0.250000X0.550000X0.550000X-0.550000X0.550000X-0.550000X-0.550000X0.550000X-0.550000X0*%
%ADD24C,1.600000*%
%ADD25RoundRect,0.250001X0.462499X0.624999X-0.462499X0.624999X-0.462499X-0.624999X0.462499X-0.624999X0*%
%ADD26R,1.050000X1.500000*%
%ADD27O,1.050000X1.500000*%
%ADD28C,2.000000*%
%ADD29RoundRect,0.650000X0.650000X-0.650000X0.650000X0.650000X-0.650000X0.650000X-0.650000X-0.650000X0*%
%ADD30RoundRect,0.250000X-0.475000X0.337500X-0.475000X-0.337500X0.475000X-0.337500X0.475000X0.337500X0*%
%ADD31RoundRect,0.250000X0.550000X-1.137500X0.550000X1.137500X-0.550000X1.137500X-0.550000X-1.137500X0*%
%ADD32RoundRect,0.250000X-1.500000X-1.000000X1.500000X-1.000000X1.500000X1.000000X-1.500000X1.000000X0*%
%ADD33R,2.200000X1.500000*%
%ADD34RoundRect,0.150000X-0.150000X0.512500X-0.150000X-0.512500X0.150000X-0.512500X0.150000X0.512500X0*%
%ADD35RoundRect,0.250000X0.475000X-0.337500X0.475000X0.337500X-0.475000X0.337500X-0.475000X-0.337500X0*%
%ADD36R,1.700000X1.700000*%
%ADD37RoundRect,0.250000X1.250000X0.550000X-1.250000X0.550000X-1.250000X-0.550000X1.250000X-0.550000X0*%
%ADD38C,2.200000*%
%ADD39R,2.000000X1.905000*%
%ADD40O,2.000000X1.905000*%
%ADD41C,3.000000*%
%ADD42C,2.500000*%
%ADD43RoundRect,0.250000X1.000000X-1.500000X1.000000X1.500000X-1.000000X1.500000X-1.000000X-1.500000X0*%
%ADD44RoundRect,0.250000X-0.400000X-0.400000X0.400000X-0.400000X0.400000X0.400000X-0.400000X0.400000X0*%
%ADD45RoundRect,0.250000X-0.750000X-0.400000X0.750000X-0.400000X0.750000X0.400000X-0.750000X0.400000X0*%
%ADD46RoundRect,0.249999X-0.850001X-0.850001X0.850001X-0.850001X0.850001X0.850001X-0.850001X0.850001X0*%
%ADD47R,2.000000X2.000000*%
%ADD48C,2.400000*%
%ADD49RoundRect,0.250000X-0.337500X-0.475000X0.337500X-0.475000X0.337500X0.475000X-0.337500X0.475000X0*%
%ADD50RoundRect,0.250000X-0.550000X0.550000X-0.550000X-0.550000X0.550000X-0.550000X0.550000X0.550000X0*%
%ADD51R,1.500000X0.900000*%
%ADD52R,0.900000X1.500000*%
%ADD53C,0.600000*%
%ADD54R,3.900000X3.900000*%
%ADD55RoundRect,0.250000X0.450000X-0.350000X0.450000X0.350000X-0.450000X0.350000X-0.450000X-0.350000X0*%
%ADD56C,0.650000*%
%ADD57R,0.300000X1.150000*%
%ADD58O,1.000000X2.100000*%
%ADD59O,1.000000X1.600000*%
%ADD60R,1.500000X1.500000*%
G04 APERTURE END LIST*
D10*
X55900000Y-29960000D02*
X77600000Y-29960000D01*
X77600000Y-52360000D01*
X55900000Y-52360000D01*
X55900000Y-29960000D01*
X107462500Y-41010000D02*
X115337500Y-41010000D01*
X115337500Y-54010000D01*
X107462500Y-54010000D01*
X107462500Y-41010000D01*
X38339598Y-23353371D02*
X38291979Y-23305752D01*
X38291979Y-23305752D02*
X38196741Y-23162895D01*
X38196741Y-23162895D02*
X38149122Y-23067657D01*
X38149122Y-23067657D02*
X38101503Y-22924800D01*
X38101503Y-22924800D02*
X38053884Y-22686704D01*
X38053884Y-22686704D02*
X38053884Y-22496228D01*
X38053884Y-22496228D02*
X38101503Y-22258133D01*
X38101503Y-22258133D02*
X38149122Y-22115276D01*
X38149122Y-22115276D02*
X38196741Y-22020038D01*
X38196741Y-22020038D02*
X38291979Y-21877180D01*
X38291979Y-21877180D02*
X38339598Y-21829561D01*
X38720551Y-22972419D02*
X38720551Y-21972419D01*
X38720551Y-21972419D02*
X38958646Y-21972419D01*
X38958646Y-21972419D02*
X39101503Y-22020038D01*
X39101503Y-22020038D02*
X39196741Y-22115276D01*
X39196741Y-22115276D02*
X39244360Y-22210514D01*
X39244360Y-22210514D02*
X39291979Y-22400990D01*
X39291979Y-22400990D02*
X39291979Y-22543847D01*
X39291979Y-22543847D02*
X39244360Y-22734323D01*
X39244360Y-22734323D02*
X39196741Y-22829561D01*
X39196741Y-22829561D02*
X39101503Y-22924800D01*
X39101503Y-22924800D02*
X38958646Y-22972419D01*
X38958646Y-22972419D02*
X38720551Y-22972419D01*
X40101503Y-22924800D02*
X40006265Y-22972419D01*
X40006265Y-22972419D02*
X39815789Y-22972419D01*
X39815789Y-22972419D02*
X39720551Y-22924800D01*
X39720551Y-22924800D02*
X39672932Y-22829561D01*
X39672932Y-22829561D02*
X39672932Y-22448609D01*
X39672932Y-22448609D02*
X39720551Y-22353371D01*
X39720551Y-22353371D02*
X39815789Y-22305752D01*
X39815789Y-22305752D02*
X40006265Y-22305752D01*
X40006265Y-22305752D02*
X40101503Y-22353371D01*
X40101503Y-22353371D02*
X40149122Y-22448609D01*
X40149122Y-22448609D02*
X40149122Y-22543847D01*
X40149122Y-22543847D02*
X39672932Y-22639085D01*
X40577694Y-22972419D02*
X40577694Y-21972419D01*
X40577694Y-22353371D02*
X40672932Y-22305752D01*
X40672932Y-22305752D02*
X40863408Y-22305752D01*
X40863408Y-22305752D02*
X40958646Y-22353371D01*
X40958646Y-22353371D02*
X41006265Y-22400990D01*
X41006265Y-22400990D02*
X41053884Y-22496228D01*
X41053884Y-22496228D02*
X41053884Y-22781942D01*
X41053884Y-22781942D02*
X41006265Y-22877180D01*
X41006265Y-22877180D02*
X40958646Y-22924800D01*
X40958646Y-22924800D02*
X40863408Y-22972419D01*
X40863408Y-22972419D02*
X40672932Y-22972419D01*
X40672932Y-22972419D02*
X40577694Y-22924800D01*
X41911027Y-22305752D02*
X41911027Y-22972419D01*
X41482456Y-22305752D02*
X41482456Y-22829561D01*
X41482456Y-22829561D02*
X41530075Y-22924800D01*
X41530075Y-22924800D02*
X41625313Y-22972419D01*
X41625313Y-22972419D02*
X41768170Y-22972419D01*
X41768170Y-22972419D02*
X41863408Y-22924800D01*
X41863408Y-22924800D02*
X41911027Y-22877180D01*
X42815789Y-22305752D02*
X42815789Y-23115276D01*
X42815789Y-23115276D02*
X42768170Y-23210514D01*
X42768170Y-23210514D02*
X42720551Y-23258133D01*
X42720551Y-23258133D02*
X42625313Y-23305752D01*
X42625313Y-23305752D02*
X42482456Y-23305752D01*
X42482456Y-23305752D02*
X42387218Y-23258133D01*
X42815789Y-22924800D02*
X42720551Y-22972419D01*
X42720551Y-22972419D02*
X42530075Y-22972419D01*
X42530075Y-22972419D02*
X42434837Y-22924800D01*
X42434837Y-22924800D02*
X42387218Y-22877180D01*
X42387218Y-22877180D02*
X42339599Y-22781942D01*
X42339599Y-22781942D02*
X42339599Y-22496228D01*
X42339599Y-22496228D02*
X42387218Y-22400990D01*
X42387218Y-22400990D02*
X42434837Y-22353371D01*
X42434837Y-22353371D02*
X42530075Y-22305752D01*
X42530075Y-22305752D02*
X42720551Y-22305752D01*
X42720551Y-22305752D02*
X42815789Y-22353371D01*
X43196742Y-23353371D02*
X43244361Y-23305752D01*
X43244361Y-23305752D02*
X43339599Y-23162895D01*
X43339599Y-23162895D02*
X43387218Y-23067657D01*
X43387218Y-23067657D02*
X43434837Y-22924800D01*
X43434837Y-22924800D02*
X43482456Y-22686704D01*
X43482456Y-22686704D02*
X43482456Y-22496228D01*
X43482456Y-22496228D02*
X43434837Y-22258133D01*
X43434837Y-22258133D02*
X43387218Y-22115276D01*
X43387218Y-22115276D02*
X43339599Y-22020038D01*
X43339599Y-22020038D02*
X43244361Y-21877180D01*
X43244361Y-21877180D02*
X43196742Y-21829561D01*
X58556265Y-33374856D02*
X58651503Y-33422475D01*
X58651503Y-33422475D02*
X58841979Y-33422475D01*
X58841979Y-33422475D02*
X58937217Y-33374856D01*
X58937217Y-33374856D02*
X58984836Y-33279617D01*
X58984836Y-33279617D02*
X58984836Y-33231998D01*
X58984836Y-33231998D02*
X58937217Y-33136760D01*
X58937217Y-33136760D02*
X58841979Y-33089141D01*
X58841979Y-33089141D02*
X58699122Y-33089141D01*
X58699122Y-33089141D02*
X58603884Y-33041522D01*
X58603884Y-33041522D02*
X58556265Y-32946284D01*
X58556265Y-32946284D02*
X58556265Y-32898665D01*
X58556265Y-32898665D02*
X58603884Y-32803427D01*
X58603884Y-32803427D02*
X58699122Y-32755808D01*
X58699122Y-32755808D02*
X58841979Y-32755808D01*
X58841979Y-32755808D02*
X58937217Y-32803427D01*
X59365789Y-33374856D02*
X59461027Y-33422475D01*
X59461027Y-33422475D02*
X59651503Y-33422475D01*
X59651503Y-33422475D02*
X59746741Y-33374856D01*
X59746741Y-33374856D02*
X59794360Y-33279617D01*
X59794360Y-33279617D02*
X59794360Y-33231998D01*
X59794360Y-33231998D02*
X59746741Y-33136760D01*
X59746741Y-33136760D02*
X59651503Y-33089141D01*
X59651503Y-33089141D02*
X59508646Y-33089141D01*
X59508646Y-33089141D02*
X59413408Y-33041522D01*
X59413408Y-33041522D02*
X59365789Y-32946284D01*
X59365789Y-32946284D02*
X59365789Y-32898665D01*
X59365789Y-32898665D02*
X59413408Y-32803427D01*
X59413408Y-32803427D02*
X59508646Y-32755808D01*
X59508646Y-32755808D02*
X59651503Y-32755808D01*
X59651503Y-32755808D02*
X59746741Y-32803427D01*
X60651503Y-33422475D02*
X60651503Y-32422475D01*
X60651503Y-33374856D02*
X60556265Y-33422475D01*
X60556265Y-33422475D02*
X60365789Y-33422475D01*
X60365789Y-33422475D02*
X60270551Y-33374856D01*
X60270551Y-33374856D02*
X60222932Y-33327236D01*
X60222932Y-33327236D02*
X60175313Y-33231998D01*
X60175313Y-33231998D02*
X60175313Y-32946284D01*
X60175313Y-32946284D02*
X60222932Y-32851046D01*
X60222932Y-32851046D02*
X60270551Y-32803427D01*
X60270551Y-32803427D02*
X60365789Y-32755808D01*
X60365789Y-32755808D02*
X60556265Y-32755808D01*
X60556265Y-32755808D02*
X60651503Y-32803427D01*
X61651503Y-33422475D02*
X61080075Y-33422475D01*
X61365789Y-33422475D02*
X61365789Y-32422475D01*
X61365789Y-32422475D02*
X61270551Y-32565332D01*
X61270551Y-32565332D02*
X61175313Y-32660570D01*
X61175313Y-32660570D02*
X61080075Y-32708189D01*
X61984837Y-32422475D02*
X62603884Y-32422475D01*
X62603884Y-32422475D02*
X62270551Y-32803427D01*
X62270551Y-32803427D02*
X62413408Y-32803427D01*
X62413408Y-32803427D02*
X62508646Y-32851046D01*
X62508646Y-32851046D02*
X62556265Y-32898665D01*
X62556265Y-32898665D02*
X62603884Y-32993903D01*
X62603884Y-32993903D02*
X62603884Y-33231998D01*
X62603884Y-33231998D02*
X62556265Y-33327236D01*
X62556265Y-33327236D02*
X62508646Y-33374856D01*
X62508646Y-33374856D02*
X62413408Y-33422475D01*
X62413408Y-33422475D02*
X62127694Y-33422475D01*
X62127694Y-33422475D02*
X62032456Y-33374856D01*
X62032456Y-33374856D02*
X61984837Y-33327236D01*
X63222932Y-32422475D02*
X63318170Y-32422475D01*
X63318170Y-32422475D02*
X63413408Y-32470094D01*
X63413408Y-32470094D02*
X63461027Y-32517713D01*
X63461027Y-32517713D02*
X63508646Y-32612951D01*
X63508646Y-32612951D02*
X63556265Y-32803427D01*
X63556265Y-32803427D02*
X63556265Y-33041522D01*
X63556265Y-33041522D02*
X63508646Y-33231998D01*
X63508646Y-33231998D02*
X63461027Y-33327236D01*
X63461027Y-33327236D02*
X63413408Y-33374856D01*
X63413408Y-33374856D02*
X63318170Y-33422475D01*
X63318170Y-33422475D02*
X63222932Y-33422475D01*
X63222932Y-33422475D02*
X63127694Y-33374856D01*
X63127694Y-33374856D02*
X63080075Y-33327236D01*
X63080075Y-33327236D02*
X63032456Y-33231998D01*
X63032456Y-33231998D02*
X62984837Y-33041522D01*
X62984837Y-33041522D02*
X62984837Y-32803427D01*
X62984837Y-32803427D02*
X63032456Y-32612951D01*
X63032456Y-32612951D02*
X63080075Y-32517713D01*
X63080075Y-32517713D02*
X63127694Y-32470094D01*
X63127694Y-32470094D02*
X63222932Y-32422475D01*
X64413408Y-32422475D02*
X64222932Y-32422475D01*
X64222932Y-32422475D02*
X64127694Y-32470094D01*
X64127694Y-32470094D02*
X64080075Y-32517713D01*
X64080075Y-32517713D02*
X63984837Y-32660570D01*
X63984837Y-32660570D02*
X63937218Y-32851046D01*
X63937218Y-32851046D02*
X63937218Y-33231998D01*
X63937218Y-33231998D02*
X63984837Y-33327236D01*
X63984837Y-33327236D02*
X64032456Y-33374856D01*
X64032456Y-33374856D02*
X64127694Y-33422475D01*
X64127694Y-33422475D02*
X64318170Y-33422475D01*
X64318170Y-33422475D02*
X64413408Y-33374856D01*
X64413408Y-33374856D02*
X64461027Y-33327236D01*
X64461027Y-33327236D02*
X64508646Y-33231998D01*
X64508646Y-33231998D02*
X64508646Y-32993903D01*
X64508646Y-32993903D02*
X64461027Y-32898665D01*
X64461027Y-32898665D02*
X64413408Y-32851046D01*
X64413408Y-32851046D02*
X64318170Y-32803427D01*
X64318170Y-32803427D02*
X64127694Y-32803427D01*
X64127694Y-32803427D02*
X64032456Y-32851046D01*
X64032456Y-32851046D02*
X63984837Y-32898665D01*
X63984837Y-32898665D02*
X63937218Y-32993903D01*
X65889599Y-32422475D02*
X66080075Y-32422475D01*
X66080075Y-32422475D02*
X66175313Y-32470094D01*
X66175313Y-32470094D02*
X66270551Y-32565332D01*
X66270551Y-32565332D02*
X66318170Y-32755808D01*
X66318170Y-32755808D02*
X66318170Y-33089141D01*
X66318170Y-33089141D02*
X66270551Y-33279617D01*
X66270551Y-33279617D02*
X66175313Y-33374856D01*
X66175313Y-33374856D02*
X66080075Y-33422475D01*
X66080075Y-33422475D02*
X65889599Y-33422475D01*
X65889599Y-33422475D02*
X65794361Y-33374856D01*
X65794361Y-33374856D02*
X65699123Y-33279617D01*
X65699123Y-33279617D02*
X65651504Y-33089141D01*
X65651504Y-33089141D02*
X65651504Y-32755808D01*
X65651504Y-32755808D02*
X65699123Y-32565332D01*
X65699123Y-32565332D02*
X65794361Y-32470094D01*
X65794361Y-32470094D02*
X65889599Y-32422475D01*
X67222932Y-33422475D02*
X66746742Y-33422475D01*
X66746742Y-33422475D02*
X66746742Y-32422475D01*
X67556266Y-32898665D02*
X67889599Y-32898665D01*
X68032456Y-33422475D02*
X67556266Y-33422475D01*
X67556266Y-33422475D02*
X67556266Y-32422475D01*
X67556266Y-32422475D02*
X68032456Y-32422475D01*
X68461028Y-33422475D02*
X68461028Y-32422475D01*
X68461028Y-32422475D02*
X68699123Y-32422475D01*
X68699123Y-32422475D02*
X68841980Y-32470094D01*
X68841980Y-32470094D02*
X68937218Y-32565332D01*
X68937218Y-32565332D02*
X68984837Y-32660570D01*
X68984837Y-32660570D02*
X69032456Y-32851046D01*
X69032456Y-32851046D02*
X69032456Y-32993903D01*
X69032456Y-32993903D02*
X68984837Y-33184379D01*
X68984837Y-33184379D02*
X68937218Y-33279617D01*
X68937218Y-33279617D02*
X68841980Y-33374856D01*
X68841980Y-33374856D02*
X68699123Y-33422475D01*
X68699123Y-33422475D02*
X68461028Y-33422475D01*
X70651504Y-33422475D02*
X70651504Y-32422475D01*
X70651504Y-33374856D02*
X70556266Y-33422475D01*
X70556266Y-33422475D02*
X70365790Y-33422475D01*
X70365790Y-33422475D02*
X70270552Y-33374856D01*
X70270552Y-33374856D02*
X70222933Y-33327236D01*
X70222933Y-33327236D02*
X70175314Y-33231998D01*
X70175314Y-33231998D02*
X70175314Y-32946284D01*
X70175314Y-32946284D02*
X70222933Y-32851046D01*
X70222933Y-32851046D02*
X70270552Y-32803427D01*
X70270552Y-32803427D02*
X70365790Y-32755808D01*
X70365790Y-32755808D02*
X70556266Y-32755808D01*
X70556266Y-32755808D02*
X70651504Y-32803427D01*
X71127695Y-33422475D02*
X71127695Y-32755808D01*
X71127695Y-32422475D02*
X71080076Y-32470094D01*
X71080076Y-32470094D02*
X71127695Y-32517713D01*
X71127695Y-32517713D02*
X71175314Y-32470094D01*
X71175314Y-32470094D02*
X71127695Y-32422475D01*
X71127695Y-32422475D02*
X71127695Y-32517713D01*
X71556266Y-33374856D02*
X71651504Y-33422475D01*
X71651504Y-33422475D02*
X71841980Y-33422475D01*
X71841980Y-33422475D02*
X71937218Y-33374856D01*
X71937218Y-33374856D02*
X71984837Y-33279617D01*
X71984837Y-33279617D02*
X71984837Y-33231998D01*
X71984837Y-33231998D02*
X71937218Y-33136760D01*
X71937218Y-33136760D02*
X71841980Y-33089141D01*
X71841980Y-33089141D02*
X71699123Y-33089141D01*
X71699123Y-33089141D02*
X71603885Y-33041522D01*
X71603885Y-33041522D02*
X71556266Y-32946284D01*
X71556266Y-32946284D02*
X71556266Y-32898665D01*
X71556266Y-32898665D02*
X71603885Y-32803427D01*
X71603885Y-32803427D02*
X71699123Y-32755808D01*
X71699123Y-32755808D02*
X71841980Y-32755808D01*
X71841980Y-32755808D02*
X71937218Y-32803427D01*
X72413409Y-32755808D02*
X72413409Y-33755808D01*
X72413409Y-32803427D02*
X72508647Y-32755808D01*
X72508647Y-32755808D02*
X72699123Y-32755808D01*
X72699123Y-32755808D02*
X72794361Y-32803427D01*
X72794361Y-32803427D02*
X72841980Y-32851046D01*
X72841980Y-32851046D02*
X72889599Y-32946284D01*
X72889599Y-32946284D02*
X72889599Y-33231998D01*
X72889599Y-33231998D02*
X72841980Y-33327236D01*
X72841980Y-33327236D02*
X72794361Y-33374856D01*
X72794361Y-33374856D02*
X72699123Y-33422475D01*
X72699123Y-33422475D02*
X72508647Y-33422475D01*
X72508647Y-33422475D02*
X72413409Y-33374856D01*
X73461028Y-33422475D02*
X73365790Y-33374856D01*
X73365790Y-33374856D02*
X73318171Y-33279617D01*
X73318171Y-33279617D02*
X73318171Y-32422475D01*
X74270552Y-33422475D02*
X74270552Y-32898665D01*
X74270552Y-32898665D02*
X74222933Y-32803427D01*
X74222933Y-32803427D02*
X74127695Y-32755808D01*
X74127695Y-32755808D02*
X73937219Y-32755808D01*
X73937219Y-32755808D02*
X73841981Y-32803427D01*
X74270552Y-33374856D02*
X74175314Y-33422475D01*
X74175314Y-33422475D02*
X73937219Y-33422475D01*
X73937219Y-33422475D02*
X73841981Y-33374856D01*
X73841981Y-33374856D02*
X73794362Y-33279617D01*
X73794362Y-33279617D02*
X73794362Y-33184379D01*
X73794362Y-33184379D02*
X73841981Y-33089141D01*
X73841981Y-33089141D02*
X73937219Y-33041522D01*
X73937219Y-33041522D02*
X74175314Y-33041522D01*
X74175314Y-33041522D02*
X74270552Y-32993903D01*
X74651505Y-32755808D02*
X74889600Y-33422475D01*
X75127695Y-32755808D02*
X74889600Y-33422475D01*
X74889600Y-33422475D02*
X74794362Y-33660570D01*
X74794362Y-33660570D02*
X74746743Y-33708189D01*
X74746743Y-33708189D02*
X74651505Y-33755808D01*
X59032455Y-34365752D02*
X59032455Y-35175276D01*
X59032455Y-35175276D02*
X58984836Y-35270514D01*
X58984836Y-35270514D02*
X58937217Y-35318133D01*
X58937217Y-35318133D02*
X58841979Y-35365752D01*
X58841979Y-35365752D02*
X58699122Y-35365752D01*
X58699122Y-35365752D02*
X58603884Y-35318133D01*
X59032455Y-34984800D02*
X58937217Y-35032419D01*
X58937217Y-35032419D02*
X58746741Y-35032419D01*
X58746741Y-35032419D02*
X58651503Y-34984800D01*
X58651503Y-34984800D02*
X58603884Y-34937180D01*
X58603884Y-34937180D02*
X58556265Y-34841942D01*
X58556265Y-34841942D02*
X58556265Y-34556228D01*
X58556265Y-34556228D02*
X58603884Y-34460990D01*
X58603884Y-34460990D02*
X58651503Y-34413371D01*
X58651503Y-34413371D02*
X58746741Y-34365752D01*
X58746741Y-34365752D02*
X58937217Y-34365752D01*
X58937217Y-34365752D02*
X59032455Y-34413371D01*
X59651503Y-35032419D02*
X59556265Y-34984800D01*
X59556265Y-34984800D02*
X59508646Y-34937180D01*
X59508646Y-34937180D02*
X59461027Y-34841942D01*
X59461027Y-34841942D02*
X59461027Y-34556228D01*
X59461027Y-34556228D02*
X59508646Y-34460990D01*
X59508646Y-34460990D02*
X59556265Y-34413371D01*
X59556265Y-34413371D02*
X59651503Y-34365752D01*
X59651503Y-34365752D02*
X59794360Y-34365752D01*
X59794360Y-34365752D02*
X59889598Y-34413371D01*
X59889598Y-34413371D02*
X59937217Y-34460990D01*
X59937217Y-34460990D02*
X59984836Y-34556228D01*
X59984836Y-34556228D02*
X59984836Y-34841942D01*
X59984836Y-34841942D02*
X59937217Y-34937180D01*
X59937217Y-34937180D02*
X59889598Y-34984800D01*
X59889598Y-34984800D02*
X59794360Y-35032419D01*
X59794360Y-35032419D02*
X59651503Y-35032419D01*
X60794360Y-34984800D02*
X60699122Y-35032419D01*
X60699122Y-35032419D02*
X60508646Y-35032419D01*
X60508646Y-35032419D02*
X60413408Y-34984800D01*
X60413408Y-34984800D02*
X60365789Y-34889561D01*
X60365789Y-34889561D02*
X60365789Y-34508609D01*
X60365789Y-34508609D02*
X60413408Y-34413371D01*
X60413408Y-34413371D02*
X60508646Y-34365752D01*
X60508646Y-34365752D02*
X60699122Y-34365752D01*
X60699122Y-34365752D02*
X60794360Y-34413371D01*
X60794360Y-34413371D02*
X60841979Y-34508609D01*
X60841979Y-34508609D02*
X60841979Y-34603847D01*
X60841979Y-34603847D02*
X60365789Y-34699085D01*
X61222932Y-34984800D02*
X61318170Y-35032419D01*
X61318170Y-35032419D02*
X61508646Y-35032419D01*
X61508646Y-35032419D02*
X61603884Y-34984800D01*
X61603884Y-34984800D02*
X61651503Y-34889561D01*
X61651503Y-34889561D02*
X61651503Y-34841942D01*
X61651503Y-34841942D02*
X61603884Y-34746704D01*
X61603884Y-34746704D02*
X61508646Y-34699085D01*
X61508646Y-34699085D02*
X61365789Y-34699085D01*
X61365789Y-34699085D02*
X61270551Y-34651466D01*
X61270551Y-34651466D02*
X61222932Y-34556228D01*
X61222932Y-34556228D02*
X61222932Y-34508609D01*
X61222932Y-34508609D02*
X61270551Y-34413371D01*
X61270551Y-34413371D02*
X61365789Y-34365752D01*
X61365789Y-34365752D02*
X61508646Y-34365752D01*
X61508646Y-34365752D02*
X61603884Y-34413371D01*
X62841980Y-35032419D02*
X62841980Y-34032419D01*
X63270551Y-35032419D02*
X63270551Y-34508609D01*
X63270551Y-34508609D02*
X63222932Y-34413371D01*
X63222932Y-34413371D02*
X63127694Y-34365752D01*
X63127694Y-34365752D02*
X62984837Y-34365752D01*
X62984837Y-34365752D02*
X62889599Y-34413371D01*
X62889599Y-34413371D02*
X62841980Y-34460990D01*
X64127694Y-34984800D02*
X64032456Y-35032419D01*
X64032456Y-35032419D02*
X63841980Y-35032419D01*
X63841980Y-35032419D02*
X63746742Y-34984800D01*
X63746742Y-34984800D02*
X63699123Y-34889561D01*
X63699123Y-34889561D02*
X63699123Y-34508609D01*
X63699123Y-34508609D02*
X63746742Y-34413371D01*
X63746742Y-34413371D02*
X63841980Y-34365752D01*
X63841980Y-34365752D02*
X64032456Y-34365752D01*
X64032456Y-34365752D02*
X64127694Y-34413371D01*
X64127694Y-34413371D02*
X64175313Y-34508609D01*
X64175313Y-34508609D02*
X64175313Y-34603847D01*
X64175313Y-34603847D02*
X63699123Y-34699085D01*
X64603885Y-35032419D02*
X64603885Y-34365752D01*
X64603885Y-34556228D02*
X64651504Y-34460990D01*
X64651504Y-34460990D02*
X64699123Y-34413371D01*
X64699123Y-34413371D02*
X64794361Y-34365752D01*
X64794361Y-34365752D02*
X64889599Y-34365752D01*
X65603885Y-34984800D02*
X65508647Y-35032419D01*
X65508647Y-35032419D02*
X65318171Y-35032419D01*
X65318171Y-35032419D02*
X65222933Y-34984800D01*
X65222933Y-34984800D02*
X65175314Y-34889561D01*
X65175314Y-34889561D02*
X65175314Y-34508609D01*
X65175314Y-34508609D02*
X65222933Y-34413371D01*
X65222933Y-34413371D02*
X65318171Y-34365752D01*
X65318171Y-34365752D02*
X65508647Y-34365752D01*
X65508647Y-34365752D02*
X65603885Y-34413371D01*
X65603885Y-34413371D02*
X65651504Y-34508609D01*
X65651504Y-34508609D02*
X65651504Y-34603847D01*
X65651504Y-34603847D02*
X65175314Y-34699085D01*
X67127695Y-35413371D02*
X67080076Y-35365752D01*
X67080076Y-35365752D02*
X66984838Y-35222895D01*
X66984838Y-35222895D02*
X66937219Y-35127657D01*
X66937219Y-35127657D02*
X66889600Y-34984800D01*
X66889600Y-34984800D02*
X66841981Y-34746704D01*
X66841981Y-34746704D02*
X66841981Y-34556228D01*
X66841981Y-34556228D02*
X66889600Y-34318133D01*
X66889600Y-34318133D02*
X66937219Y-34175276D01*
X66937219Y-34175276D02*
X66984838Y-34080038D01*
X66984838Y-34080038D02*
X67080076Y-33937180D01*
X67080076Y-33937180D02*
X67127695Y-33889561D01*
X67508648Y-34937180D02*
X67556267Y-34984800D01*
X67556267Y-34984800D02*
X67508648Y-35032419D01*
X67508648Y-35032419D02*
X67461029Y-34984800D01*
X67461029Y-34984800D02*
X67508648Y-34937180D01*
X67508648Y-34937180D02*
X67508648Y-35032419D01*
X68032457Y-35032419D02*
X68222933Y-35032419D01*
X68222933Y-35032419D02*
X68318171Y-34984800D01*
X68318171Y-34984800D02*
X68365790Y-34937180D01*
X68365790Y-34937180D02*
X68461028Y-34794323D01*
X68461028Y-34794323D02*
X68508647Y-34603847D01*
X68508647Y-34603847D02*
X68508647Y-34222895D01*
X68508647Y-34222895D02*
X68461028Y-34127657D01*
X68461028Y-34127657D02*
X68413409Y-34080038D01*
X68413409Y-34080038D02*
X68318171Y-34032419D01*
X68318171Y-34032419D02*
X68127695Y-34032419D01*
X68127695Y-34032419D02*
X68032457Y-34080038D01*
X68032457Y-34080038D02*
X67984838Y-34127657D01*
X67984838Y-34127657D02*
X67937219Y-34222895D01*
X67937219Y-34222895D02*
X67937219Y-34460990D01*
X67937219Y-34460990D02*
X67984838Y-34556228D01*
X67984838Y-34556228D02*
X68032457Y-34603847D01*
X68032457Y-34603847D02*
X68127695Y-34651466D01*
X68127695Y-34651466D02*
X68318171Y-34651466D01*
X68318171Y-34651466D02*
X68413409Y-34603847D01*
X68413409Y-34603847D02*
X68461028Y-34556228D01*
X68461028Y-34556228D02*
X68508647Y-34460990D01*
X69365790Y-34032419D02*
X69175314Y-34032419D01*
X69175314Y-34032419D02*
X69080076Y-34080038D01*
X69080076Y-34080038D02*
X69032457Y-34127657D01*
X69032457Y-34127657D02*
X68937219Y-34270514D01*
X68937219Y-34270514D02*
X68889600Y-34460990D01*
X68889600Y-34460990D02*
X68889600Y-34841942D01*
X68889600Y-34841942D02*
X68937219Y-34937180D01*
X68937219Y-34937180D02*
X68984838Y-34984800D01*
X68984838Y-34984800D02*
X69080076Y-35032419D01*
X69080076Y-35032419D02*
X69270552Y-35032419D01*
X69270552Y-35032419D02*
X69365790Y-34984800D01*
X69365790Y-34984800D02*
X69413409Y-34937180D01*
X69413409Y-34937180D02*
X69461028Y-34841942D01*
X69461028Y-34841942D02*
X69461028Y-34603847D01*
X69461028Y-34603847D02*
X69413409Y-34508609D01*
X69413409Y-34508609D02*
X69365790Y-34460990D01*
X69365790Y-34460990D02*
X69270552Y-34413371D01*
X69270552Y-34413371D02*
X69080076Y-34413371D01*
X69080076Y-34413371D02*
X68984838Y-34460990D01*
X68984838Y-34460990D02*
X68937219Y-34508609D01*
X68937219Y-34508609D02*
X68889600Y-34603847D01*
X69841981Y-34032419D02*
X69841981Y-34222895D01*
X70222933Y-34032419D02*
X70222933Y-34222895D01*
X70556267Y-35413371D02*
X70603886Y-35365752D01*
X70603886Y-35365752D02*
X70699124Y-35222895D01*
X70699124Y-35222895D02*
X70746743Y-35127657D01*
X70746743Y-35127657D02*
X70794362Y-34984800D01*
X70794362Y-34984800D02*
X70841981Y-34746704D01*
X70841981Y-34746704D02*
X70841981Y-34556228D01*
X70841981Y-34556228D02*
X70794362Y-34318133D01*
X70794362Y-34318133D02*
X70746743Y-34175276D01*
X70746743Y-34175276D02*
X70699124Y-34080038D01*
X70699124Y-34080038D02*
X70603886Y-33937180D01*
X70603886Y-33937180D02*
X70556267Y-33889561D01*
X34603884Y-21572419D02*
X34603884Y-20572419D01*
X34603884Y-20572419D02*
X34984836Y-20572419D01*
X34984836Y-20572419D02*
X35080074Y-20620038D01*
X35080074Y-20620038D02*
X35127693Y-20667657D01*
X35127693Y-20667657D02*
X35175312Y-20762895D01*
X35175312Y-20762895D02*
X35175312Y-20905752D01*
X35175312Y-20905752D02*
X35127693Y-21000990D01*
X35127693Y-21000990D02*
X35080074Y-21048609D01*
X35080074Y-21048609D02*
X34984836Y-21096228D01*
X34984836Y-21096228D02*
X34603884Y-21096228D01*
X35603884Y-21572419D02*
X35603884Y-20905752D01*
X35603884Y-21096228D02*
X35651503Y-21000990D01*
X35651503Y-21000990D02*
X35699122Y-20953371D01*
X35699122Y-20953371D02*
X35794360Y-20905752D01*
X35794360Y-20905752D02*
X35889598Y-20905752D01*
X36365789Y-21572419D02*
X36270551Y-21524800D01*
X36270551Y-21524800D02*
X36222932Y-21477180D01*
X36222932Y-21477180D02*
X36175313Y-21381942D01*
X36175313Y-21381942D02*
X36175313Y-21096228D01*
X36175313Y-21096228D02*
X36222932Y-21000990D01*
X36222932Y-21000990D02*
X36270551Y-20953371D01*
X36270551Y-20953371D02*
X36365789Y-20905752D01*
X36365789Y-20905752D02*
X36508646Y-20905752D01*
X36508646Y-20905752D02*
X36603884Y-20953371D01*
X36603884Y-20953371D02*
X36651503Y-21000990D01*
X36651503Y-21000990D02*
X36699122Y-21096228D01*
X36699122Y-21096228D02*
X36699122Y-21381942D01*
X36699122Y-21381942D02*
X36651503Y-21477180D01*
X36651503Y-21477180D02*
X36603884Y-21524800D01*
X36603884Y-21524800D02*
X36508646Y-21572419D01*
X36508646Y-21572419D02*
X36365789Y-21572419D01*
X37556265Y-20905752D02*
X37556265Y-21715276D01*
X37556265Y-21715276D02*
X37508646Y-21810514D01*
X37508646Y-21810514D02*
X37461027Y-21858133D01*
X37461027Y-21858133D02*
X37365789Y-21905752D01*
X37365789Y-21905752D02*
X37222932Y-21905752D01*
X37222932Y-21905752D02*
X37127694Y-21858133D01*
X37556265Y-21524800D02*
X37461027Y-21572419D01*
X37461027Y-21572419D02*
X37270551Y-21572419D01*
X37270551Y-21572419D02*
X37175313Y-21524800D01*
X37175313Y-21524800D02*
X37127694Y-21477180D01*
X37127694Y-21477180D02*
X37080075Y-21381942D01*
X37080075Y-21381942D02*
X37080075Y-21096228D01*
X37080075Y-21096228D02*
X37127694Y-21000990D01*
X37127694Y-21000990D02*
X37175313Y-20953371D01*
X37175313Y-20953371D02*
X37270551Y-20905752D01*
X37270551Y-20905752D02*
X37461027Y-20905752D01*
X37461027Y-20905752D02*
X37556265Y-20953371D01*
X38032456Y-21572419D02*
X38032456Y-20905752D01*
X38032456Y-21096228D02*
X38080075Y-21000990D01*
X38080075Y-21000990D02*
X38127694Y-20953371D01*
X38127694Y-20953371D02*
X38222932Y-20905752D01*
X38222932Y-20905752D02*
X38318170Y-20905752D01*
X39080075Y-21572419D02*
X39080075Y-21048609D01*
X39080075Y-21048609D02*
X39032456Y-20953371D01*
X39032456Y-20953371D02*
X38937218Y-20905752D01*
X38937218Y-20905752D02*
X38746742Y-20905752D01*
X38746742Y-20905752D02*
X38651504Y-20953371D01*
X39080075Y-21524800D02*
X38984837Y-21572419D01*
X38984837Y-21572419D02*
X38746742Y-21572419D01*
X38746742Y-21572419D02*
X38651504Y-21524800D01*
X38651504Y-21524800D02*
X38603885Y-21429561D01*
X38603885Y-21429561D02*
X38603885Y-21334323D01*
X38603885Y-21334323D02*
X38651504Y-21239085D01*
X38651504Y-21239085D02*
X38746742Y-21191466D01*
X38746742Y-21191466D02*
X38984837Y-21191466D01*
X38984837Y-21191466D02*
X39080075Y-21143847D01*
X39556266Y-21572419D02*
X39556266Y-20905752D01*
X39556266Y-21000990D02*
X39603885Y-20953371D01*
X39603885Y-20953371D02*
X39699123Y-20905752D01*
X39699123Y-20905752D02*
X39841980Y-20905752D01*
X39841980Y-20905752D02*
X39937218Y-20953371D01*
X39937218Y-20953371D02*
X39984837Y-21048609D01*
X39984837Y-21048609D02*
X39984837Y-21572419D01*
X39984837Y-21048609D02*
X40032456Y-20953371D01*
X40032456Y-20953371D02*
X40127694Y-20905752D01*
X40127694Y-20905752D02*
X40270551Y-20905752D01*
X40270551Y-20905752D02*
X40365790Y-20953371D01*
X40365790Y-20953371D02*
X40413409Y-21048609D01*
X40413409Y-21048609D02*
X40413409Y-21572419D01*
X40889599Y-21572419D02*
X40889599Y-20905752D01*
X40889599Y-21000990D02*
X40937218Y-20953371D01*
X40937218Y-20953371D02*
X41032456Y-20905752D01*
X41032456Y-20905752D02*
X41175313Y-20905752D01*
X41175313Y-20905752D02*
X41270551Y-20953371D01*
X41270551Y-20953371D02*
X41318170Y-21048609D01*
X41318170Y-21048609D02*
X41318170Y-21572419D01*
X41318170Y-21048609D02*
X41365789Y-20953371D01*
X41365789Y-20953371D02*
X41461027Y-20905752D01*
X41461027Y-20905752D02*
X41603884Y-20905752D01*
X41603884Y-20905752D02*
X41699123Y-20953371D01*
X41699123Y-20953371D02*
X41746742Y-21048609D01*
X41746742Y-21048609D02*
X41746742Y-21572419D01*
X42222932Y-21572419D02*
X42222932Y-20905752D01*
X42222932Y-20572419D02*
X42175313Y-20620038D01*
X42175313Y-20620038D02*
X42222932Y-20667657D01*
X42222932Y-20667657D02*
X42270551Y-20620038D01*
X42270551Y-20620038D02*
X42222932Y-20572419D01*
X42222932Y-20572419D02*
X42222932Y-20667657D01*
X42699122Y-20905752D02*
X42699122Y-21572419D01*
X42699122Y-21000990D02*
X42746741Y-20953371D01*
X42746741Y-20953371D02*
X42841979Y-20905752D01*
X42841979Y-20905752D02*
X42984836Y-20905752D01*
X42984836Y-20905752D02*
X43080074Y-20953371D01*
X43080074Y-20953371D02*
X43127693Y-21048609D01*
X43127693Y-21048609D02*
X43127693Y-21572419D01*
X44032455Y-20905752D02*
X44032455Y-21715276D01*
X44032455Y-21715276D02*
X43984836Y-21810514D01*
X43984836Y-21810514D02*
X43937217Y-21858133D01*
X43937217Y-21858133D02*
X43841979Y-21905752D01*
X43841979Y-21905752D02*
X43699122Y-21905752D01*
X43699122Y-21905752D02*
X43603884Y-21858133D01*
X44032455Y-21524800D02*
X43937217Y-21572419D01*
X43937217Y-21572419D02*
X43746741Y-21572419D01*
X43746741Y-21572419D02*
X43651503Y-21524800D01*
X43651503Y-21524800D02*
X43603884Y-21477180D01*
X43603884Y-21477180D02*
X43556265Y-21381942D01*
X43556265Y-21381942D02*
X43556265Y-21096228D01*
X43556265Y-21096228D02*
X43603884Y-21000990D01*
X43603884Y-21000990D02*
X43651503Y-20953371D01*
X43651503Y-20953371D02*
X43746741Y-20905752D01*
X43746741Y-20905752D02*
X43937217Y-20905752D01*
X43937217Y-20905752D02*
X44032455Y-20953371D01*
X45270551Y-20905752D02*
X45270551Y-21905752D01*
X45270551Y-20953371D02*
X45365789Y-20905752D01*
X45365789Y-20905752D02*
X45556265Y-20905752D01*
X45556265Y-20905752D02*
X45651503Y-20953371D01*
X45651503Y-20953371D02*
X45699122Y-21000990D01*
X45699122Y-21000990D02*
X45746741Y-21096228D01*
X45746741Y-21096228D02*
X45746741Y-21381942D01*
X45746741Y-21381942D02*
X45699122Y-21477180D01*
X45699122Y-21477180D02*
X45651503Y-21524800D01*
X45651503Y-21524800D02*
X45556265Y-21572419D01*
X45556265Y-21572419D02*
X45365789Y-21572419D01*
X45365789Y-21572419D02*
X45270551Y-21524800D01*
X46318170Y-21572419D02*
X46222932Y-21524800D01*
X46222932Y-21524800D02*
X46175313Y-21477180D01*
X46175313Y-21477180D02*
X46127694Y-21381942D01*
X46127694Y-21381942D02*
X46127694Y-21096228D01*
X46127694Y-21096228D02*
X46175313Y-21000990D01*
X46175313Y-21000990D02*
X46222932Y-20953371D01*
X46222932Y-20953371D02*
X46318170Y-20905752D01*
X46318170Y-20905752D02*
X46461027Y-20905752D01*
X46461027Y-20905752D02*
X46556265Y-20953371D01*
X46556265Y-20953371D02*
X46603884Y-21000990D01*
X46603884Y-21000990D02*
X46651503Y-21096228D01*
X46651503Y-21096228D02*
X46651503Y-21381942D01*
X46651503Y-21381942D02*
X46603884Y-21477180D01*
X46603884Y-21477180D02*
X46556265Y-21524800D01*
X46556265Y-21524800D02*
X46461027Y-21572419D01*
X46461027Y-21572419D02*
X46318170Y-21572419D01*
X47080075Y-21572419D02*
X47080075Y-20905752D01*
X47080075Y-21096228D02*
X47127694Y-21000990D01*
X47127694Y-21000990D02*
X47175313Y-20953371D01*
X47175313Y-20953371D02*
X47270551Y-20905752D01*
X47270551Y-20905752D02*
X47365789Y-20905752D01*
X47556266Y-20905752D02*
X47937218Y-20905752D01*
X47699123Y-20572419D02*
X47699123Y-21429561D01*
X47699123Y-21429561D02*
X47746742Y-21524800D01*
X47746742Y-21524800D02*
X47841980Y-21572419D01*
X47841980Y-21572419D02*
X47937218Y-21572419D01*
X72272419Y-111098972D02*
X73272419Y-110765639D01*
X73272419Y-110765639D02*
X72272419Y-110432306D01*
X73272419Y-109956115D02*
X73224800Y-110051353D01*
X73224800Y-110051353D02*
X73177180Y-110098972D01*
X73177180Y-110098972D02*
X73081942Y-110146591D01*
X73081942Y-110146591D02*
X72796228Y-110146591D01*
X72796228Y-110146591D02*
X72700990Y-110098972D01*
X72700990Y-110098972D02*
X72653371Y-110051353D01*
X72653371Y-110051353D02*
X72605752Y-109956115D01*
X72605752Y-109956115D02*
X72605752Y-109813258D01*
X72605752Y-109813258D02*
X72653371Y-109718020D01*
X72653371Y-109718020D02*
X72700990Y-109670401D01*
X72700990Y-109670401D02*
X72796228Y-109622782D01*
X72796228Y-109622782D02*
X73081942Y-109622782D01*
X73081942Y-109622782D02*
X73177180Y-109670401D01*
X73177180Y-109670401D02*
X73224800Y-109718020D01*
X73224800Y-109718020D02*
X73272419Y-109813258D01*
X73272419Y-109813258D02*
X73272419Y-109956115D01*
X73272419Y-109051353D02*
X73224800Y-109146591D01*
X73224800Y-109146591D02*
X73129561Y-109194210D01*
X73129561Y-109194210D02*
X72272419Y-109194210D01*
X72605752Y-108813257D02*
X72605752Y-108432305D01*
X72272419Y-108670400D02*
X73129561Y-108670400D01*
X73129561Y-108670400D02*
X73224800Y-108622781D01*
X73224800Y-108622781D02*
X73272419Y-108527543D01*
X73272419Y-108527543D02*
X73272419Y-108432305D01*
X73272419Y-107670400D02*
X72748609Y-107670400D01*
X72748609Y-107670400D02*
X72653371Y-107718019D01*
X72653371Y-107718019D02*
X72605752Y-107813257D01*
X72605752Y-107813257D02*
X72605752Y-108003733D01*
X72605752Y-108003733D02*
X72653371Y-108098971D01*
X73224800Y-107670400D02*
X73272419Y-107765638D01*
X73272419Y-107765638D02*
X73272419Y-108003733D01*
X73272419Y-108003733D02*
X73224800Y-108098971D01*
X73224800Y-108098971D02*
X73129561Y-108146590D01*
X73129561Y-108146590D02*
X73034323Y-108146590D01*
X73034323Y-108146590D02*
X72939085Y-108098971D01*
X72939085Y-108098971D02*
X72891466Y-108003733D01*
X72891466Y-108003733D02*
X72891466Y-107765638D01*
X72891466Y-107765638D02*
X72843847Y-107670400D01*
X72605752Y-106765638D02*
X73415276Y-106765638D01*
X73415276Y-106765638D02*
X73510514Y-106813257D01*
X73510514Y-106813257D02*
X73558133Y-106860876D01*
X73558133Y-106860876D02*
X73605752Y-106956114D01*
X73605752Y-106956114D02*
X73605752Y-107098971D01*
X73605752Y-107098971D02*
X73558133Y-107194209D01*
X73224800Y-106765638D02*
X73272419Y-106860876D01*
X73272419Y-106860876D02*
X73272419Y-107051352D01*
X73272419Y-107051352D02*
X73224800Y-107146590D01*
X73224800Y-107146590D02*
X73177180Y-107194209D01*
X73177180Y-107194209D02*
X73081942Y-107241828D01*
X73081942Y-107241828D02*
X72796228Y-107241828D01*
X72796228Y-107241828D02*
X72700990Y-107194209D01*
X72700990Y-107194209D02*
X72653371Y-107146590D01*
X72653371Y-107146590D02*
X72605752Y-107051352D01*
X72605752Y-107051352D02*
X72605752Y-106860876D01*
X72605752Y-106860876D02*
X72653371Y-106765638D01*
X73224800Y-105908495D02*
X73272419Y-106003733D01*
X73272419Y-106003733D02*
X73272419Y-106194209D01*
X73272419Y-106194209D02*
X73224800Y-106289447D01*
X73224800Y-106289447D02*
X73129561Y-106337066D01*
X73129561Y-106337066D02*
X72748609Y-106337066D01*
X72748609Y-106337066D02*
X72653371Y-106289447D01*
X72653371Y-106289447D02*
X72605752Y-106194209D01*
X72605752Y-106194209D02*
X72605752Y-106003733D01*
X72605752Y-106003733D02*
X72653371Y-105908495D01*
X72653371Y-105908495D02*
X72748609Y-105860876D01*
X72748609Y-105860876D02*
X72843847Y-105860876D01*
X72843847Y-105860876D02*
X72939085Y-106337066D01*
X72986704Y-104718018D02*
X72986704Y-104241828D01*
X73272419Y-104813256D02*
X72272419Y-104479923D01*
X72272419Y-104479923D02*
X73272419Y-104146590D01*
X73272419Y-103384685D02*
X72272419Y-103384685D01*
X73224800Y-103384685D02*
X73272419Y-103479923D01*
X73272419Y-103479923D02*
X73272419Y-103670399D01*
X73272419Y-103670399D02*
X73224800Y-103765637D01*
X73224800Y-103765637D02*
X73177180Y-103813256D01*
X73177180Y-103813256D02*
X73081942Y-103860875D01*
X73081942Y-103860875D02*
X72796228Y-103860875D01*
X72796228Y-103860875D02*
X72700990Y-103813256D01*
X72700990Y-103813256D02*
X72653371Y-103765637D01*
X72653371Y-103765637D02*
X72605752Y-103670399D01*
X72605752Y-103670399D02*
X72605752Y-103479923D01*
X72605752Y-103479923D02*
X72653371Y-103384685D01*
X72605752Y-102908494D02*
X73462895Y-102908494D01*
X73462895Y-102908494D02*
X73558133Y-102956113D01*
X73558133Y-102956113D02*
X73605752Y-103051351D01*
X73605752Y-103051351D02*
X73605752Y-103098970D01*
X72272419Y-102908494D02*
X72320038Y-102956113D01*
X72320038Y-102956113D02*
X72367657Y-102908494D01*
X72367657Y-102908494D02*
X72320038Y-102860875D01*
X72320038Y-102860875D02*
X72272419Y-102908494D01*
X72272419Y-102908494D02*
X72367657Y-102908494D01*
X72605752Y-102003733D02*
X73272419Y-102003733D01*
X72605752Y-102432304D02*
X73129561Y-102432304D01*
X73129561Y-102432304D02*
X73224800Y-102384685D01*
X73224800Y-102384685D02*
X73272419Y-102289447D01*
X73272419Y-102289447D02*
X73272419Y-102146590D01*
X73272419Y-102146590D02*
X73224800Y-102051352D01*
X73224800Y-102051352D02*
X73177180Y-102003733D01*
X73224800Y-101575161D02*
X73272419Y-101479923D01*
X73272419Y-101479923D02*
X73272419Y-101289447D01*
X73272419Y-101289447D02*
X73224800Y-101194209D01*
X73224800Y-101194209D02*
X73129561Y-101146590D01*
X73129561Y-101146590D02*
X73081942Y-101146590D01*
X73081942Y-101146590D02*
X72986704Y-101194209D01*
X72986704Y-101194209D02*
X72939085Y-101289447D01*
X72939085Y-101289447D02*
X72939085Y-101432304D01*
X72939085Y-101432304D02*
X72891466Y-101527542D01*
X72891466Y-101527542D02*
X72796228Y-101575161D01*
X72796228Y-101575161D02*
X72748609Y-101575161D01*
X72748609Y-101575161D02*
X72653371Y-101527542D01*
X72653371Y-101527542D02*
X72605752Y-101432304D01*
X72605752Y-101432304D02*
X72605752Y-101289447D01*
X72605752Y-101289447D02*
X72653371Y-101194209D01*
X72605752Y-100860875D02*
X72605752Y-100479923D01*
X72272419Y-100718018D02*
X73129561Y-100718018D01*
X73129561Y-100718018D02*
X73224800Y-100670399D01*
X73224800Y-100670399D02*
X73272419Y-100575161D01*
X73272419Y-100575161D02*
X73272419Y-100479923D01*
X109394968Y-53003734D02*
X109442587Y-52860877D01*
X109442587Y-52860877D02*
X109442587Y-52622782D01*
X109442587Y-52622782D02*
X109394968Y-52527544D01*
X109394968Y-52527544D02*
X109347348Y-52479925D01*
X109347348Y-52479925D02*
X109252110Y-52432306D01*
X109252110Y-52432306D02*
X109156872Y-52432306D01*
X109156872Y-52432306D02*
X109061634Y-52479925D01*
X109061634Y-52479925D02*
X109014015Y-52527544D01*
X109014015Y-52527544D02*
X108966396Y-52622782D01*
X108966396Y-52622782D02*
X108918777Y-52813258D01*
X108918777Y-52813258D02*
X108871158Y-52908496D01*
X108871158Y-52908496D02*
X108823539Y-52956115D01*
X108823539Y-52956115D02*
X108728301Y-53003734D01*
X108728301Y-53003734D02*
X108633063Y-53003734D01*
X108633063Y-53003734D02*
X108537825Y-52956115D01*
X108537825Y-52956115D02*
X108490206Y-52908496D01*
X108490206Y-52908496D02*
X108442587Y-52813258D01*
X108442587Y-52813258D02*
X108442587Y-52575163D01*
X108442587Y-52575163D02*
X108490206Y-52432306D01*
X109442587Y-51860877D02*
X109394968Y-51956115D01*
X109394968Y-51956115D02*
X109347348Y-52003734D01*
X109347348Y-52003734D02*
X109252110Y-52051353D01*
X109252110Y-52051353D02*
X108966396Y-52051353D01*
X108966396Y-52051353D02*
X108871158Y-52003734D01*
X108871158Y-52003734D02*
X108823539Y-51956115D01*
X108823539Y-51956115D02*
X108775920Y-51860877D01*
X108775920Y-51860877D02*
X108775920Y-51718020D01*
X108775920Y-51718020D02*
X108823539Y-51622782D01*
X108823539Y-51622782D02*
X108871158Y-51575163D01*
X108871158Y-51575163D02*
X108966396Y-51527544D01*
X108966396Y-51527544D02*
X109252110Y-51527544D01*
X109252110Y-51527544D02*
X109347348Y-51575163D01*
X109347348Y-51575163D02*
X109394968Y-51622782D01*
X109394968Y-51622782D02*
X109442587Y-51718020D01*
X109442587Y-51718020D02*
X109442587Y-51860877D01*
X109442587Y-50956115D02*
X109394968Y-51051353D01*
X109394968Y-51051353D02*
X109299729Y-51098972D01*
X109299729Y-51098972D02*
X108442587Y-51098972D01*
X109442587Y-50146591D02*
X108442587Y-50146591D01*
X109394968Y-50146591D02*
X109442587Y-50241829D01*
X109442587Y-50241829D02*
X109442587Y-50432305D01*
X109442587Y-50432305D02*
X109394968Y-50527543D01*
X109394968Y-50527543D02*
X109347348Y-50575162D01*
X109347348Y-50575162D02*
X109252110Y-50622781D01*
X109252110Y-50622781D02*
X108966396Y-50622781D01*
X108966396Y-50622781D02*
X108871158Y-50575162D01*
X108871158Y-50575162D02*
X108823539Y-50527543D01*
X108823539Y-50527543D02*
X108775920Y-50432305D01*
X108775920Y-50432305D02*
X108775920Y-50241829D01*
X108775920Y-50241829D02*
X108823539Y-50146591D01*
X109394968Y-49289448D02*
X109442587Y-49384686D01*
X109442587Y-49384686D02*
X109442587Y-49575162D01*
X109442587Y-49575162D02*
X109394968Y-49670400D01*
X109394968Y-49670400D02*
X109299729Y-49718019D01*
X109299729Y-49718019D02*
X108918777Y-49718019D01*
X108918777Y-49718019D02*
X108823539Y-49670400D01*
X108823539Y-49670400D02*
X108775920Y-49575162D01*
X108775920Y-49575162D02*
X108775920Y-49384686D01*
X108775920Y-49384686D02*
X108823539Y-49289448D01*
X108823539Y-49289448D02*
X108918777Y-49241829D01*
X108918777Y-49241829D02*
X109014015Y-49241829D01*
X109014015Y-49241829D02*
X109109253Y-49718019D01*
X109442587Y-48813257D02*
X108775920Y-48813257D01*
X108966396Y-48813257D02*
X108871158Y-48765638D01*
X108871158Y-48765638D02*
X108823539Y-48718019D01*
X108823539Y-48718019D02*
X108775920Y-48622781D01*
X108775920Y-48622781D02*
X108775920Y-48527543D01*
X108918777Y-47098971D02*
X108966396Y-46956114D01*
X108966396Y-46956114D02*
X109014015Y-46908495D01*
X109014015Y-46908495D02*
X109109253Y-46860876D01*
X109109253Y-46860876D02*
X109252110Y-46860876D01*
X109252110Y-46860876D02*
X109347348Y-46908495D01*
X109347348Y-46908495D02*
X109394968Y-46956114D01*
X109394968Y-46956114D02*
X109442587Y-47051352D01*
X109442587Y-47051352D02*
X109442587Y-47432304D01*
X109442587Y-47432304D02*
X108442587Y-47432304D01*
X108442587Y-47432304D02*
X108442587Y-47098971D01*
X108442587Y-47098971D02*
X108490206Y-47003733D01*
X108490206Y-47003733D02*
X108537825Y-46956114D01*
X108537825Y-46956114D02*
X108633063Y-46908495D01*
X108633063Y-46908495D02*
X108728301Y-46908495D01*
X108728301Y-46908495D02*
X108823539Y-46956114D01*
X108823539Y-46956114D02*
X108871158Y-47003733D01*
X108871158Y-47003733D02*
X108918777Y-47098971D01*
X108918777Y-47098971D02*
X108918777Y-47432304D01*
X109442587Y-46003733D02*
X108918777Y-46003733D01*
X108918777Y-46003733D02*
X108823539Y-46051352D01*
X108823539Y-46051352D02*
X108775920Y-46146590D01*
X108775920Y-46146590D02*
X108775920Y-46337066D01*
X108775920Y-46337066D02*
X108823539Y-46432304D01*
X109394968Y-46003733D02*
X109442587Y-46098971D01*
X109442587Y-46098971D02*
X109442587Y-46337066D01*
X109442587Y-46337066D02*
X109394968Y-46432304D01*
X109394968Y-46432304D02*
X109299729Y-46479923D01*
X109299729Y-46479923D02*
X109204491Y-46479923D01*
X109204491Y-46479923D02*
X109109253Y-46432304D01*
X109109253Y-46432304D02*
X109061634Y-46337066D01*
X109061634Y-46337066D02*
X109061634Y-46098971D01*
X109061634Y-46098971D02*
X109014015Y-46003733D01*
X108775920Y-45670399D02*
X108775920Y-45289447D01*
X108442587Y-45527542D02*
X109299729Y-45527542D01*
X109299729Y-45527542D02*
X109394968Y-45479923D01*
X109394968Y-45479923D02*
X109442587Y-45384685D01*
X109442587Y-45384685D02*
X109442587Y-45289447D01*
X108775920Y-45098970D02*
X108775920Y-44718018D01*
X108442587Y-44956113D02*
X109299729Y-44956113D01*
X109299729Y-44956113D02*
X109394968Y-44908494D01*
X109394968Y-44908494D02*
X109442587Y-44813256D01*
X109442587Y-44813256D02*
X109442587Y-44718018D01*
X109394968Y-44003732D02*
X109442587Y-44098970D01*
X109442587Y-44098970D02*
X109442587Y-44289446D01*
X109442587Y-44289446D02*
X109394968Y-44384684D01*
X109394968Y-44384684D02*
X109299729Y-44432303D01*
X109299729Y-44432303D02*
X108918777Y-44432303D01*
X108918777Y-44432303D02*
X108823539Y-44384684D01*
X108823539Y-44384684D02*
X108775920Y-44289446D01*
X108775920Y-44289446D02*
X108775920Y-44098970D01*
X108775920Y-44098970D02*
X108823539Y-44003732D01*
X108823539Y-44003732D02*
X108918777Y-43956113D01*
X108918777Y-43956113D02*
X109014015Y-43956113D01*
X109014015Y-43956113D02*
X109109253Y-44432303D01*
X109442587Y-43527541D02*
X108775920Y-43527541D01*
X108966396Y-43527541D02*
X108871158Y-43479922D01*
X108871158Y-43479922D02*
X108823539Y-43432303D01*
X108823539Y-43432303D02*
X108775920Y-43337065D01*
X108775920Y-43337065D02*
X108775920Y-43241827D01*
X108775920Y-43003731D02*
X109442587Y-42765636D01*
X108775920Y-42527541D02*
X109442587Y-42765636D01*
X109442587Y-42765636D02*
X109680682Y-42860874D01*
X109680682Y-42860874D02*
X109728301Y-42908493D01*
X109728301Y-42908493D02*
X109775920Y-43003731D01*
X110385864Y-53098972D02*
X110385864Y-52718020D01*
X110052531Y-52956115D02*
X110909673Y-52956115D01*
X110909673Y-52956115D02*
X111004912Y-52908496D01*
X111004912Y-52908496D02*
X111052531Y-52813258D01*
X111052531Y-52813258D02*
X111052531Y-52718020D01*
X111052531Y-52241829D02*
X111004912Y-52337067D01*
X111004912Y-52337067D02*
X110957292Y-52384686D01*
X110957292Y-52384686D02*
X110862054Y-52432305D01*
X110862054Y-52432305D02*
X110576340Y-52432305D01*
X110576340Y-52432305D02*
X110481102Y-52384686D01*
X110481102Y-52384686D02*
X110433483Y-52337067D01*
X110433483Y-52337067D02*
X110385864Y-52241829D01*
X110385864Y-52241829D02*
X110385864Y-52098972D01*
X110385864Y-52098972D02*
X110433483Y-52003734D01*
X110433483Y-52003734D02*
X110481102Y-51956115D01*
X110481102Y-51956115D02*
X110576340Y-51908496D01*
X110576340Y-51908496D02*
X110862054Y-51908496D01*
X110862054Y-51908496D02*
X110957292Y-51956115D01*
X110957292Y-51956115D02*
X111004912Y-52003734D01*
X111004912Y-52003734D02*
X111052531Y-52098972D01*
X111052531Y-52098972D02*
X111052531Y-52241829D01*
X110052531Y-50432305D02*
X110766816Y-50432305D01*
X110766816Y-50432305D02*
X110909673Y-50479924D01*
X110909673Y-50479924D02*
X111004912Y-50575162D01*
X111004912Y-50575162D02*
X111052531Y-50718019D01*
X111052531Y-50718019D02*
X111052531Y-50813257D01*
X111052531Y-49432305D02*
X111052531Y-50003733D01*
X111052531Y-49718019D02*
X110052531Y-49718019D01*
X110052531Y-49718019D02*
X110195388Y-49813257D01*
X110195388Y-49813257D02*
X110290626Y-49908495D01*
X110290626Y-49908495D02*
X110338245Y-50003733D01*
X110957292Y-49003733D02*
X111004912Y-48956114D01*
X111004912Y-48956114D02*
X111052531Y-49003733D01*
X111052531Y-49003733D02*
X111004912Y-49051352D01*
X111004912Y-49051352D02*
X110957292Y-49003733D01*
X110957292Y-49003733D02*
X111052531Y-49003733D01*
X111710094Y-52432306D02*
X111662475Y-52527544D01*
X111662475Y-52527544D02*
X111662475Y-52670401D01*
X111662475Y-52670401D02*
X111710094Y-52813258D01*
X111710094Y-52813258D02*
X111805332Y-52908496D01*
X111805332Y-52908496D02*
X111900570Y-52956115D01*
X111900570Y-52956115D02*
X112091046Y-53003734D01*
X112091046Y-53003734D02*
X112233903Y-53003734D01*
X112233903Y-53003734D02*
X112424379Y-52956115D01*
X112424379Y-52956115D02*
X112519617Y-52908496D01*
X112519617Y-52908496D02*
X112614856Y-52813258D01*
X112614856Y-52813258D02*
X112662475Y-52670401D01*
X112662475Y-52670401D02*
X112662475Y-52575163D01*
X112662475Y-52575163D02*
X112614856Y-52432306D01*
X112614856Y-52432306D02*
X112567236Y-52384687D01*
X112567236Y-52384687D02*
X112233903Y-52384687D01*
X112233903Y-52384687D02*
X112233903Y-52575163D01*
X112662475Y-51813258D02*
X112614856Y-51908496D01*
X112614856Y-51908496D02*
X112519617Y-51956115D01*
X112519617Y-51956115D02*
X111662475Y-51956115D01*
X111995808Y-51003734D02*
X112662475Y-51003734D01*
X111995808Y-51432305D02*
X112519617Y-51432305D01*
X112519617Y-51432305D02*
X112614856Y-51384686D01*
X112614856Y-51384686D02*
X112662475Y-51289448D01*
X112662475Y-51289448D02*
X112662475Y-51146591D01*
X112662475Y-51146591D02*
X112614856Y-51051353D01*
X112614856Y-51051353D02*
X112567236Y-51003734D01*
X112614856Y-50146591D02*
X112662475Y-50241829D01*
X112662475Y-50241829D02*
X112662475Y-50432305D01*
X112662475Y-50432305D02*
X112614856Y-50527543D01*
X112614856Y-50527543D02*
X112519617Y-50575162D01*
X112519617Y-50575162D02*
X112138665Y-50575162D01*
X112138665Y-50575162D02*
X112043427Y-50527543D01*
X112043427Y-50527543D02*
X111995808Y-50432305D01*
X111995808Y-50432305D02*
X111995808Y-50241829D01*
X111995808Y-50241829D02*
X112043427Y-50146591D01*
X112043427Y-50146591D02*
X112138665Y-50098972D01*
X112138665Y-50098972D02*
X112233903Y-50098972D01*
X112233903Y-50098972D02*
X112329141Y-50575162D01*
X111662475Y-49051352D02*
X111662475Y-48479924D01*
X112662475Y-48765638D02*
X111662475Y-48765638D01*
X112281522Y-48146590D02*
X112281522Y-47384686D01*
X111995808Y-46908495D02*
X112995808Y-46908495D01*
X112043427Y-46908495D02*
X111995808Y-46813257D01*
X111995808Y-46813257D02*
X111995808Y-46622781D01*
X111995808Y-46622781D02*
X112043427Y-46527543D01*
X112043427Y-46527543D02*
X112091046Y-46479924D01*
X112091046Y-46479924D02*
X112186284Y-46432305D01*
X112186284Y-46432305D02*
X112471998Y-46432305D01*
X112471998Y-46432305D02*
X112567236Y-46479924D01*
X112567236Y-46479924D02*
X112614856Y-46527543D01*
X112614856Y-46527543D02*
X112662475Y-46622781D01*
X112662475Y-46622781D02*
X112662475Y-46813257D01*
X112662475Y-46813257D02*
X112614856Y-46908495D01*
X112662475Y-45860876D02*
X112614856Y-45956114D01*
X112614856Y-45956114D02*
X112519617Y-46003733D01*
X112519617Y-46003733D02*
X111662475Y-46003733D01*
X111995808Y-45051352D02*
X112662475Y-45051352D01*
X111995808Y-45479923D02*
X112519617Y-45479923D01*
X112519617Y-45479923D02*
X112614856Y-45432304D01*
X112614856Y-45432304D02*
X112662475Y-45337066D01*
X112662475Y-45337066D02*
X112662475Y-45194209D01*
X112662475Y-45194209D02*
X112614856Y-45098971D01*
X112614856Y-45098971D02*
X112567236Y-45051352D01*
X111995808Y-44146590D02*
X112805332Y-44146590D01*
X112805332Y-44146590D02*
X112900570Y-44194209D01*
X112900570Y-44194209D02*
X112948189Y-44241828D01*
X112948189Y-44241828D02*
X112995808Y-44337066D01*
X112995808Y-44337066D02*
X112995808Y-44479923D01*
X112995808Y-44479923D02*
X112948189Y-44575161D01*
X112614856Y-44146590D02*
X112662475Y-44241828D01*
X112662475Y-44241828D02*
X112662475Y-44432304D01*
X112662475Y-44432304D02*
X112614856Y-44527542D01*
X112614856Y-44527542D02*
X112567236Y-44575161D01*
X112567236Y-44575161D02*
X112471998Y-44622780D01*
X112471998Y-44622780D02*
X112186284Y-44622780D01*
X112186284Y-44622780D02*
X112091046Y-44575161D01*
X112091046Y-44575161D02*
X112043427Y-44527542D01*
X112043427Y-44527542D02*
X111995808Y-44432304D01*
X111995808Y-44432304D02*
X111995808Y-44241828D01*
X111995808Y-44241828D02*
X112043427Y-44146590D01*
X114272419Y-52956115D02*
X113605752Y-52956115D01*
X113272419Y-52956115D02*
X113320038Y-53003734D01*
X113320038Y-53003734D02*
X113367657Y-52956115D01*
X113367657Y-52956115D02*
X113320038Y-52908496D01*
X113320038Y-52908496D02*
X113272419Y-52956115D01*
X113272419Y-52956115D02*
X113367657Y-52956115D01*
X113605752Y-52479925D02*
X114272419Y-52479925D01*
X113700990Y-52479925D02*
X113653371Y-52432306D01*
X113653371Y-52432306D02*
X113605752Y-52337068D01*
X113605752Y-52337068D02*
X113605752Y-52194211D01*
X113605752Y-52194211D02*
X113653371Y-52098973D01*
X113653371Y-52098973D02*
X113748609Y-52051354D01*
X113748609Y-52051354D02*
X114272419Y-52051354D01*
X113605752Y-51718020D02*
X113605752Y-51337068D01*
X113272419Y-51575163D02*
X114129561Y-51575163D01*
X114129561Y-51575163D02*
X114224800Y-51527544D01*
X114224800Y-51527544D02*
X114272419Y-51432306D01*
X114272419Y-51432306D02*
X114272419Y-51337068D01*
X114272419Y-50860877D02*
X114224800Y-50956115D01*
X114224800Y-50956115D02*
X114177180Y-51003734D01*
X114177180Y-51003734D02*
X114081942Y-51051353D01*
X114081942Y-51051353D02*
X113796228Y-51051353D01*
X113796228Y-51051353D02*
X113700990Y-51003734D01*
X113700990Y-51003734D02*
X113653371Y-50956115D01*
X113653371Y-50956115D02*
X113605752Y-50860877D01*
X113605752Y-50860877D02*
X113605752Y-50718020D01*
X113605752Y-50718020D02*
X113653371Y-50622782D01*
X113653371Y-50622782D02*
X113700990Y-50575163D01*
X113700990Y-50575163D02*
X113796228Y-50527544D01*
X113796228Y-50527544D02*
X114081942Y-50527544D01*
X114081942Y-50527544D02*
X114177180Y-50575163D01*
X114177180Y-50575163D02*
X114224800Y-50622782D01*
X114224800Y-50622782D02*
X114272419Y-50718020D01*
X114272419Y-50718020D02*
X114272419Y-50860877D01*
X113605752Y-49479924D02*
X113605752Y-49098972D01*
X113272419Y-49337067D02*
X114129561Y-49337067D01*
X114129561Y-49337067D02*
X114224800Y-49289448D01*
X114224800Y-49289448D02*
X114272419Y-49194210D01*
X114272419Y-49194210D02*
X114272419Y-49098972D01*
X114272419Y-48765638D02*
X113272419Y-48765638D01*
X114272419Y-48337067D02*
X113748609Y-48337067D01*
X113748609Y-48337067D02*
X113653371Y-48384686D01*
X113653371Y-48384686D02*
X113605752Y-48479924D01*
X113605752Y-48479924D02*
X113605752Y-48622781D01*
X113605752Y-48622781D02*
X113653371Y-48718019D01*
X113653371Y-48718019D02*
X113700990Y-48765638D01*
X114272419Y-47860876D02*
X113605752Y-47860876D01*
X113272419Y-47860876D02*
X113320038Y-47908495D01*
X113320038Y-47908495D02*
X113367657Y-47860876D01*
X113367657Y-47860876D02*
X113320038Y-47813257D01*
X113320038Y-47813257D02*
X113272419Y-47860876D01*
X113272419Y-47860876D02*
X113367657Y-47860876D01*
X114224800Y-47432305D02*
X114272419Y-47337067D01*
X114272419Y-47337067D02*
X114272419Y-47146591D01*
X114272419Y-47146591D02*
X114224800Y-47051353D01*
X114224800Y-47051353D02*
X114129561Y-47003734D01*
X114129561Y-47003734D02*
X114081942Y-47003734D01*
X114081942Y-47003734D02*
X113986704Y-47051353D01*
X113986704Y-47051353D02*
X113939085Y-47146591D01*
X113939085Y-47146591D02*
X113939085Y-47289448D01*
X113939085Y-47289448D02*
X113891466Y-47384686D01*
X113891466Y-47384686D02*
X113796228Y-47432305D01*
X113796228Y-47432305D02*
X113748609Y-47432305D01*
X113748609Y-47432305D02*
X113653371Y-47384686D01*
X113653371Y-47384686D02*
X113605752Y-47289448D01*
X113605752Y-47289448D02*
X113605752Y-47146591D01*
X113605752Y-47146591D02*
X113653371Y-47051353D01*
X114272419Y-45813257D02*
X113272419Y-45813257D01*
X113653371Y-45813257D02*
X113605752Y-45718019D01*
X113605752Y-45718019D02*
X113605752Y-45527543D01*
X113605752Y-45527543D02*
X113653371Y-45432305D01*
X113653371Y-45432305D02*
X113700990Y-45384686D01*
X113700990Y-45384686D02*
X113796228Y-45337067D01*
X113796228Y-45337067D02*
X114081942Y-45337067D01*
X114081942Y-45337067D02*
X114177180Y-45384686D01*
X114177180Y-45384686D02*
X114224800Y-45432305D01*
X114224800Y-45432305D02*
X114272419Y-45527543D01*
X114272419Y-45527543D02*
X114272419Y-45718019D01*
X114272419Y-45718019D02*
X114224800Y-45813257D01*
X114272419Y-44765638D02*
X114224800Y-44860876D01*
X114224800Y-44860876D02*
X114177180Y-44908495D01*
X114177180Y-44908495D02*
X114081942Y-44956114D01*
X114081942Y-44956114D02*
X113796228Y-44956114D01*
X113796228Y-44956114D02*
X113700990Y-44908495D01*
X113700990Y-44908495D02*
X113653371Y-44860876D01*
X113653371Y-44860876D02*
X113605752Y-44765638D01*
X113605752Y-44765638D02*
X113605752Y-44622781D01*
X113605752Y-44622781D02*
X113653371Y-44527543D01*
X113653371Y-44527543D02*
X113700990Y-44479924D01*
X113700990Y-44479924D02*
X113796228Y-44432305D01*
X113796228Y-44432305D02*
X114081942Y-44432305D01*
X114081942Y-44432305D02*
X114177180Y-44479924D01*
X114177180Y-44479924D02*
X114224800Y-44527543D01*
X114224800Y-44527543D02*
X114272419Y-44622781D01*
X114272419Y-44622781D02*
X114272419Y-44765638D01*
X114272419Y-44098971D02*
X113605752Y-43575162D01*
X113605752Y-44098971D02*
X114272419Y-43575162D01*
D11*
X81104819Y-106498094D02*
X80104819Y-106498094D01*
X80104819Y-106498094D02*
X80104819Y-106259999D01*
X80104819Y-106259999D02*
X80152438Y-106117142D01*
X80152438Y-106117142D02*
X80247676Y-106021904D01*
X80247676Y-106021904D02*
X80342914Y-105974285D01*
X80342914Y-105974285D02*
X80533390Y-105926666D01*
X80533390Y-105926666D02*
X80676247Y-105926666D01*
X80676247Y-105926666D02*
X80866723Y-105974285D01*
X80866723Y-105974285D02*
X80961961Y-106021904D01*
X80961961Y-106021904D02*
X81057200Y-106117142D01*
X81057200Y-106117142D02*
X81104819Y-106259999D01*
X81104819Y-106259999D02*
X81104819Y-106498094D01*
X81104819Y-104974285D02*
X81104819Y-105545713D01*
X81104819Y-105259999D02*
X80104819Y-105259999D01*
X80104819Y-105259999D02*
X80247676Y-105355237D01*
X80247676Y-105355237D02*
X80342914Y-105450475D01*
X80342914Y-105450475D02*
X80390533Y-105545713D01*
X36966666Y-104564819D02*
X36633333Y-104088628D01*
X36395238Y-104564819D02*
X36395238Y-103564819D01*
X36395238Y-103564819D02*
X36776190Y-103564819D01*
X36776190Y-103564819D02*
X36871428Y-103612438D01*
X36871428Y-103612438D02*
X36919047Y-103660057D01*
X36919047Y-103660057D02*
X36966666Y-103755295D01*
X36966666Y-103755295D02*
X36966666Y-103898152D01*
X36966666Y-103898152D02*
X36919047Y-103993390D01*
X36919047Y-103993390D02*
X36871428Y-104041009D01*
X36871428Y-104041009D02*
X36776190Y-104088628D01*
X36776190Y-104088628D02*
X36395238Y-104088628D01*
X37395238Y-104041009D02*
X37728571Y-104041009D01*
X37871428Y-104564819D02*
X37395238Y-104564819D01*
X37395238Y-104564819D02*
X37395238Y-103564819D01*
X37395238Y-103564819D02*
X37871428Y-103564819D01*
X38633333Y-104041009D02*
X38300000Y-104041009D01*
X38300000Y-104564819D02*
X38300000Y-103564819D01*
X38300000Y-103564819D02*
X38776190Y-103564819D01*
X39300000Y-103564819D02*
X39300000Y-103802914D01*
X39061905Y-103707676D02*
X39300000Y-103802914D01*
X39300000Y-103802914D02*
X39538095Y-103707676D01*
X39157143Y-103993390D02*
X39300000Y-103802914D01*
X39300000Y-103802914D02*
X39442857Y-103993390D01*
X40061905Y-103564819D02*
X40061905Y-103802914D01*
X39823810Y-103707676D02*
X40061905Y-103802914D01*
X40061905Y-103802914D02*
X40300000Y-103707676D01*
X39919048Y-103993390D02*
X40061905Y-103802914D01*
X40061905Y-103802914D02*
X40204762Y-103993390D01*
X45254819Y-60926666D02*
X44778628Y-61259999D01*
X45254819Y-61498094D02*
X44254819Y-61498094D01*
X44254819Y-61498094D02*
X44254819Y-61117142D01*
X44254819Y-61117142D02*
X44302438Y-61021904D01*
X44302438Y-61021904D02*
X44350057Y-60974285D01*
X44350057Y-60974285D02*
X44445295Y-60926666D01*
X44445295Y-60926666D02*
X44588152Y-60926666D01*
X44588152Y-60926666D02*
X44683390Y-60974285D01*
X44683390Y-60974285D02*
X44731009Y-61021904D01*
X44731009Y-61021904D02*
X44778628Y-61117142D01*
X44778628Y-61117142D02*
X44778628Y-61498094D01*
X44254819Y-60593332D02*
X44254819Y-59926666D01*
X44254819Y-59926666D02*
X45254819Y-60355237D01*
X99483333Y-52274580D02*
X99435714Y-52322200D01*
X99435714Y-52322200D02*
X99292857Y-52369819D01*
X99292857Y-52369819D02*
X99197619Y-52369819D01*
X99197619Y-52369819D02*
X99054762Y-52322200D01*
X99054762Y-52322200D02*
X98959524Y-52226961D01*
X98959524Y-52226961D02*
X98911905Y-52131723D01*
X98911905Y-52131723D02*
X98864286Y-51941247D01*
X98864286Y-51941247D02*
X98864286Y-51798390D01*
X98864286Y-51798390D02*
X98911905Y-51607914D01*
X98911905Y-51607914D02*
X98959524Y-51512676D01*
X98959524Y-51512676D02*
X99054762Y-51417438D01*
X99054762Y-51417438D02*
X99197619Y-51369819D01*
X99197619Y-51369819D02*
X99292857Y-51369819D01*
X99292857Y-51369819D02*
X99435714Y-51417438D01*
X99435714Y-51417438D02*
X99483333Y-51465057D01*
X100435714Y-52369819D02*
X99864286Y-52369819D01*
X100150000Y-52369819D02*
X100150000Y-51369819D01*
X100150000Y-51369819D02*
X100054762Y-51512676D01*
X100054762Y-51512676D02*
X99959524Y-51607914D01*
X99959524Y-51607914D02*
X99864286Y-51655533D01*
X77552095Y-26374819D02*
X77552095Y-25374819D01*
X77552095Y-25851009D02*
X78123523Y-25851009D01*
X78123523Y-26374819D02*
X78123523Y-25374819D01*
X79123523Y-26374819D02*
X78552095Y-26374819D01*
X78837809Y-26374819D02*
X78837809Y-25374819D01*
X78837809Y-25374819D02*
X78742571Y-25517676D01*
X78742571Y-25517676D02*
X78647333Y-25612914D01*
X78647333Y-25612914D02*
X78552095Y-25660533D01*
X50146667Y-56007200D02*
X50289524Y-56054819D01*
X50289524Y-56054819D02*
X50527619Y-56054819D01*
X50527619Y-56054819D02*
X50622857Y-56007200D01*
X50622857Y-56007200D02*
X50670476Y-55959580D01*
X50670476Y-55959580D02*
X50718095Y-55864342D01*
X50718095Y-55864342D02*
X50718095Y-55769104D01*
X50718095Y-55769104D02*
X50670476Y-55673866D01*
X50670476Y-55673866D02*
X50622857Y-55626247D01*
X50622857Y-55626247D02*
X50527619Y-55578628D01*
X50527619Y-55578628D02*
X50337143Y-55531009D01*
X50337143Y-55531009D02*
X50241905Y-55483390D01*
X50241905Y-55483390D02*
X50194286Y-55435771D01*
X50194286Y-55435771D02*
X50146667Y-55340533D01*
X50146667Y-55340533D02*
X50146667Y-55245295D01*
X50146667Y-55245295D02*
X50194286Y-55150057D01*
X50194286Y-55150057D02*
X50241905Y-55102438D01*
X50241905Y-55102438D02*
X50337143Y-55054819D01*
X50337143Y-55054819D02*
X50575238Y-55054819D01*
X50575238Y-55054819D02*
X50718095Y-55102438D01*
X51051429Y-55054819D02*
X51289524Y-56054819D01*
X51289524Y-56054819D02*
X51480000Y-55340533D01*
X51480000Y-55340533D02*
X51670476Y-56054819D01*
X51670476Y-56054819D02*
X51908572Y-55054819D01*
X52765714Y-55054819D02*
X52289524Y-55054819D01*
X52289524Y-55054819D02*
X52241905Y-55531009D01*
X52241905Y-55531009D02*
X52289524Y-55483390D01*
X52289524Y-55483390D02*
X52384762Y-55435771D01*
X52384762Y-55435771D02*
X52622857Y-55435771D01*
X52622857Y-55435771D02*
X52718095Y-55483390D01*
X52718095Y-55483390D02*
X52765714Y-55531009D01*
X52765714Y-55531009D02*
X52813333Y-55626247D01*
X52813333Y-55626247D02*
X52813333Y-55864342D01*
X52813333Y-55864342D02*
X52765714Y-55959580D01*
X52765714Y-55959580D02*
X52718095Y-56007200D01*
X52718095Y-56007200D02*
X52622857Y-56054819D01*
X52622857Y-56054819D02*
X52384762Y-56054819D01*
X52384762Y-56054819D02*
X52289524Y-56007200D01*
X52289524Y-56007200D02*
X52241905Y-55959580D01*
X44274819Y-98143333D02*
X44989104Y-98143333D01*
X44989104Y-98143333D02*
X45131961Y-98190952D01*
X45131961Y-98190952D02*
X45227200Y-98286190D01*
X45227200Y-98286190D02*
X45274819Y-98429047D01*
X45274819Y-98429047D02*
X45274819Y-98524285D01*
X44274819Y-97190952D02*
X44274819Y-97667142D01*
X44274819Y-97667142D02*
X44751009Y-97714761D01*
X44751009Y-97714761D02*
X44703390Y-97667142D01*
X44703390Y-97667142D02*
X44655771Y-97571904D01*
X44655771Y-97571904D02*
X44655771Y-97333809D01*
X44655771Y-97333809D02*
X44703390Y-97238571D01*
X44703390Y-97238571D02*
X44751009Y-97190952D01*
X44751009Y-97190952D02*
X44846247Y-97143333D01*
X44846247Y-97143333D02*
X45084342Y-97143333D01*
X45084342Y-97143333D02*
X45179580Y-97190952D01*
X45179580Y-97190952D02*
X45227200Y-97238571D01*
X45227200Y-97238571D02*
X45274819Y-97333809D01*
X45274819Y-97333809D02*
X45274819Y-97571904D01*
X45274819Y-97571904D02*
X45227200Y-97667142D01*
X45227200Y-97667142D02*
X45179580Y-97714761D01*
X22138095Y-51854819D02*
X22138095Y-52664342D01*
X22138095Y-52664342D02*
X22185714Y-52759580D01*
X22185714Y-52759580D02*
X22233333Y-52807200D01*
X22233333Y-52807200D02*
X22328571Y-52854819D01*
X22328571Y-52854819D02*
X22519047Y-52854819D01*
X22519047Y-52854819D02*
X22614285Y-52807200D01*
X22614285Y-52807200D02*
X22661904Y-52759580D01*
X22661904Y-52759580D02*
X22709523Y-52664342D01*
X22709523Y-52664342D02*
X22709523Y-51854819D01*
X23661904Y-51854819D02*
X23185714Y-51854819D01*
X23185714Y-51854819D02*
X23138095Y-52331009D01*
X23138095Y-52331009D02*
X23185714Y-52283390D01*
X23185714Y-52283390D02*
X23280952Y-52235771D01*
X23280952Y-52235771D02*
X23519047Y-52235771D01*
X23519047Y-52235771D02*
X23614285Y-52283390D01*
X23614285Y-52283390D02*
X23661904Y-52331009D01*
X23661904Y-52331009D02*
X23709523Y-52426247D01*
X23709523Y-52426247D02*
X23709523Y-52664342D01*
X23709523Y-52664342D02*
X23661904Y-52759580D01*
X23661904Y-52759580D02*
X23614285Y-52807200D01*
X23614285Y-52807200D02*
X23519047Y-52854819D01*
X23519047Y-52854819D02*
X23280952Y-52854819D01*
X23280952Y-52854819D02*
X23185714Y-52807200D01*
X23185714Y-52807200D02*
X23138095Y-52759580D01*
X65090476Y-110794819D02*
X64614286Y-110794819D01*
X64614286Y-110794819D02*
X64566667Y-111271009D01*
X64566667Y-111271009D02*
X64614286Y-111223390D01*
X64614286Y-111223390D02*
X64709524Y-111175771D01*
X64709524Y-111175771D02*
X64947619Y-111175771D01*
X64947619Y-111175771D02*
X65042857Y-111223390D01*
X65042857Y-111223390D02*
X65090476Y-111271009D01*
X65090476Y-111271009D02*
X65138095Y-111366247D01*
X65138095Y-111366247D02*
X65138095Y-111604342D01*
X65138095Y-111604342D02*
X65090476Y-111699580D01*
X65090476Y-111699580D02*
X65042857Y-111747200D01*
X65042857Y-111747200D02*
X64947619Y-111794819D01*
X64947619Y-111794819D02*
X64709524Y-111794819D01*
X64709524Y-111794819D02*
X64614286Y-111747200D01*
X64614286Y-111747200D02*
X64566667Y-111699580D01*
X65757143Y-110794819D02*
X65852381Y-110794819D01*
X65852381Y-110794819D02*
X65947619Y-110842438D01*
X65947619Y-110842438D02*
X65995238Y-110890057D01*
X65995238Y-110890057D02*
X66042857Y-110985295D01*
X66042857Y-110985295D02*
X66090476Y-111175771D01*
X66090476Y-111175771D02*
X66090476Y-111413866D01*
X66090476Y-111413866D02*
X66042857Y-111604342D01*
X66042857Y-111604342D02*
X65995238Y-111699580D01*
X65995238Y-111699580D02*
X65947619Y-111747200D01*
X65947619Y-111747200D02*
X65852381Y-111794819D01*
X65852381Y-111794819D02*
X65757143Y-111794819D01*
X65757143Y-111794819D02*
X65661905Y-111747200D01*
X65661905Y-111747200D02*
X65614286Y-111699580D01*
X65614286Y-111699580D02*
X65566667Y-111604342D01*
X65566667Y-111604342D02*
X65519048Y-111413866D01*
X65519048Y-111413866D02*
X65519048Y-111175771D01*
X65519048Y-111175771D02*
X65566667Y-110985295D01*
X65566667Y-110985295D02*
X65614286Y-110890057D01*
X65614286Y-110890057D02*
X65661905Y-110842438D01*
X65661905Y-110842438D02*
X65757143Y-110794819D01*
X66519048Y-111794819D02*
X66519048Y-111128152D01*
X66519048Y-111223390D02*
X66566667Y-111175771D01*
X66566667Y-111175771D02*
X66661905Y-111128152D01*
X66661905Y-111128152D02*
X66804762Y-111128152D01*
X66804762Y-111128152D02*
X66900000Y-111175771D01*
X66900000Y-111175771D02*
X66947619Y-111271009D01*
X66947619Y-111271009D02*
X66947619Y-111794819D01*
X66947619Y-111271009D02*
X66995238Y-111175771D01*
X66995238Y-111175771D02*
X67090476Y-111128152D01*
X67090476Y-111128152D02*
X67233333Y-111128152D01*
X67233333Y-111128152D02*
X67328572Y-111175771D01*
X67328572Y-111175771D02*
X67376191Y-111271009D01*
X67376191Y-111271009D02*
X67376191Y-111794819D01*
X67804762Y-111509104D02*
X68280952Y-111509104D01*
X67709524Y-111794819D02*
X68042857Y-110794819D01*
X68042857Y-110794819D02*
X68376190Y-111794819D01*
X69233333Y-111794819D02*
X68661905Y-111794819D01*
X68947619Y-111794819D02*
X68947619Y-110794819D01*
X68947619Y-110794819D02*
X68852381Y-110937676D01*
X68852381Y-110937676D02*
X68757143Y-111032914D01*
X68757143Y-111032914D02*
X68661905Y-111080533D01*
X43744761Y-55620057D02*
X43649523Y-55572438D01*
X43649523Y-55572438D02*
X43554285Y-55477200D01*
X43554285Y-55477200D02*
X43411428Y-55334342D01*
X43411428Y-55334342D02*
X43316190Y-55286723D01*
X43316190Y-55286723D02*
X43220952Y-55286723D01*
X43268571Y-55524819D02*
X43173333Y-55477200D01*
X43173333Y-55477200D02*
X43078095Y-55381961D01*
X43078095Y-55381961D02*
X43030476Y-55191485D01*
X43030476Y-55191485D02*
X43030476Y-54858152D01*
X43030476Y-54858152D02*
X43078095Y-54667676D01*
X43078095Y-54667676D02*
X43173333Y-54572438D01*
X43173333Y-54572438D02*
X43268571Y-54524819D01*
X43268571Y-54524819D02*
X43459047Y-54524819D01*
X43459047Y-54524819D02*
X43554285Y-54572438D01*
X43554285Y-54572438D02*
X43649523Y-54667676D01*
X43649523Y-54667676D02*
X43697142Y-54858152D01*
X43697142Y-54858152D02*
X43697142Y-55191485D01*
X43697142Y-55191485D02*
X43649523Y-55381961D01*
X43649523Y-55381961D02*
X43554285Y-55477200D01*
X43554285Y-55477200D02*
X43459047Y-55524819D01*
X43459047Y-55524819D02*
X43268571Y-55524819D01*
X44649523Y-55524819D02*
X44078095Y-55524819D01*
X44363809Y-55524819D02*
X44363809Y-54524819D01*
X44363809Y-54524819D02*
X44268571Y-54667676D01*
X44268571Y-54667676D02*
X44173333Y-54762914D01*
X44173333Y-54762914D02*
X44078095Y-54810533D01*
X29007142Y-41864819D02*
X28673809Y-41388628D01*
X28435714Y-41864819D02*
X28435714Y-40864819D01*
X28435714Y-40864819D02*
X28816666Y-40864819D01*
X28816666Y-40864819D02*
X28911904Y-40912438D01*
X28911904Y-40912438D02*
X28959523Y-40960057D01*
X28959523Y-40960057D02*
X29007142Y-41055295D01*
X29007142Y-41055295D02*
X29007142Y-41198152D01*
X29007142Y-41198152D02*
X28959523Y-41293390D01*
X28959523Y-41293390D02*
X28911904Y-41341009D01*
X28911904Y-41341009D02*
X28816666Y-41388628D01*
X28816666Y-41388628D02*
X28435714Y-41388628D01*
X29959523Y-41864819D02*
X29388095Y-41864819D01*
X29673809Y-41864819D02*
X29673809Y-40864819D01*
X29673809Y-40864819D02*
X29578571Y-41007676D01*
X29578571Y-41007676D02*
X29483333Y-41102914D01*
X29483333Y-41102914D02*
X29388095Y-41150533D01*
X30816666Y-41198152D02*
X30816666Y-41864819D01*
X30578571Y-40817200D02*
X30340476Y-41531485D01*
X30340476Y-41531485D02*
X30959523Y-41531485D01*
X93466666Y-73264819D02*
X93133333Y-72788628D01*
X92895238Y-73264819D02*
X92895238Y-72264819D01*
X92895238Y-72264819D02*
X93276190Y-72264819D01*
X93276190Y-72264819D02*
X93371428Y-72312438D01*
X93371428Y-72312438D02*
X93419047Y-72360057D01*
X93419047Y-72360057D02*
X93466666Y-72455295D01*
X93466666Y-72455295D02*
X93466666Y-72598152D01*
X93466666Y-72598152D02*
X93419047Y-72693390D01*
X93419047Y-72693390D02*
X93371428Y-72741009D01*
X93371428Y-72741009D02*
X93276190Y-72788628D01*
X93276190Y-72788628D02*
X92895238Y-72788628D01*
X93895238Y-72741009D02*
X94228571Y-72741009D01*
X94371428Y-73264819D02*
X93895238Y-73264819D01*
X93895238Y-73264819D02*
X93895238Y-72264819D01*
X93895238Y-72264819D02*
X94371428Y-72264819D01*
X95133333Y-72741009D02*
X94800000Y-72741009D01*
X94800000Y-73264819D02*
X94800000Y-72264819D01*
X94800000Y-72264819D02*
X95276190Y-72264819D01*
X95800000Y-72264819D02*
X95800000Y-72502914D01*
X95561905Y-72407676D02*
X95800000Y-72502914D01*
X95800000Y-72502914D02*
X96038095Y-72407676D01*
X95657143Y-72693390D02*
X95800000Y-72502914D01*
X95800000Y-72502914D02*
X95942857Y-72693390D01*
X96561905Y-72264819D02*
X96561905Y-72502914D01*
X96323810Y-72407676D02*
X96561905Y-72502914D01*
X96561905Y-72502914D02*
X96800000Y-72407676D01*
X96419048Y-72693390D02*
X96561905Y-72502914D01*
X96561905Y-72502914D02*
X96704762Y-72693390D01*
X94754819Y-59676666D02*
X94278628Y-60009999D01*
X94754819Y-60248094D02*
X93754819Y-60248094D01*
X93754819Y-60248094D02*
X93754819Y-59867142D01*
X93754819Y-59867142D02*
X93802438Y-59771904D01*
X93802438Y-59771904D02*
X93850057Y-59724285D01*
X93850057Y-59724285D02*
X93945295Y-59676666D01*
X93945295Y-59676666D02*
X94088152Y-59676666D01*
X94088152Y-59676666D02*
X94183390Y-59724285D01*
X94183390Y-59724285D02*
X94231009Y-59771904D01*
X94231009Y-59771904D02*
X94278628Y-59867142D01*
X94278628Y-59867142D02*
X94278628Y-60248094D01*
X93754819Y-58771904D02*
X93754819Y-59248094D01*
X93754819Y-59248094D02*
X94231009Y-59295713D01*
X94231009Y-59295713D02*
X94183390Y-59248094D01*
X94183390Y-59248094D02*
X94135771Y-59152856D01*
X94135771Y-59152856D02*
X94135771Y-58914761D01*
X94135771Y-58914761D02*
X94183390Y-58819523D01*
X94183390Y-58819523D02*
X94231009Y-58771904D01*
X94231009Y-58771904D02*
X94326247Y-58724285D01*
X94326247Y-58724285D02*
X94564342Y-58724285D01*
X94564342Y-58724285D02*
X94659580Y-58771904D01*
X94659580Y-58771904D02*
X94707200Y-58819523D01*
X94707200Y-58819523D02*
X94754819Y-58914761D01*
X94754819Y-58914761D02*
X94754819Y-59152856D01*
X94754819Y-59152856D02*
X94707200Y-59248094D01*
X94707200Y-59248094D02*
X94659580Y-59295713D01*
X106066666Y-46714819D02*
X106066666Y-47429104D01*
X106066666Y-47429104D02*
X106019047Y-47571961D01*
X106019047Y-47571961D02*
X105923809Y-47667200D01*
X105923809Y-47667200D02*
X105780952Y-47714819D01*
X105780952Y-47714819D02*
X105685714Y-47714819D01*
X107066666Y-47714819D02*
X106495238Y-47714819D01*
X106780952Y-47714819D02*
X106780952Y-46714819D01*
X106780952Y-46714819D02*
X106685714Y-46857676D01*
X106685714Y-46857676D02*
X106590476Y-46952914D01*
X106590476Y-46952914D02*
X106495238Y-47000533D01*
X94689580Y-63926666D02*
X94737200Y-63974285D01*
X94737200Y-63974285D02*
X94784819Y-64117142D01*
X94784819Y-64117142D02*
X94784819Y-64212380D01*
X94784819Y-64212380D02*
X94737200Y-64355237D01*
X94737200Y-64355237D02*
X94641961Y-64450475D01*
X94641961Y-64450475D02*
X94546723Y-64498094D01*
X94546723Y-64498094D02*
X94356247Y-64545713D01*
X94356247Y-64545713D02*
X94213390Y-64545713D01*
X94213390Y-64545713D02*
X94022914Y-64498094D01*
X94022914Y-64498094D02*
X93927676Y-64450475D01*
X93927676Y-64450475D02*
X93832438Y-64355237D01*
X93832438Y-64355237D02*
X93784819Y-64212380D01*
X93784819Y-64212380D02*
X93784819Y-64117142D01*
X93784819Y-64117142D02*
X93832438Y-63974285D01*
X93832438Y-63974285D02*
X93880057Y-63926666D01*
X93784819Y-63069523D02*
X93784819Y-63259999D01*
X93784819Y-63259999D02*
X93832438Y-63355237D01*
X93832438Y-63355237D02*
X93880057Y-63402856D01*
X93880057Y-63402856D02*
X94022914Y-63498094D01*
X94022914Y-63498094D02*
X94213390Y-63545713D01*
X94213390Y-63545713D02*
X94594342Y-63545713D01*
X94594342Y-63545713D02*
X94689580Y-63498094D01*
X94689580Y-63498094D02*
X94737200Y-63450475D01*
X94737200Y-63450475D02*
X94784819Y-63355237D01*
X94784819Y-63355237D02*
X94784819Y-63164761D01*
X94784819Y-63164761D02*
X94737200Y-63069523D01*
X94737200Y-63069523D02*
X94689580Y-63021904D01*
X94689580Y-63021904D02*
X94594342Y-62974285D01*
X94594342Y-62974285D02*
X94356247Y-62974285D01*
X94356247Y-62974285D02*
X94261009Y-63021904D01*
X94261009Y-63021904D02*
X94213390Y-63069523D01*
X94213390Y-63069523D02*
X94165771Y-63164761D01*
X94165771Y-63164761D02*
X94165771Y-63355237D01*
X94165771Y-63355237D02*
X94213390Y-63450475D01*
X94213390Y-63450475D02*
X94261009Y-63498094D01*
X94261009Y-63498094D02*
X94356247Y-63545713D01*
X28809580Y-45152857D02*
X28857200Y-45200476D01*
X28857200Y-45200476D02*
X28904819Y-45343333D01*
X28904819Y-45343333D02*
X28904819Y-45438571D01*
X28904819Y-45438571D02*
X28857200Y-45581428D01*
X28857200Y-45581428D02*
X28761961Y-45676666D01*
X28761961Y-45676666D02*
X28666723Y-45724285D01*
X28666723Y-45724285D02*
X28476247Y-45771904D01*
X28476247Y-45771904D02*
X28333390Y-45771904D01*
X28333390Y-45771904D02*
X28142914Y-45724285D01*
X28142914Y-45724285D02*
X28047676Y-45676666D01*
X28047676Y-45676666D02*
X27952438Y-45581428D01*
X27952438Y-45581428D02*
X27904819Y-45438571D01*
X27904819Y-45438571D02*
X27904819Y-45343333D01*
X27904819Y-45343333D02*
X27952438Y-45200476D01*
X27952438Y-45200476D02*
X28000057Y-45152857D01*
X28904819Y-44200476D02*
X28904819Y-44771904D01*
X28904819Y-44486190D02*
X27904819Y-44486190D01*
X27904819Y-44486190D02*
X28047676Y-44581428D01*
X28047676Y-44581428D02*
X28142914Y-44676666D01*
X28142914Y-44676666D02*
X28190533Y-44771904D01*
X28904819Y-43248095D02*
X28904819Y-43819523D01*
X28904819Y-43533809D02*
X27904819Y-43533809D01*
X27904819Y-43533809D02*
X28047676Y-43629047D01*
X28047676Y-43629047D02*
X28142914Y-43724285D01*
X28142914Y-43724285D02*
X28190533Y-43819523D01*
X89757142Y-82169580D02*
X89709523Y-82217200D01*
X89709523Y-82217200D02*
X89566666Y-82264819D01*
X89566666Y-82264819D02*
X89471428Y-82264819D01*
X89471428Y-82264819D02*
X89328571Y-82217200D01*
X89328571Y-82217200D02*
X89233333Y-82121961D01*
X89233333Y-82121961D02*
X89185714Y-82026723D01*
X89185714Y-82026723D02*
X89138095Y-81836247D01*
X89138095Y-81836247D02*
X89138095Y-81693390D01*
X89138095Y-81693390D02*
X89185714Y-81502914D01*
X89185714Y-81502914D02*
X89233333Y-81407676D01*
X89233333Y-81407676D02*
X89328571Y-81312438D01*
X89328571Y-81312438D02*
X89471428Y-81264819D01*
X89471428Y-81264819D02*
X89566666Y-81264819D01*
X89566666Y-81264819D02*
X89709523Y-81312438D01*
X89709523Y-81312438D02*
X89757142Y-81360057D01*
X90709523Y-82264819D02*
X90138095Y-82264819D01*
X90423809Y-82264819D02*
X90423809Y-81264819D01*
X90423809Y-81264819D02*
X90328571Y-81407676D01*
X90328571Y-81407676D02*
X90233333Y-81502914D01*
X90233333Y-81502914D02*
X90138095Y-81550533D01*
X91328571Y-81264819D02*
X91423809Y-81264819D01*
X91423809Y-81264819D02*
X91519047Y-81312438D01*
X91519047Y-81312438D02*
X91566666Y-81360057D01*
X91566666Y-81360057D02*
X91614285Y-81455295D01*
X91614285Y-81455295D02*
X91661904Y-81645771D01*
X91661904Y-81645771D02*
X91661904Y-81883866D01*
X91661904Y-81883866D02*
X91614285Y-82074342D01*
X91614285Y-82074342D02*
X91566666Y-82169580D01*
X91566666Y-82169580D02*
X91519047Y-82217200D01*
X91519047Y-82217200D02*
X91423809Y-82264819D01*
X91423809Y-82264819D02*
X91328571Y-82264819D01*
X91328571Y-82264819D02*
X91233333Y-82217200D01*
X91233333Y-82217200D02*
X91185714Y-82169580D01*
X91185714Y-82169580D02*
X91138095Y-82074342D01*
X91138095Y-82074342D02*
X91090476Y-81883866D01*
X91090476Y-81883866D02*
X91090476Y-81645771D01*
X91090476Y-81645771D02*
X91138095Y-81455295D01*
X91138095Y-81455295D02*
X91185714Y-81360057D01*
X91185714Y-81360057D02*
X91233333Y-81312438D01*
X91233333Y-81312438D02*
X91328571Y-81264819D01*
X71483333Y-57364819D02*
X71150000Y-56888628D01*
X70911905Y-57364819D02*
X70911905Y-56364819D01*
X70911905Y-56364819D02*
X71292857Y-56364819D01*
X71292857Y-56364819D02*
X71388095Y-56412438D01*
X71388095Y-56412438D02*
X71435714Y-56460057D01*
X71435714Y-56460057D02*
X71483333Y-56555295D01*
X71483333Y-56555295D02*
X71483333Y-56698152D01*
X71483333Y-56698152D02*
X71435714Y-56793390D01*
X71435714Y-56793390D02*
X71388095Y-56841009D01*
X71388095Y-56841009D02*
X71292857Y-56888628D01*
X71292857Y-56888628D02*
X70911905Y-56888628D01*
X72340476Y-56364819D02*
X72150000Y-56364819D01*
X72150000Y-56364819D02*
X72054762Y-56412438D01*
X72054762Y-56412438D02*
X72007143Y-56460057D01*
X72007143Y-56460057D02*
X71911905Y-56602914D01*
X71911905Y-56602914D02*
X71864286Y-56793390D01*
X71864286Y-56793390D02*
X71864286Y-57174342D01*
X71864286Y-57174342D02*
X71911905Y-57269580D01*
X71911905Y-57269580D02*
X71959524Y-57317200D01*
X71959524Y-57317200D02*
X72054762Y-57364819D01*
X72054762Y-57364819D02*
X72245238Y-57364819D01*
X72245238Y-57364819D02*
X72340476Y-57317200D01*
X72340476Y-57317200D02*
X72388095Y-57269580D01*
X72388095Y-57269580D02*
X72435714Y-57174342D01*
X72435714Y-57174342D02*
X72435714Y-56936247D01*
X72435714Y-56936247D02*
X72388095Y-56841009D01*
X72388095Y-56841009D02*
X72340476Y-56793390D01*
X72340476Y-56793390D02*
X72245238Y-56745771D01*
X72245238Y-56745771D02*
X72054762Y-56745771D01*
X72054762Y-56745771D02*
X71959524Y-56793390D01*
X71959524Y-56793390D02*
X71911905Y-56841009D01*
X71911905Y-56841009D02*
X71864286Y-56936247D01*
X43784761Y-50120057D02*
X43689523Y-50072438D01*
X43689523Y-50072438D02*
X43594285Y-49977200D01*
X43594285Y-49977200D02*
X43451428Y-49834342D01*
X43451428Y-49834342D02*
X43356190Y-49786723D01*
X43356190Y-49786723D02*
X43260952Y-49786723D01*
X43308571Y-50024819D02*
X43213333Y-49977200D01*
X43213333Y-49977200D02*
X43118095Y-49881961D01*
X43118095Y-49881961D02*
X43070476Y-49691485D01*
X43070476Y-49691485D02*
X43070476Y-49358152D01*
X43070476Y-49358152D02*
X43118095Y-49167676D01*
X43118095Y-49167676D02*
X43213333Y-49072438D01*
X43213333Y-49072438D02*
X43308571Y-49024819D01*
X43308571Y-49024819D02*
X43499047Y-49024819D01*
X43499047Y-49024819D02*
X43594285Y-49072438D01*
X43594285Y-49072438D02*
X43689523Y-49167676D01*
X43689523Y-49167676D02*
X43737142Y-49358152D01*
X43737142Y-49358152D02*
X43737142Y-49691485D01*
X43737142Y-49691485D02*
X43689523Y-49881961D01*
X43689523Y-49881961D02*
X43594285Y-49977200D01*
X43594285Y-49977200D02*
X43499047Y-50024819D01*
X43499047Y-50024819D02*
X43308571Y-50024819D01*
X44118095Y-49120057D02*
X44165714Y-49072438D01*
X44165714Y-49072438D02*
X44260952Y-49024819D01*
X44260952Y-49024819D02*
X44499047Y-49024819D01*
X44499047Y-49024819D02*
X44594285Y-49072438D01*
X44594285Y-49072438D02*
X44641904Y-49120057D01*
X44641904Y-49120057D02*
X44689523Y-49215295D01*
X44689523Y-49215295D02*
X44689523Y-49310533D01*
X44689523Y-49310533D02*
X44641904Y-49453390D01*
X44641904Y-49453390D02*
X44070476Y-50024819D01*
X44070476Y-50024819D02*
X44689523Y-50024819D01*
X66146667Y-56007200D02*
X66289524Y-56054819D01*
X66289524Y-56054819D02*
X66527619Y-56054819D01*
X66527619Y-56054819D02*
X66622857Y-56007200D01*
X66622857Y-56007200D02*
X66670476Y-55959580D01*
X66670476Y-55959580D02*
X66718095Y-55864342D01*
X66718095Y-55864342D02*
X66718095Y-55769104D01*
X66718095Y-55769104D02*
X66670476Y-55673866D01*
X66670476Y-55673866D02*
X66622857Y-55626247D01*
X66622857Y-55626247D02*
X66527619Y-55578628D01*
X66527619Y-55578628D02*
X66337143Y-55531009D01*
X66337143Y-55531009D02*
X66241905Y-55483390D01*
X66241905Y-55483390D02*
X66194286Y-55435771D01*
X66194286Y-55435771D02*
X66146667Y-55340533D01*
X66146667Y-55340533D02*
X66146667Y-55245295D01*
X66146667Y-55245295D02*
X66194286Y-55150057D01*
X66194286Y-55150057D02*
X66241905Y-55102438D01*
X66241905Y-55102438D02*
X66337143Y-55054819D01*
X66337143Y-55054819D02*
X66575238Y-55054819D01*
X66575238Y-55054819D02*
X66718095Y-55102438D01*
X67051429Y-55054819D02*
X67289524Y-56054819D01*
X67289524Y-56054819D02*
X67480000Y-55340533D01*
X67480000Y-55340533D02*
X67670476Y-56054819D01*
X67670476Y-56054819D02*
X67908572Y-55054819D01*
X68718095Y-55388152D02*
X68718095Y-56054819D01*
X68480000Y-55007200D02*
X68241905Y-55721485D01*
X68241905Y-55721485D02*
X68860952Y-55721485D01*
X111566666Y-104564819D02*
X111233333Y-104088628D01*
X110995238Y-104564819D02*
X110995238Y-103564819D01*
X110995238Y-103564819D02*
X111376190Y-103564819D01*
X111376190Y-103564819D02*
X111471428Y-103612438D01*
X111471428Y-103612438D02*
X111519047Y-103660057D01*
X111519047Y-103660057D02*
X111566666Y-103755295D01*
X111566666Y-103755295D02*
X111566666Y-103898152D01*
X111566666Y-103898152D02*
X111519047Y-103993390D01*
X111519047Y-103993390D02*
X111471428Y-104041009D01*
X111471428Y-104041009D02*
X111376190Y-104088628D01*
X111376190Y-104088628D02*
X110995238Y-104088628D01*
X111995238Y-104041009D02*
X112328571Y-104041009D01*
X112471428Y-104564819D02*
X111995238Y-104564819D01*
X111995238Y-104564819D02*
X111995238Y-103564819D01*
X111995238Y-103564819D02*
X112471428Y-103564819D01*
X113233333Y-104041009D02*
X112900000Y-104041009D01*
X112900000Y-104564819D02*
X112900000Y-103564819D01*
X112900000Y-103564819D02*
X113376190Y-103564819D01*
X113900000Y-103564819D02*
X113900000Y-103802914D01*
X113661905Y-103707676D02*
X113900000Y-103802914D01*
X113900000Y-103802914D02*
X114138095Y-103707676D01*
X113757143Y-103993390D02*
X113900000Y-103802914D01*
X113900000Y-103802914D02*
X114042857Y-103993390D01*
X114661905Y-103564819D02*
X114661905Y-103802914D01*
X114423810Y-103707676D02*
X114661905Y-103802914D01*
X114661905Y-103802914D02*
X114900000Y-103707676D01*
X114519048Y-103993390D02*
X114661905Y-103802914D01*
X114661905Y-103802914D02*
X114804762Y-103993390D01*
X86154819Y-47926666D02*
X86154819Y-48402856D01*
X86154819Y-48402856D02*
X85154819Y-48402856D01*
X86154819Y-47069523D02*
X86154819Y-47640951D01*
X86154819Y-47355237D02*
X85154819Y-47355237D01*
X85154819Y-47355237D02*
X85297676Y-47450475D01*
X85297676Y-47450475D02*
X85392914Y-47545713D01*
X85392914Y-47545713D02*
X85440533Y-47640951D01*
X100304819Y-47134404D02*
X101114342Y-47134404D01*
X101114342Y-47134404D02*
X101209580Y-47086785D01*
X101209580Y-47086785D02*
X101257200Y-47039166D01*
X101257200Y-47039166D02*
X101304819Y-46943928D01*
X101304819Y-46943928D02*
X101304819Y-46753452D01*
X101304819Y-46753452D02*
X101257200Y-46658214D01*
X101257200Y-46658214D02*
X101209580Y-46610595D01*
X101209580Y-46610595D02*
X101114342Y-46562976D01*
X101114342Y-46562976D02*
X100304819Y-46562976D01*
X100400057Y-46134404D02*
X100352438Y-46086785D01*
X100352438Y-46086785D02*
X100304819Y-45991547D01*
X100304819Y-45991547D02*
X100304819Y-45753452D01*
X100304819Y-45753452D02*
X100352438Y-45658214D01*
X100352438Y-45658214D02*
X100400057Y-45610595D01*
X100400057Y-45610595D02*
X100495295Y-45562976D01*
X100495295Y-45562976D02*
X100590533Y-45562976D01*
X100590533Y-45562976D02*
X100733390Y-45610595D01*
X100733390Y-45610595D02*
X101304819Y-46182023D01*
X101304819Y-46182023D02*
X101304819Y-45562976D01*
X79329580Y-22652857D02*
X79377200Y-22700476D01*
X79377200Y-22700476D02*
X79424819Y-22843333D01*
X79424819Y-22843333D02*
X79424819Y-22938571D01*
X79424819Y-22938571D02*
X79377200Y-23081428D01*
X79377200Y-23081428D02*
X79281961Y-23176666D01*
X79281961Y-23176666D02*
X79186723Y-23224285D01*
X79186723Y-23224285D02*
X78996247Y-23271904D01*
X78996247Y-23271904D02*
X78853390Y-23271904D01*
X78853390Y-23271904D02*
X78662914Y-23224285D01*
X78662914Y-23224285D02*
X78567676Y-23176666D01*
X78567676Y-23176666D02*
X78472438Y-23081428D01*
X78472438Y-23081428D02*
X78424819Y-22938571D01*
X78424819Y-22938571D02*
X78424819Y-22843333D01*
X78424819Y-22843333D02*
X78472438Y-22700476D01*
X78472438Y-22700476D02*
X78520057Y-22652857D01*
X79424819Y-21700476D02*
X79424819Y-22271904D01*
X79424819Y-21986190D02*
X78424819Y-21986190D01*
X78424819Y-21986190D02*
X78567676Y-22081428D01*
X78567676Y-22081428D02*
X78662914Y-22176666D01*
X78662914Y-22176666D02*
X78710533Y-22271904D01*
X78520057Y-21319523D02*
X78472438Y-21271904D01*
X78472438Y-21271904D02*
X78424819Y-21176666D01*
X78424819Y-21176666D02*
X78424819Y-20938571D01*
X78424819Y-20938571D02*
X78472438Y-20843333D01*
X78472438Y-20843333D02*
X78520057Y-20795714D01*
X78520057Y-20795714D02*
X78615295Y-20748095D01*
X78615295Y-20748095D02*
X78710533Y-20748095D01*
X78710533Y-20748095D02*
X78853390Y-20795714D01*
X78853390Y-20795714D02*
X79424819Y-21367142D01*
X79424819Y-21367142D02*
X79424819Y-20748095D01*
X74331819Y-29193333D02*
X75046104Y-29193333D01*
X75046104Y-29193333D02*
X75188961Y-29240952D01*
X75188961Y-29240952D02*
X75284200Y-29336190D01*
X75284200Y-29336190D02*
X75331819Y-29479047D01*
X75331819Y-29479047D02*
X75331819Y-29574285D01*
X74427057Y-28764761D02*
X74379438Y-28717142D01*
X74379438Y-28717142D02*
X74331819Y-28621904D01*
X74331819Y-28621904D02*
X74331819Y-28383809D01*
X74331819Y-28383809D02*
X74379438Y-28288571D01*
X74379438Y-28288571D02*
X74427057Y-28240952D01*
X74427057Y-28240952D02*
X74522295Y-28193333D01*
X74522295Y-28193333D02*
X74617533Y-28193333D01*
X74617533Y-28193333D02*
X74760390Y-28240952D01*
X74760390Y-28240952D02*
X75331819Y-28812380D01*
X75331819Y-28812380D02*
X75331819Y-28193333D01*
X81683333Y-55819580D02*
X81635714Y-55867200D01*
X81635714Y-55867200D02*
X81492857Y-55914819D01*
X81492857Y-55914819D02*
X81397619Y-55914819D01*
X81397619Y-55914819D02*
X81254762Y-55867200D01*
X81254762Y-55867200D02*
X81159524Y-55771961D01*
X81159524Y-55771961D02*
X81111905Y-55676723D01*
X81111905Y-55676723D02*
X81064286Y-55486247D01*
X81064286Y-55486247D02*
X81064286Y-55343390D01*
X81064286Y-55343390D02*
X81111905Y-55152914D01*
X81111905Y-55152914D02*
X81159524Y-55057676D01*
X81159524Y-55057676D02*
X81254762Y-54962438D01*
X81254762Y-54962438D02*
X81397619Y-54914819D01*
X81397619Y-54914819D02*
X81492857Y-54914819D01*
X81492857Y-54914819D02*
X81635714Y-54962438D01*
X81635714Y-54962438D02*
X81683333Y-55010057D01*
X82016667Y-54914819D02*
X82635714Y-54914819D01*
X82635714Y-54914819D02*
X82302381Y-55295771D01*
X82302381Y-55295771D02*
X82445238Y-55295771D01*
X82445238Y-55295771D02*
X82540476Y-55343390D01*
X82540476Y-55343390D02*
X82588095Y-55391009D01*
X82588095Y-55391009D02*
X82635714Y-55486247D01*
X82635714Y-55486247D02*
X82635714Y-55724342D01*
X82635714Y-55724342D02*
X82588095Y-55819580D01*
X82588095Y-55819580D02*
X82540476Y-55867200D01*
X82540476Y-55867200D02*
X82445238Y-55914819D01*
X82445238Y-55914819D02*
X82159524Y-55914819D01*
X82159524Y-55914819D02*
X82064286Y-55867200D01*
X82064286Y-55867200D02*
X82016667Y-55819580D01*
X111566666Y-19064819D02*
X111233333Y-18588628D01*
X110995238Y-19064819D02*
X110995238Y-18064819D01*
X110995238Y-18064819D02*
X111376190Y-18064819D01*
X111376190Y-18064819D02*
X111471428Y-18112438D01*
X111471428Y-18112438D02*
X111519047Y-18160057D01*
X111519047Y-18160057D02*
X111566666Y-18255295D01*
X111566666Y-18255295D02*
X111566666Y-18398152D01*
X111566666Y-18398152D02*
X111519047Y-18493390D01*
X111519047Y-18493390D02*
X111471428Y-18541009D01*
X111471428Y-18541009D02*
X111376190Y-18588628D01*
X111376190Y-18588628D02*
X110995238Y-18588628D01*
X111995238Y-18541009D02*
X112328571Y-18541009D01*
X112471428Y-19064819D02*
X111995238Y-19064819D01*
X111995238Y-19064819D02*
X111995238Y-18064819D01*
X111995238Y-18064819D02*
X112471428Y-18064819D01*
X113233333Y-18541009D02*
X112900000Y-18541009D01*
X112900000Y-19064819D02*
X112900000Y-18064819D01*
X112900000Y-18064819D02*
X113376190Y-18064819D01*
X113900000Y-18064819D02*
X113900000Y-18302914D01*
X113661905Y-18207676D02*
X113900000Y-18302914D01*
X113900000Y-18302914D02*
X114138095Y-18207676D01*
X113757143Y-18493390D02*
X113900000Y-18302914D01*
X113900000Y-18302914D02*
X114042857Y-18493390D01*
X114661905Y-18064819D02*
X114661905Y-18302914D01*
X114423810Y-18207676D02*
X114661905Y-18302914D01*
X114661905Y-18302914D02*
X114900000Y-18207676D01*
X114519048Y-18493390D02*
X114661905Y-18302914D01*
X114661905Y-18302914D02*
X114804762Y-18493390D01*
X55103819Y-19867666D02*
X54627628Y-20200999D01*
X55103819Y-20439094D02*
X54103819Y-20439094D01*
X54103819Y-20439094D02*
X54103819Y-20058142D01*
X54103819Y-20058142D02*
X54151438Y-19962904D01*
X54151438Y-19962904D02*
X54199057Y-19915285D01*
X54199057Y-19915285D02*
X54294295Y-19867666D01*
X54294295Y-19867666D02*
X54437152Y-19867666D01*
X54437152Y-19867666D02*
X54532390Y-19915285D01*
X54532390Y-19915285D02*
X54580009Y-19962904D01*
X54580009Y-19962904D02*
X54627628Y-20058142D01*
X54627628Y-20058142D02*
X54627628Y-20439094D01*
X54437152Y-19010523D02*
X55103819Y-19010523D01*
X54056200Y-19248618D02*
X54770485Y-19486713D01*
X54770485Y-19486713D02*
X54770485Y-18867666D01*
X21866666Y-21764819D02*
X21533333Y-21288628D01*
X21295238Y-21764819D02*
X21295238Y-20764819D01*
X21295238Y-20764819D02*
X21676190Y-20764819D01*
X21676190Y-20764819D02*
X21771428Y-20812438D01*
X21771428Y-20812438D02*
X21819047Y-20860057D01*
X21819047Y-20860057D02*
X21866666Y-20955295D01*
X21866666Y-20955295D02*
X21866666Y-21098152D01*
X21866666Y-21098152D02*
X21819047Y-21193390D01*
X21819047Y-21193390D02*
X21771428Y-21241009D01*
X21771428Y-21241009D02*
X21676190Y-21288628D01*
X21676190Y-21288628D02*
X21295238Y-21288628D01*
X22295238Y-21241009D02*
X22628571Y-21241009D01*
X22771428Y-21764819D02*
X22295238Y-21764819D01*
X22295238Y-21764819D02*
X22295238Y-20764819D01*
X22295238Y-20764819D02*
X22771428Y-20764819D01*
X23533333Y-21241009D02*
X23200000Y-21241009D01*
X23200000Y-21764819D02*
X23200000Y-20764819D01*
X23200000Y-20764819D02*
X23676190Y-20764819D01*
X24200000Y-20764819D02*
X24200000Y-21002914D01*
X23961905Y-20907676D02*
X24200000Y-21002914D01*
X24200000Y-21002914D02*
X24438095Y-20907676D01*
X24057143Y-21193390D02*
X24200000Y-21002914D01*
X24200000Y-21002914D02*
X24342857Y-21193390D01*
X24961905Y-20764819D02*
X24961905Y-21002914D01*
X24723810Y-20907676D02*
X24961905Y-21002914D01*
X24961905Y-21002914D02*
X25200000Y-20907676D01*
X24819048Y-21193390D02*
X24961905Y-21002914D01*
X24961905Y-21002914D02*
X25104762Y-21193390D01*
X82146667Y-56007200D02*
X82289524Y-56054819D01*
X82289524Y-56054819D02*
X82527619Y-56054819D01*
X82527619Y-56054819D02*
X82622857Y-56007200D01*
X82622857Y-56007200D02*
X82670476Y-55959580D01*
X82670476Y-55959580D02*
X82718095Y-55864342D01*
X82718095Y-55864342D02*
X82718095Y-55769104D01*
X82718095Y-55769104D02*
X82670476Y-55673866D01*
X82670476Y-55673866D02*
X82622857Y-55626247D01*
X82622857Y-55626247D02*
X82527619Y-55578628D01*
X82527619Y-55578628D02*
X82337143Y-55531009D01*
X82337143Y-55531009D02*
X82241905Y-55483390D01*
X82241905Y-55483390D02*
X82194286Y-55435771D01*
X82194286Y-55435771D02*
X82146667Y-55340533D01*
X82146667Y-55340533D02*
X82146667Y-55245295D01*
X82146667Y-55245295D02*
X82194286Y-55150057D01*
X82194286Y-55150057D02*
X82241905Y-55102438D01*
X82241905Y-55102438D02*
X82337143Y-55054819D01*
X82337143Y-55054819D02*
X82575238Y-55054819D01*
X82575238Y-55054819D02*
X82718095Y-55102438D01*
X83051429Y-55054819D02*
X83289524Y-56054819D01*
X83289524Y-56054819D02*
X83480000Y-55340533D01*
X83480000Y-55340533D02*
X83670476Y-56054819D01*
X83670476Y-56054819D02*
X83908572Y-55054819D01*
X84194286Y-55054819D02*
X84813333Y-55054819D01*
X84813333Y-55054819D02*
X84480000Y-55435771D01*
X84480000Y-55435771D02*
X84622857Y-55435771D01*
X84622857Y-55435771D02*
X84718095Y-55483390D01*
X84718095Y-55483390D02*
X84765714Y-55531009D01*
X84765714Y-55531009D02*
X84813333Y-55626247D01*
X84813333Y-55626247D02*
X84813333Y-55864342D01*
X84813333Y-55864342D02*
X84765714Y-55959580D01*
X84765714Y-55959580D02*
X84718095Y-56007200D01*
X84718095Y-56007200D02*
X84622857Y-56054819D01*
X84622857Y-56054819D02*
X84337143Y-56054819D01*
X84337143Y-56054819D02*
X84241905Y-56007200D01*
X84241905Y-56007200D02*
X84194286Y-55959580D01*
X57915667Y-23108200D02*
X58058524Y-23155819D01*
X58058524Y-23155819D02*
X58296619Y-23155819D01*
X58296619Y-23155819D02*
X58391857Y-23108200D01*
X58391857Y-23108200D02*
X58439476Y-23060580D01*
X58439476Y-23060580D02*
X58487095Y-22965342D01*
X58487095Y-22965342D02*
X58487095Y-22870104D01*
X58487095Y-22870104D02*
X58439476Y-22774866D01*
X58439476Y-22774866D02*
X58391857Y-22727247D01*
X58391857Y-22727247D02*
X58296619Y-22679628D01*
X58296619Y-22679628D02*
X58106143Y-22632009D01*
X58106143Y-22632009D02*
X58010905Y-22584390D01*
X58010905Y-22584390D02*
X57963286Y-22536771D01*
X57963286Y-22536771D02*
X57915667Y-22441533D01*
X57915667Y-22441533D02*
X57915667Y-22346295D01*
X57915667Y-22346295D02*
X57963286Y-22251057D01*
X57963286Y-22251057D02*
X58010905Y-22203438D01*
X58010905Y-22203438D02*
X58106143Y-22155819D01*
X58106143Y-22155819D02*
X58344238Y-22155819D01*
X58344238Y-22155819D02*
X58487095Y-22203438D01*
X58820429Y-22155819D02*
X59058524Y-23155819D01*
X59058524Y-23155819D02*
X59249000Y-22441533D01*
X59249000Y-22441533D02*
X59439476Y-23155819D01*
X59439476Y-23155819D02*
X59677572Y-22155819D01*
X60010905Y-22251057D02*
X60058524Y-22203438D01*
X60058524Y-22203438D02*
X60153762Y-22155819D01*
X60153762Y-22155819D02*
X60391857Y-22155819D01*
X60391857Y-22155819D02*
X60487095Y-22203438D01*
X60487095Y-22203438D02*
X60534714Y-22251057D01*
X60534714Y-22251057D02*
X60582333Y-22346295D01*
X60582333Y-22346295D02*
X60582333Y-22441533D01*
X60582333Y-22441533D02*
X60534714Y-22584390D01*
X60534714Y-22584390D02*
X59963286Y-23155819D01*
X59963286Y-23155819D02*
X60582333Y-23155819D01*
X48383333Y-52354819D02*
X48050000Y-51878628D01*
X47811905Y-52354819D02*
X47811905Y-51354819D01*
X47811905Y-51354819D02*
X48192857Y-51354819D01*
X48192857Y-51354819D02*
X48288095Y-51402438D01*
X48288095Y-51402438D02*
X48335714Y-51450057D01*
X48335714Y-51450057D02*
X48383333Y-51545295D01*
X48383333Y-51545295D02*
X48383333Y-51688152D01*
X48383333Y-51688152D02*
X48335714Y-51783390D01*
X48335714Y-51783390D02*
X48288095Y-51831009D01*
X48288095Y-51831009D02*
X48192857Y-51878628D01*
X48192857Y-51878628D02*
X47811905Y-51878628D01*
X48954762Y-51783390D02*
X48859524Y-51735771D01*
X48859524Y-51735771D02*
X48811905Y-51688152D01*
X48811905Y-51688152D02*
X48764286Y-51592914D01*
X48764286Y-51592914D02*
X48764286Y-51545295D01*
X48764286Y-51545295D02*
X48811905Y-51450057D01*
X48811905Y-51450057D02*
X48859524Y-51402438D01*
X48859524Y-51402438D02*
X48954762Y-51354819D01*
X48954762Y-51354819D02*
X49145238Y-51354819D01*
X49145238Y-51354819D02*
X49240476Y-51402438D01*
X49240476Y-51402438D02*
X49288095Y-51450057D01*
X49288095Y-51450057D02*
X49335714Y-51545295D01*
X49335714Y-51545295D02*
X49335714Y-51592914D01*
X49335714Y-51592914D02*
X49288095Y-51688152D01*
X49288095Y-51688152D02*
X49240476Y-51735771D01*
X49240476Y-51735771D02*
X49145238Y-51783390D01*
X49145238Y-51783390D02*
X48954762Y-51783390D01*
X48954762Y-51783390D02*
X48859524Y-51831009D01*
X48859524Y-51831009D02*
X48811905Y-51878628D01*
X48811905Y-51878628D02*
X48764286Y-51973866D01*
X48764286Y-51973866D02*
X48764286Y-52164342D01*
X48764286Y-52164342D02*
X48811905Y-52259580D01*
X48811905Y-52259580D02*
X48859524Y-52307200D01*
X48859524Y-52307200D02*
X48954762Y-52354819D01*
X48954762Y-52354819D02*
X49145238Y-52354819D01*
X49145238Y-52354819D02*
X49240476Y-52307200D01*
X49240476Y-52307200D02*
X49288095Y-52259580D01*
X49288095Y-52259580D02*
X49335714Y-52164342D01*
X49335714Y-52164342D02*
X49335714Y-51973866D01*
X49335714Y-51973866D02*
X49288095Y-51878628D01*
X49288095Y-51878628D02*
X49240476Y-51831009D01*
X49240476Y-51831009D02*
X49145238Y-51783390D01*
X28750057Y-58205238D02*
X28702438Y-58300476D01*
X28702438Y-58300476D02*
X28607200Y-58395714D01*
X28607200Y-58395714D02*
X28464342Y-58538571D01*
X28464342Y-58538571D02*
X28416723Y-58633809D01*
X28416723Y-58633809D02*
X28416723Y-58729047D01*
X28654819Y-58681428D02*
X28607200Y-58776666D01*
X28607200Y-58776666D02*
X28511961Y-58871904D01*
X28511961Y-58871904D02*
X28321485Y-58919523D01*
X28321485Y-58919523D02*
X27988152Y-58919523D01*
X27988152Y-58919523D02*
X27797676Y-58871904D01*
X27797676Y-58871904D02*
X27702438Y-58776666D01*
X27702438Y-58776666D02*
X27654819Y-58681428D01*
X27654819Y-58681428D02*
X27654819Y-58490952D01*
X27654819Y-58490952D02*
X27702438Y-58395714D01*
X27702438Y-58395714D02*
X27797676Y-58300476D01*
X27797676Y-58300476D02*
X27988152Y-58252857D01*
X27988152Y-58252857D02*
X28321485Y-58252857D01*
X28321485Y-58252857D02*
X28511961Y-58300476D01*
X28511961Y-58300476D02*
X28607200Y-58395714D01*
X28607200Y-58395714D02*
X28654819Y-58490952D01*
X28654819Y-58490952D02*
X28654819Y-58681428D01*
X27654819Y-57919523D02*
X27654819Y-57300476D01*
X27654819Y-57300476D02*
X28035771Y-57633809D01*
X28035771Y-57633809D02*
X28035771Y-57490952D01*
X28035771Y-57490952D02*
X28083390Y-57395714D01*
X28083390Y-57395714D02*
X28131009Y-57348095D01*
X28131009Y-57348095D02*
X28226247Y-57300476D01*
X28226247Y-57300476D02*
X28464342Y-57300476D01*
X28464342Y-57300476D02*
X28559580Y-57348095D01*
X28559580Y-57348095D02*
X28607200Y-57395714D01*
X28607200Y-57395714D02*
X28654819Y-57490952D01*
X28654819Y-57490952D02*
X28654819Y-57776666D01*
X28654819Y-57776666D02*
X28607200Y-57871904D01*
X28607200Y-57871904D02*
X28559580Y-57919523D01*
X45189580Y-64926666D02*
X45237200Y-64974285D01*
X45237200Y-64974285D02*
X45284819Y-65117142D01*
X45284819Y-65117142D02*
X45284819Y-65212380D01*
X45284819Y-65212380D02*
X45237200Y-65355237D01*
X45237200Y-65355237D02*
X45141961Y-65450475D01*
X45141961Y-65450475D02*
X45046723Y-65498094D01*
X45046723Y-65498094D02*
X44856247Y-65545713D01*
X44856247Y-65545713D02*
X44713390Y-65545713D01*
X44713390Y-65545713D02*
X44522914Y-65498094D01*
X44522914Y-65498094D02*
X44427676Y-65450475D01*
X44427676Y-65450475D02*
X44332438Y-65355237D01*
X44332438Y-65355237D02*
X44284819Y-65212380D01*
X44284819Y-65212380D02*
X44284819Y-65117142D01*
X44284819Y-65117142D02*
X44332438Y-64974285D01*
X44332438Y-64974285D02*
X44380057Y-64926666D01*
X44713390Y-64355237D02*
X44665771Y-64450475D01*
X44665771Y-64450475D02*
X44618152Y-64498094D01*
X44618152Y-64498094D02*
X44522914Y-64545713D01*
X44522914Y-64545713D02*
X44475295Y-64545713D01*
X44475295Y-64545713D02*
X44380057Y-64498094D01*
X44380057Y-64498094D02*
X44332438Y-64450475D01*
X44332438Y-64450475D02*
X44284819Y-64355237D01*
X44284819Y-64355237D02*
X44284819Y-64164761D01*
X44284819Y-64164761D02*
X44332438Y-64069523D01*
X44332438Y-64069523D02*
X44380057Y-64021904D01*
X44380057Y-64021904D02*
X44475295Y-63974285D01*
X44475295Y-63974285D02*
X44522914Y-63974285D01*
X44522914Y-63974285D02*
X44618152Y-64021904D01*
X44618152Y-64021904D02*
X44665771Y-64069523D01*
X44665771Y-64069523D02*
X44713390Y-64164761D01*
X44713390Y-64164761D02*
X44713390Y-64355237D01*
X44713390Y-64355237D02*
X44761009Y-64450475D01*
X44761009Y-64450475D02*
X44808628Y-64498094D01*
X44808628Y-64498094D02*
X44903866Y-64545713D01*
X44903866Y-64545713D02*
X45094342Y-64545713D01*
X45094342Y-64545713D02*
X45189580Y-64498094D01*
X45189580Y-64498094D02*
X45237200Y-64450475D01*
X45237200Y-64450475D02*
X45284819Y-64355237D01*
X45284819Y-64355237D02*
X45284819Y-64164761D01*
X45284819Y-64164761D02*
X45237200Y-64069523D01*
X45237200Y-64069523D02*
X45189580Y-64021904D01*
X45189580Y-64021904D02*
X45094342Y-63974285D01*
X45094342Y-63974285D02*
X44903866Y-63974285D01*
X44903866Y-63974285D02*
X44808628Y-64021904D01*
X44808628Y-64021904D02*
X44761009Y-64069523D01*
X44761009Y-64069523D02*
X44713390Y-64164761D01*
X64345833Y-57419580D02*
X64298214Y-57467200D01*
X64298214Y-57467200D02*
X64155357Y-57514819D01*
X64155357Y-57514819D02*
X64060119Y-57514819D01*
X64060119Y-57514819D02*
X63917262Y-57467200D01*
X63917262Y-57467200D02*
X63822024Y-57371961D01*
X63822024Y-57371961D02*
X63774405Y-57276723D01*
X63774405Y-57276723D02*
X63726786Y-57086247D01*
X63726786Y-57086247D02*
X63726786Y-56943390D01*
X63726786Y-56943390D02*
X63774405Y-56752914D01*
X63774405Y-56752914D02*
X63822024Y-56657676D01*
X63822024Y-56657676D02*
X63917262Y-56562438D01*
X63917262Y-56562438D02*
X64060119Y-56514819D01*
X64060119Y-56514819D02*
X64155357Y-56514819D01*
X64155357Y-56514819D02*
X64298214Y-56562438D01*
X64298214Y-56562438D02*
X64345833Y-56610057D01*
X64679167Y-56514819D02*
X65345833Y-56514819D01*
X65345833Y-56514819D02*
X64917262Y-57514819D01*
X35504819Y-82048094D02*
X34504819Y-82048094D01*
X35504819Y-81476666D02*
X34933390Y-81905237D01*
X34504819Y-81476666D02*
X35076247Y-82048094D01*
X35504819Y-80524285D02*
X35504819Y-81095713D01*
X35504819Y-80809999D02*
X34504819Y-80809999D01*
X34504819Y-80809999D02*
X34647676Y-80905237D01*
X34647676Y-80905237D02*
X34742914Y-81000475D01*
X34742914Y-81000475D02*
X34790533Y-81095713D01*
X85559580Y-105926666D02*
X85607200Y-105974285D01*
X85607200Y-105974285D02*
X85654819Y-106117142D01*
X85654819Y-106117142D02*
X85654819Y-106212380D01*
X85654819Y-106212380D02*
X85607200Y-106355237D01*
X85607200Y-106355237D02*
X85511961Y-106450475D01*
X85511961Y-106450475D02*
X85416723Y-106498094D01*
X85416723Y-106498094D02*
X85226247Y-106545713D01*
X85226247Y-106545713D02*
X85083390Y-106545713D01*
X85083390Y-106545713D02*
X84892914Y-106498094D01*
X84892914Y-106498094D02*
X84797676Y-106450475D01*
X84797676Y-106450475D02*
X84702438Y-106355237D01*
X84702438Y-106355237D02*
X84654819Y-106212380D01*
X84654819Y-106212380D02*
X84654819Y-106117142D01*
X84654819Y-106117142D02*
X84702438Y-105974285D01*
X84702438Y-105974285D02*
X84750057Y-105926666D01*
X85654819Y-105450475D02*
X85654819Y-105259999D01*
X85654819Y-105259999D02*
X85607200Y-105164761D01*
X85607200Y-105164761D02*
X85559580Y-105117142D01*
X85559580Y-105117142D02*
X85416723Y-105021904D01*
X85416723Y-105021904D02*
X85226247Y-104974285D01*
X85226247Y-104974285D02*
X84845295Y-104974285D01*
X84845295Y-104974285D02*
X84750057Y-105021904D01*
X84750057Y-105021904D02*
X84702438Y-105069523D01*
X84702438Y-105069523D02*
X84654819Y-105164761D01*
X84654819Y-105164761D02*
X84654819Y-105355237D01*
X84654819Y-105355237D02*
X84702438Y-105450475D01*
X84702438Y-105450475D02*
X84750057Y-105498094D01*
X84750057Y-105498094D02*
X84845295Y-105545713D01*
X84845295Y-105545713D02*
X85083390Y-105545713D01*
X85083390Y-105545713D02*
X85178628Y-105498094D01*
X85178628Y-105498094D02*
X85226247Y-105450475D01*
X85226247Y-105450475D02*
X85273866Y-105355237D01*
X85273866Y-105355237D02*
X85273866Y-105164761D01*
X85273866Y-105164761D02*
X85226247Y-105069523D01*
X85226247Y-105069523D02*
X85178628Y-105021904D01*
X85178628Y-105021904D02*
X85083390Y-104974285D01*
X54352095Y-49884819D02*
X54352095Y-48884819D01*
X54352095Y-49361009D02*
X54923523Y-49361009D01*
X54923523Y-49884819D02*
X54923523Y-48884819D01*
X55304476Y-48884819D02*
X55923523Y-48884819D01*
X55923523Y-48884819D02*
X55590190Y-49265771D01*
X55590190Y-49265771D02*
X55733047Y-49265771D01*
X55733047Y-49265771D02*
X55828285Y-49313390D01*
X55828285Y-49313390D02*
X55875904Y-49361009D01*
X55875904Y-49361009D02*
X55923523Y-49456247D01*
X55923523Y-49456247D02*
X55923523Y-49694342D01*
X55923523Y-49694342D02*
X55875904Y-49789580D01*
X55875904Y-49789580D02*
X55828285Y-49837200D01*
X55828285Y-49837200D02*
X55733047Y-49884819D01*
X55733047Y-49884819D02*
X55447333Y-49884819D01*
X55447333Y-49884819D02*
X55352095Y-49837200D01*
X55352095Y-49837200D02*
X55304476Y-49789580D01*
X76054761Y-101814819D02*
X75721428Y-101338628D01*
X75483333Y-101814819D02*
X75483333Y-100814819D01*
X75483333Y-100814819D02*
X75864285Y-100814819D01*
X75864285Y-100814819D02*
X75959523Y-100862438D01*
X75959523Y-100862438D02*
X76007142Y-100910057D01*
X76007142Y-100910057D02*
X76054761Y-101005295D01*
X76054761Y-101005295D02*
X76054761Y-101148152D01*
X76054761Y-101148152D02*
X76007142Y-101243390D01*
X76007142Y-101243390D02*
X75959523Y-101291009D01*
X75959523Y-101291009D02*
X75864285Y-101338628D01*
X75864285Y-101338628D02*
X75483333Y-101338628D01*
X76340476Y-100814819D02*
X76673809Y-101814819D01*
X76673809Y-101814819D02*
X77007142Y-100814819D01*
X77864285Y-101814819D02*
X77292857Y-101814819D01*
X77578571Y-101814819D02*
X77578571Y-100814819D01*
X77578571Y-100814819D02*
X77483333Y-100957676D01*
X77483333Y-100957676D02*
X77388095Y-101052914D01*
X77388095Y-101052914D02*
X77292857Y-101100533D01*
X81683333Y-49819580D02*
X81635714Y-49867200D01*
X81635714Y-49867200D02*
X81492857Y-49914819D01*
X81492857Y-49914819D02*
X81397619Y-49914819D01*
X81397619Y-49914819D02*
X81254762Y-49867200D01*
X81254762Y-49867200D02*
X81159524Y-49771961D01*
X81159524Y-49771961D02*
X81111905Y-49676723D01*
X81111905Y-49676723D02*
X81064286Y-49486247D01*
X81064286Y-49486247D02*
X81064286Y-49343390D01*
X81064286Y-49343390D02*
X81111905Y-49152914D01*
X81111905Y-49152914D02*
X81159524Y-49057676D01*
X81159524Y-49057676D02*
X81254762Y-48962438D01*
X81254762Y-48962438D02*
X81397619Y-48914819D01*
X81397619Y-48914819D02*
X81492857Y-48914819D01*
X81492857Y-48914819D02*
X81635714Y-48962438D01*
X81635714Y-48962438D02*
X81683333Y-49010057D01*
X82540476Y-49248152D02*
X82540476Y-49914819D01*
X82302381Y-48867200D02*
X82064286Y-49581485D01*
X82064286Y-49581485D02*
X82683333Y-49581485D01*
X88411905Y-91244819D02*
X88411905Y-90244819D01*
X88411905Y-90244819D02*
X88650000Y-90244819D01*
X88650000Y-90244819D02*
X88792857Y-90292438D01*
X88792857Y-90292438D02*
X88888095Y-90387676D01*
X88888095Y-90387676D02*
X88935714Y-90482914D01*
X88935714Y-90482914D02*
X88983333Y-90673390D01*
X88983333Y-90673390D02*
X88983333Y-90816247D01*
X88983333Y-90816247D02*
X88935714Y-91006723D01*
X88935714Y-91006723D02*
X88888095Y-91101961D01*
X88888095Y-91101961D02*
X88792857Y-91197200D01*
X88792857Y-91197200D02*
X88650000Y-91244819D01*
X88650000Y-91244819D02*
X88411905Y-91244819D01*
X89840476Y-90578152D02*
X89840476Y-91244819D01*
X89602381Y-90197200D02*
X89364286Y-90911485D01*
X89364286Y-90911485D02*
X89983333Y-90911485D01*
X83808095Y-91614819D02*
X83808095Y-90614819D01*
X84379523Y-91614819D02*
X83950952Y-91043390D01*
X84379523Y-90614819D02*
X83808095Y-91186247D01*
X101911009Y-28890952D02*
X101958628Y-28748095D01*
X101958628Y-28748095D02*
X102006247Y-28700476D01*
X102006247Y-28700476D02*
X102101485Y-28652857D01*
X102101485Y-28652857D02*
X102244342Y-28652857D01*
X102244342Y-28652857D02*
X102339580Y-28700476D01*
X102339580Y-28700476D02*
X102387200Y-28748095D01*
X102387200Y-28748095D02*
X102434819Y-28843333D01*
X102434819Y-28843333D02*
X102434819Y-29224285D01*
X102434819Y-29224285D02*
X101434819Y-29224285D01*
X101434819Y-29224285D02*
X101434819Y-28890952D01*
X101434819Y-28890952D02*
X101482438Y-28795714D01*
X101482438Y-28795714D02*
X101530057Y-28748095D01*
X101530057Y-28748095D02*
X101625295Y-28700476D01*
X101625295Y-28700476D02*
X101720533Y-28700476D01*
X101720533Y-28700476D02*
X101815771Y-28748095D01*
X101815771Y-28748095D02*
X101863390Y-28795714D01*
X101863390Y-28795714D02*
X101911009Y-28890952D01*
X101911009Y-28890952D02*
X101911009Y-29224285D01*
X101434819Y-28319523D02*
X101434819Y-27652857D01*
X101434819Y-27652857D02*
X102434819Y-28319523D01*
X102434819Y-28319523D02*
X102434819Y-27652857D01*
X102434819Y-26748095D02*
X102434819Y-27319523D01*
X102434819Y-27033809D02*
X101434819Y-27033809D01*
X101434819Y-27033809D02*
X101577676Y-27129047D01*
X101577676Y-27129047D02*
X101672914Y-27224285D01*
X101672914Y-27224285D02*
X101720533Y-27319523D01*
X97689580Y-46651666D02*
X97737200Y-46699285D01*
X97737200Y-46699285D02*
X97784819Y-46842142D01*
X97784819Y-46842142D02*
X97784819Y-46937380D01*
X97784819Y-46937380D02*
X97737200Y-47080237D01*
X97737200Y-47080237D02*
X97641961Y-47175475D01*
X97641961Y-47175475D02*
X97546723Y-47223094D01*
X97546723Y-47223094D02*
X97356247Y-47270713D01*
X97356247Y-47270713D02*
X97213390Y-47270713D01*
X97213390Y-47270713D02*
X97022914Y-47223094D01*
X97022914Y-47223094D02*
X96927676Y-47175475D01*
X96927676Y-47175475D02*
X96832438Y-47080237D01*
X96832438Y-47080237D02*
X96784819Y-46937380D01*
X96784819Y-46937380D02*
X96784819Y-46842142D01*
X96784819Y-46842142D02*
X96832438Y-46699285D01*
X96832438Y-46699285D02*
X96880057Y-46651666D01*
X96880057Y-46270713D02*
X96832438Y-46223094D01*
X96832438Y-46223094D02*
X96784819Y-46127856D01*
X96784819Y-46127856D02*
X96784819Y-45889761D01*
X96784819Y-45889761D02*
X96832438Y-45794523D01*
X96832438Y-45794523D02*
X96880057Y-45746904D01*
X96880057Y-45746904D02*
X96975295Y-45699285D01*
X96975295Y-45699285D02*
X97070533Y-45699285D01*
X97070533Y-45699285D02*
X97213390Y-45746904D01*
X97213390Y-45746904D02*
X97784819Y-46318332D01*
X97784819Y-46318332D02*
X97784819Y-45699285D01*
X61754819Y-82098094D02*
X60754819Y-82098094D01*
X61754819Y-81526666D02*
X61183390Y-81955237D01*
X60754819Y-81526666D02*
X61326247Y-82098094D01*
X60850057Y-81145713D02*
X60802438Y-81098094D01*
X60802438Y-81098094D02*
X60754819Y-81002856D01*
X60754819Y-81002856D02*
X60754819Y-80764761D01*
X60754819Y-80764761D02*
X60802438Y-80669523D01*
X60802438Y-80669523D02*
X60850057Y-80621904D01*
X60850057Y-80621904D02*
X60945295Y-80574285D01*
X60945295Y-80574285D02*
X61040533Y-80574285D01*
X61040533Y-80574285D02*
X61183390Y-80621904D01*
X61183390Y-80621904D02*
X61754819Y-81193332D01*
X61754819Y-81193332D02*
X61754819Y-80574285D01*
X85887142Y-101584819D02*
X85553809Y-101108628D01*
X85315714Y-101584819D02*
X85315714Y-100584819D01*
X85315714Y-100584819D02*
X85696666Y-100584819D01*
X85696666Y-100584819D02*
X85791904Y-100632438D01*
X85791904Y-100632438D02*
X85839523Y-100680057D01*
X85839523Y-100680057D02*
X85887142Y-100775295D01*
X85887142Y-100775295D02*
X85887142Y-100918152D01*
X85887142Y-100918152D02*
X85839523Y-101013390D01*
X85839523Y-101013390D02*
X85791904Y-101061009D01*
X85791904Y-101061009D02*
X85696666Y-101108628D01*
X85696666Y-101108628D02*
X85315714Y-101108628D01*
X86839523Y-101584819D02*
X86268095Y-101584819D01*
X86553809Y-101584819D02*
X86553809Y-100584819D01*
X86553809Y-100584819D02*
X86458571Y-100727676D01*
X86458571Y-100727676D02*
X86363333Y-100822914D01*
X86363333Y-100822914D02*
X86268095Y-100870533D01*
X87220476Y-100680057D02*
X87268095Y-100632438D01*
X87268095Y-100632438D02*
X87363333Y-100584819D01*
X87363333Y-100584819D02*
X87601428Y-100584819D01*
X87601428Y-100584819D02*
X87696666Y-100632438D01*
X87696666Y-100632438D02*
X87744285Y-100680057D01*
X87744285Y-100680057D02*
X87791904Y-100775295D01*
X87791904Y-100775295D02*
X87791904Y-100870533D01*
X87791904Y-100870533D02*
X87744285Y-101013390D01*
X87744285Y-101013390D02*
X87172857Y-101584819D01*
X87172857Y-101584819D02*
X87791904Y-101584819D01*
X59082333Y-21880580D02*
X59034714Y-21928200D01*
X59034714Y-21928200D02*
X58891857Y-21975819D01*
X58891857Y-21975819D02*
X58796619Y-21975819D01*
X58796619Y-21975819D02*
X58653762Y-21928200D01*
X58653762Y-21928200D02*
X58558524Y-21832961D01*
X58558524Y-21832961D02*
X58510905Y-21737723D01*
X58510905Y-21737723D02*
X58463286Y-21547247D01*
X58463286Y-21547247D02*
X58463286Y-21404390D01*
X58463286Y-21404390D02*
X58510905Y-21213914D01*
X58510905Y-21213914D02*
X58558524Y-21118676D01*
X58558524Y-21118676D02*
X58653762Y-21023438D01*
X58653762Y-21023438D02*
X58796619Y-20975819D01*
X58796619Y-20975819D02*
X58891857Y-20975819D01*
X58891857Y-20975819D02*
X59034714Y-21023438D01*
X59034714Y-21023438D02*
X59082333Y-21071057D01*
X59987095Y-20975819D02*
X59510905Y-20975819D01*
X59510905Y-20975819D02*
X59463286Y-21452009D01*
X59463286Y-21452009D02*
X59510905Y-21404390D01*
X59510905Y-21404390D02*
X59606143Y-21356771D01*
X59606143Y-21356771D02*
X59844238Y-21356771D01*
X59844238Y-21356771D02*
X59939476Y-21404390D01*
X59939476Y-21404390D02*
X59987095Y-21452009D01*
X59987095Y-21452009D02*
X60034714Y-21547247D01*
X60034714Y-21547247D02*
X60034714Y-21785342D01*
X60034714Y-21785342D02*
X59987095Y-21880580D01*
X59987095Y-21880580D02*
X59939476Y-21928200D01*
X59939476Y-21928200D02*
X59844238Y-21975819D01*
X59844238Y-21975819D02*
X59606143Y-21975819D01*
X59606143Y-21975819D02*
X59510905Y-21928200D01*
X59510905Y-21928200D02*
X59463286Y-21880580D01*
X38724819Y-83888094D02*
X37724819Y-83888094D01*
X37724819Y-83888094D02*
X37724819Y-83649999D01*
X37724819Y-83649999D02*
X37772438Y-83507142D01*
X37772438Y-83507142D02*
X37867676Y-83411904D01*
X37867676Y-83411904D02*
X37962914Y-83364285D01*
X37962914Y-83364285D02*
X38153390Y-83316666D01*
X38153390Y-83316666D02*
X38296247Y-83316666D01*
X38296247Y-83316666D02*
X38486723Y-83364285D01*
X38486723Y-83364285D02*
X38581961Y-83411904D01*
X38581961Y-83411904D02*
X38677200Y-83507142D01*
X38677200Y-83507142D02*
X38724819Y-83649999D01*
X38724819Y-83649999D02*
X38724819Y-83888094D01*
X37820057Y-82935713D02*
X37772438Y-82888094D01*
X37772438Y-82888094D02*
X37724819Y-82792856D01*
X37724819Y-82792856D02*
X37724819Y-82554761D01*
X37724819Y-82554761D02*
X37772438Y-82459523D01*
X37772438Y-82459523D02*
X37820057Y-82411904D01*
X37820057Y-82411904D02*
X37915295Y-82364285D01*
X37915295Y-82364285D02*
X38010533Y-82364285D01*
X38010533Y-82364285D02*
X38153390Y-82411904D01*
X38153390Y-82411904D02*
X38724819Y-82983332D01*
X38724819Y-82983332D02*
X38724819Y-82364285D01*
X38404819Y-79601904D02*
X37404819Y-79601904D01*
X38404819Y-79030476D02*
X37833390Y-79459047D01*
X37404819Y-79030476D02*
X37976247Y-79601904D01*
X18024819Y-98093333D02*
X18739104Y-98093333D01*
X18739104Y-98093333D02*
X18881961Y-98140952D01*
X18881961Y-98140952D02*
X18977200Y-98236190D01*
X18977200Y-98236190D02*
X19024819Y-98379047D01*
X19024819Y-98379047D02*
X19024819Y-98474285D01*
X18358152Y-97188571D02*
X19024819Y-97188571D01*
X17977200Y-97426666D02*
X18691485Y-97664761D01*
X18691485Y-97664761D02*
X18691485Y-97045714D01*
X25887142Y-69824819D02*
X25553809Y-69348628D01*
X25315714Y-69824819D02*
X25315714Y-68824819D01*
X25315714Y-68824819D02*
X25696666Y-68824819D01*
X25696666Y-68824819D02*
X25791904Y-68872438D01*
X25791904Y-68872438D02*
X25839523Y-68920057D01*
X25839523Y-68920057D02*
X25887142Y-69015295D01*
X25887142Y-69015295D02*
X25887142Y-69158152D01*
X25887142Y-69158152D02*
X25839523Y-69253390D01*
X25839523Y-69253390D02*
X25791904Y-69301009D01*
X25791904Y-69301009D02*
X25696666Y-69348628D01*
X25696666Y-69348628D02*
X25315714Y-69348628D01*
X26839523Y-69824819D02*
X26268095Y-69824819D01*
X26553809Y-69824819D02*
X26553809Y-68824819D01*
X26553809Y-68824819D02*
X26458571Y-68967676D01*
X26458571Y-68967676D02*
X26363333Y-69062914D01*
X26363333Y-69062914D02*
X26268095Y-69110533D01*
X27791904Y-69824819D02*
X27220476Y-69824819D01*
X27506190Y-69824819D02*
X27506190Y-68824819D01*
X27506190Y-68824819D02*
X27410952Y-68967676D01*
X27410952Y-68967676D02*
X27315714Y-69062914D01*
X27315714Y-69062914D02*
X27220476Y-69110533D01*
D10*
X116342580Y-81948095D02*
X115533057Y-81948095D01*
X115533057Y-81948095D02*
X115437819Y-81995714D01*
X115437819Y-81995714D02*
X115390200Y-82043333D01*
X115390200Y-82043333D02*
X115342580Y-82138571D01*
X115342580Y-82138571D02*
X115342580Y-82329047D01*
X115342580Y-82329047D02*
X115390200Y-82424285D01*
X115390200Y-82424285D02*
X115437819Y-82471904D01*
X115437819Y-82471904D02*
X115533057Y-82519523D01*
X115533057Y-82519523D02*
X116342580Y-82519523D01*
X116009247Y-83424285D02*
X115342580Y-83424285D01*
X116390200Y-83186190D02*
X115675914Y-82948095D01*
X115675914Y-82948095D02*
X115675914Y-83567142D01*
X106813295Y-75666265D02*
X106813295Y-76142455D01*
X106527580Y-75571027D02*
X107527580Y-75904360D01*
X107527580Y-75904360D02*
X106527580Y-76237693D01*
X107194247Y-76999598D02*
X106384723Y-76999598D01*
X106384723Y-76999598D02*
X106289485Y-76951979D01*
X106289485Y-76951979D02*
X106241866Y-76904360D01*
X106241866Y-76904360D02*
X106194247Y-76809122D01*
X106194247Y-76809122D02*
X106194247Y-76666265D01*
X106194247Y-76666265D02*
X106241866Y-76571027D01*
X106575200Y-76999598D02*
X106527580Y-76904360D01*
X106527580Y-76904360D02*
X106527580Y-76713884D01*
X106527580Y-76713884D02*
X106575200Y-76618646D01*
X106575200Y-76618646D02*
X106622819Y-76571027D01*
X106622819Y-76571027D02*
X106718057Y-76523408D01*
X106718057Y-76523408D02*
X107003771Y-76523408D01*
X107003771Y-76523408D02*
X107099009Y-76571027D01*
X107099009Y-76571027D02*
X107146628Y-76618646D01*
X107146628Y-76618646D02*
X107194247Y-76713884D01*
X107194247Y-76713884D02*
X107194247Y-76904360D01*
X107194247Y-76904360D02*
X107146628Y-76999598D01*
X107527580Y-77380551D02*
X107527580Y-78047217D01*
X107527580Y-78047217D02*
X106527580Y-77618646D01*
X107432342Y-78380551D02*
X107479961Y-78428170D01*
X107479961Y-78428170D02*
X107527580Y-78523408D01*
X107527580Y-78523408D02*
X107527580Y-78761503D01*
X107527580Y-78761503D02*
X107479961Y-78856741D01*
X107479961Y-78856741D02*
X107432342Y-78904360D01*
X107432342Y-78904360D02*
X107337104Y-78951979D01*
X107337104Y-78951979D02*
X107241866Y-78951979D01*
X107241866Y-78951979D02*
X107099009Y-78904360D01*
X107099009Y-78904360D02*
X106527580Y-78332932D01*
X106527580Y-78332932D02*
X106527580Y-78951979D01*
X107527580Y-79571027D02*
X107527580Y-79666265D01*
X107527580Y-79666265D02*
X107479961Y-79761503D01*
X107479961Y-79761503D02*
X107432342Y-79809122D01*
X107432342Y-79809122D02*
X107337104Y-79856741D01*
X107337104Y-79856741D02*
X107146628Y-79904360D01*
X107146628Y-79904360D02*
X106908533Y-79904360D01*
X106908533Y-79904360D02*
X106718057Y-79856741D01*
X106718057Y-79856741D02*
X106622819Y-79809122D01*
X106622819Y-79809122D02*
X106575200Y-79761503D01*
X106575200Y-79761503D02*
X106527580Y-79666265D01*
X106527580Y-79666265D02*
X106527580Y-79571027D01*
X106527580Y-79571027D02*
X106575200Y-79475789D01*
X106575200Y-79475789D02*
X106622819Y-79428170D01*
X106622819Y-79428170D02*
X106718057Y-79380551D01*
X106718057Y-79380551D02*
X106908533Y-79332932D01*
X106908533Y-79332932D02*
X107146628Y-79332932D01*
X107146628Y-79332932D02*
X107337104Y-79380551D01*
X107337104Y-79380551D02*
X107432342Y-79428170D01*
X107432342Y-79428170D02*
X107479961Y-79475789D01*
X107479961Y-79475789D02*
X107527580Y-79571027D01*
X107527580Y-80523408D02*
X107527580Y-80618646D01*
X107527580Y-80618646D02*
X107479961Y-80713884D01*
X107479961Y-80713884D02*
X107432342Y-80761503D01*
X107432342Y-80761503D02*
X107337104Y-80809122D01*
X107337104Y-80809122D02*
X107146628Y-80856741D01*
X107146628Y-80856741D02*
X106908533Y-80856741D01*
X106908533Y-80856741D02*
X106718057Y-80809122D01*
X106718057Y-80809122D02*
X106622819Y-80761503D01*
X106622819Y-80761503D02*
X106575200Y-80713884D01*
X106575200Y-80713884D02*
X106527580Y-80618646D01*
X106527580Y-80618646D02*
X106527580Y-80523408D01*
X106527580Y-80523408D02*
X106575200Y-80428170D01*
X106575200Y-80428170D02*
X106622819Y-80380551D01*
X106622819Y-80380551D02*
X106718057Y-80332932D01*
X106718057Y-80332932D02*
X106908533Y-80285313D01*
X106908533Y-80285313D02*
X107146628Y-80285313D01*
X107146628Y-80285313D02*
X107337104Y-80332932D01*
X107337104Y-80332932D02*
X107432342Y-80380551D01*
X107432342Y-80380551D02*
X107479961Y-80428170D01*
X107479961Y-80428170D02*
X107527580Y-80523408D01*
X100453884Y-103251466D02*
X101215789Y-103251466D01*
X101549122Y-102632419D02*
X101882455Y-103632419D01*
X101882455Y-103632419D02*
X102215788Y-102632419D01*
X102549122Y-103632419D02*
X102549122Y-102632419D01*
X102549122Y-102632419D02*
X102787217Y-102632419D01*
X102787217Y-102632419D02*
X102930074Y-102680038D01*
X102930074Y-102680038D02*
X103025312Y-102775276D01*
X103025312Y-102775276D02*
X103072931Y-102870514D01*
X103072931Y-102870514D02*
X103120550Y-103060990D01*
X103120550Y-103060990D02*
X103120550Y-103203847D01*
X103120550Y-103203847D02*
X103072931Y-103394323D01*
X103072931Y-103394323D02*
X103025312Y-103489561D01*
X103025312Y-103489561D02*
X102930074Y-103584800D01*
X102930074Y-103584800D02*
X102787217Y-103632419D01*
X102787217Y-103632419D02*
X102549122Y-103632419D01*
X104120550Y-103537180D02*
X104072931Y-103584800D01*
X104072931Y-103584800D02*
X103930074Y-103632419D01*
X103930074Y-103632419D02*
X103834836Y-103632419D01*
X103834836Y-103632419D02*
X103691979Y-103584800D01*
X103691979Y-103584800D02*
X103596741Y-103489561D01*
X103596741Y-103489561D02*
X103549122Y-103394323D01*
X103549122Y-103394323D02*
X103501503Y-103203847D01*
X103501503Y-103203847D02*
X103501503Y-103060990D01*
X103501503Y-103060990D02*
X103549122Y-102870514D01*
X103549122Y-102870514D02*
X103596741Y-102775276D01*
X103596741Y-102775276D02*
X103691979Y-102680038D01*
X103691979Y-102680038D02*
X103834836Y-102632419D01*
X103834836Y-102632419D02*
X103930074Y-102632419D01*
X103930074Y-102632419D02*
X104072931Y-102680038D01*
X104072931Y-102680038D02*
X104120550Y-102727657D01*
X100453884Y-108251466D02*
X101215789Y-108251466D01*
X100834836Y-108632419D02*
X100834836Y-107870514D01*
X101549122Y-107632419D02*
X101882455Y-108632419D01*
X101882455Y-108632419D02*
X102215788Y-107632419D01*
X102549122Y-108632419D02*
X102549122Y-107632419D01*
X102549122Y-107632419D02*
X102787217Y-107632419D01*
X102787217Y-107632419D02*
X102930074Y-107680038D01*
X102930074Y-107680038D02*
X103025312Y-107775276D01*
X103025312Y-107775276D02*
X103072931Y-107870514D01*
X103072931Y-107870514D02*
X103120550Y-108060990D01*
X103120550Y-108060990D02*
X103120550Y-108203847D01*
X103120550Y-108203847D02*
X103072931Y-108394323D01*
X103072931Y-108394323D02*
X103025312Y-108489561D01*
X103025312Y-108489561D02*
X102930074Y-108584800D01*
X102930074Y-108584800D02*
X102787217Y-108632419D01*
X102787217Y-108632419D02*
X102549122Y-108632419D01*
X104120550Y-108537180D02*
X104072931Y-108584800D01*
X104072931Y-108584800D02*
X103930074Y-108632419D01*
X103930074Y-108632419D02*
X103834836Y-108632419D01*
X103834836Y-108632419D02*
X103691979Y-108584800D01*
X103691979Y-108584800D02*
X103596741Y-108489561D01*
X103596741Y-108489561D02*
X103549122Y-108394323D01*
X103549122Y-108394323D02*
X103501503Y-108203847D01*
X103501503Y-108203847D02*
X103501503Y-108060990D01*
X103501503Y-108060990D02*
X103549122Y-107870514D01*
X103549122Y-107870514D02*
X103596741Y-107775276D01*
X103596741Y-107775276D02*
X103691979Y-107680038D01*
X103691979Y-107680038D02*
X103834836Y-107632419D01*
X103834836Y-107632419D02*
X103930074Y-107632419D01*
X103930074Y-107632419D02*
X104072931Y-107680038D01*
X104072931Y-107680038D02*
X104120550Y-107727657D01*
X104827580Y-62471027D02*
X103827580Y-62804360D01*
X103827580Y-62804360D02*
X104827580Y-63137693D01*
X103827580Y-63471027D02*
X104494247Y-63471027D01*
X104827580Y-63471027D02*
X104779961Y-63423408D01*
X104779961Y-63423408D02*
X104732342Y-63471027D01*
X104732342Y-63471027D02*
X104779961Y-63518646D01*
X104779961Y-63518646D02*
X104827580Y-63471027D01*
X104827580Y-63471027D02*
X104732342Y-63471027D01*
X104494247Y-63947217D02*
X103827580Y-63947217D01*
X104399009Y-63947217D02*
X104446628Y-63994836D01*
X104446628Y-63994836D02*
X104494247Y-64090074D01*
X104494247Y-64090074D02*
X104494247Y-64232931D01*
X104494247Y-64232931D02*
X104446628Y-64328169D01*
X104446628Y-64328169D02*
X104351390Y-64375788D01*
X104351390Y-64375788D02*
X103827580Y-64375788D01*
X104208533Y-64851979D02*
X104208533Y-65613884D01*
X101756265Y-105796704D02*
X102232455Y-105796704D01*
X101661027Y-106082419D02*
X101994360Y-105082419D01*
X101994360Y-105082419D02*
X102327693Y-106082419D01*
X102661027Y-106082419D02*
X102661027Y-105082419D01*
X102661027Y-105082419D02*
X102899122Y-105082419D01*
X102899122Y-105082419D02*
X103041979Y-105130038D01*
X103041979Y-105130038D02*
X103137217Y-105225276D01*
X103137217Y-105225276D02*
X103184836Y-105320514D01*
X103184836Y-105320514D02*
X103232455Y-105510990D01*
X103232455Y-105510990D02*
X103232455Y-105653847D01*
X103232455Y-105653847D02*
X103184836Y-105844323D01*
X103184836Y-105844323D02*
X103137217Y-105939561D01*
X103137217Y-105939561D02*
X103041979Y-106034800D01*
X103041979Y-106034800D02*
X102899122Y-106082419D01*
X102899122Y-106082419D02*
X102661027Y-106082419D01*
X103946741Y-105082419D02*
X103946741Y-105796704D01*
X103946741Y-105796704D02*
X103899122Y-105939561D01*
X103899122Y-105939561D02*
X103803884Y-106034800D01*
X103803884Y-106034800D02*
X103661027Y-106082419D01*
X103661027Y-106082419D02*
X103565789Y-106082419D01*
X104927580Y-57171027D02*
X103927580Y-57504360D01*
X103927580Y-57504360D02*
X104927580Y-57837693D01*
X103927580Y-58171027D02*
X104594247Y-58171027D01*
X104927580Y-58171027D02*
X104879961Y-58123408D01*
X104879961Y-58123408D02*
X104832342Y-58171027D01*
X104832342Y-58171027D02*
X104879961Y-58218646D01*
X104879961Y-58218646D02*
X104927580Y-58171027D01*
X104927580Y-58171027D02*
X104832342Y-58171027D01*
X104594247Y-58647217D02*
X103927580Y-58647217D01*
X104499009Y-58647217D02*
X104546628Y-58694836D01*
X104546628Y-58694836D02*
X104594247Y-58790074D01*
X104594247Y-58790074D02*
X104594247Y-58932931D01*
X104594247Y-58932931D02*
X104546628Y-59028169D01*
X104546628Y-59028169D02*
X104451390Y-59075788D01*
X104451390Y-59075788D02*
X103927580Y-59075788D01*
X104308533Y-59551979D02*
X104308533Y-60313884D01*
X103927580Y-59932931D02*
X104689485Y-59932931D01*
D11*
X54352095Y-26324819D02*
X54352095Y-25324819D01*
X54352095Y-25801009D02*
X54923523Y-25801009D01*
X54923523Y-26324819D02*
X54923523Y-25324819D01*
X55352095Y-25420057D02*
X55399714Y-25372438D01*
X55399714Y-25372438D02*
X55494952Y-25324819D01*
X55494952Y-25324819D02*
X55733047Y-25324819D01*
X55733047Y-25324819D02*
X55828285Y-25372438D01*
X55828285Y-25372438D02*
X55875904Y-25420057D01*
X55875904Y-25420057D02*
X55923523Y-25515295D01*
X55923523Y-25515295D02*
X55923523Y-25610533D01*
X55923523Y-25610533D02*
X55875904Y-25753390D01*
X55875904Y-25753390D02*
X55304476Y-26324819D01*
X55304476Y-26324819D02*
X55923523Y-26324819D01*
X24704819Y-36402857D02*
X24228628Y-36736190D01*
X24704819Y-36974285D02*
X23704819Y-36974285D01*
X23704819Y-36974285D02*
X23704819Y-36593333D01*
X23704819Y-36593333D02*
X23752438Y-36498095D01*
X23752438Y-36498095D02*
X23800057Y-36450476D01*
X23800057Y-36450476D02*
X23895295Y-36402857D01*
X23895295Y-36402857D02*
X24038152Y-36402857D01*
X24038152Y-36402857D02*
X24133390Y-36450476D01*
X24133390Y-36450476D02*
X24181009Y-36498095D01*
X24181009Y-36498095D02*
X24228628Y-36593333D01*
X24228628Y-36593333D02*
X24228628Y-36974285D01*
X24704819Y-35450476D02*
X24704819Y-36021904D01*
X24704819Y-35736190D02*
X23704819Y-35736190D01*
X23704819Y-35736190D02*
X23847676Y-35831428D01*
X23847676Y-35831428D02*
X23942914Y-35926666D01*
X23942914Y-35926666D02*
X23990533Y-36021904D01*
X23704819Y-35117142D02*
X23704819Y-34498095D01*
X23704819Y-34498095D02*
X24085771Y-34831428D01*
X24085771Y-34831428D02*
X24085771Y-34688571D01*
X24085771Y-34688571D02*
X24133390Y-34593333D01*
X24133390Y-34593333D02*
X24181009Y-34545714D01*
X24181009Y-34545714D02*
X24276247Y-34498095D01*
X24276247Y-34498095D02*
X24514342Y-34498095D01*
X24514342Y-34498095D02*
X24609580Y-34545714D01*
X24609580Y-34545714D02*
X24657200Y-34593333D01*
X24657200Y-34593333D02*
X24704819Y-34688571D01*
X24704819Y-34688571D02*
X24704819Y-34974285D01*
X24704819Y-34974285D02*
X24657200Y-35069523D01*
X24657200Y-35069523D02*
X24609580Y-35117142D01*
X28566666Y-19564819D02*
X28233333Y-19088628D01*
X27995238Y-19564819D02*
X27995238Y-18564819D01*
X27995238Y-18564819D02*
X28376190Y-18564819D01*
X28376190Y-18564819D02*
X28471428Y-18612438D01*
X28471428Y-18612438D02*
X28519047Y-18660057D01*
X28519047Y-18660057D02*
X28566666Y-18755295D01*
X28566666Y-18755295D02*
X28566666Y-18898152D01*
X28566666Y-18898152D02*
X28519047Y-18993390D01*
X28519047Y-18993390D02*
X28471428Y-19041009D01*
X28471428Y-19041009D02*
X28376190Y-19088628D01*
X28376190Y-19088628D02*
X27995238Y-19088628D01*
X28995238Y-19041009D02*
X29328571Y-19041009D01*
X29471428Y-19564819D02*
X28995238Y-19564819D01*
X28995238Y-19564819D02*
X28995238Y-18564819D01*
X28995238Y-18564819D02*
X29471428Y-18564819D01*
X30233333Y-19041009D02*
X29900000Y-19041009D01*
X29900000Y-19564819D02*
X29900000Y-18564819D01*
X29900000Y-18564819D02*
X30376190Y-18564819D01*
X30900000Y-18564819D02*
X30900000Y-18802914D01*
X30661905Y-18707676D02*
X30900000Y-18802914D01*
X30900000Y-18802914D02*
X31138095Y-18707676D01*
X30757143Y-18993390D02*
X30900000Y-18802914D01*
X30900000Y-18802914D02*
X31042857Y-18993390D01*
X31661905Y-18564819D02*
X31661905Y-18802914D01*
X31423810Y-18707676D02*
X31661905Y-18802914D01*
X31661905Y-18802914D02*
X31900000Y-18707676D01*
X31519048Y-18993390D02*
X31661905Y-18802914D01*
X31661905Y-18802914D02*
X31804762Y-18993390D01*
X41916666Y-23234819D02*
X41916666Y-23949104D01*
X41916666Y-23949104D02*
X41869047Y-24091961D01*
X41869047Y-24091961D02*
X41773809Y-24187200D01*
X41773809Y-24187200D02*
X41630952Y-24234819D01*
X41630952Y-24234819D02*
X41535714Y-24234819D01*
X42297619Y-23234819D02*
X42916666Y-23234819D01*
X42916666Y-23234819D02*
X42583333Y-23615771D01*
X42583333Y-23615771D02*
X42726190Y-23615771D01*
X42726190Y-23615771D02*
X42821428Y-23663390D01*
X42821428Y-23663390D02*
X42869047Y-23711009D01*
X42869047Y-23711009D02*
X42916666Y-23806247D01*
X42916666Y-23806247D02*
X42916666Y-24044342D01*
X42916666Y-24044342D02*
X42869047Y-24139580D01*
X42869047Y-24139580D02*
X42821428Y-24187200D01*
X42821428Y-24187200D02*
X42726190Y-24234819D01*
X42726190Y-24234819D02*
X42440476Y-24234819D01*
X42440476Y-24234819D02*
X42345238Y-24187200D01*
X42345238Y-24187200D02*
X42297619Y-24139580D01*
X26704819Y-54302857D02*
X26228628Y-54636190D01*
X26704819Y-54874285D02*
X25704819Y-54874285D01*
X25704819Y-54874285D02*
X25704819Y-54493333D01*
X25704819Y-54493333D02*
X25752438Y-54398095D01*
X25752438Y-54398095D02*
X25800057Y-54350476D01*
X25800057Y-54350476D02*
X25895295Y-54302857D01*
X25895295Y-54302857D02*
X26038152Y-54302857D01*
X26038152Y-54302857D02*
X26133390Y-54350476D01*
X26133390Y-54350476D02*
X26181009Y-54398095D01*
X26181009Y-54398095D02*
X26228628Y-54493333D01*
X26228628Y-54493333D02*
X26228628Y-54874285D01*
X26704819Y-53350476D02*
X26704819Y-53921904D01*
X26704819Y-53636190D02*
X25704819Y-53636190D01*
X25704819Y-53636190D02*
X25847676Y-53731428D01*
X25847676Y-53731428D02*
X25942914Y-53826666D01*
X25942914Y-53826666D02*
X25990533Y-53921904D01*
X25704819Y-52731428D02*
X25704819Y-52636190D01*
X25704819Y-52636190D02*
X25752438Y-52540952D01*
X25752438Y-52540952D02*
X25800057Y-52493333D01*
X25800057Y-52493333D02*
X25895295Y-52445714D01*
X25895295Y-52445714D02*
X26085771Y-52398095D01*
X26085771Y-52398095D02*
X26323866Y-52398095D01*
X26323866Y-52398095D02*
X26514342Y-52445714D01*
X26514342Y-52445714D02*
X26609580Y-52493333D01*
X26609580Y-52493333D02*
X26657200Y-52540952D01*
X26657200Y-52540952D02*
X26704819Y-52636190D01*
X26704819Y-52636190D02*
X26704819Y-52731428D01*
X26704819Y-52731428D02*
X26657200Y-52826666D01*
X26657200Y-52826666D02*
X26609580Y-52874285D01*
X26609580Y-52874285D02*
X26514342Y-52921904D01*
X26514342Y-52921904D02*
X26323866Y-52969523D01*
X26323866Y-52969523D02*
X26085771Y-52969523D01*
X26085771Y-52969523D02*
X25895295Y-52921904D01*
X25895295Y-52921904D02*
X25800057Y-52874285D01*
X25800057Y-52874285D02*
X25752438Y-52826666D01*
X25752438Y-52826666D02*
X25704819Y-52731428D01*
X64974819Y-83998094D02*
X63974819Y-83998094D01*
X63974819Y-83998094D02*
X63974819Y-83759999D01*
X63974819Y-83759999D02*
X64022438Y-83617142D01*
X64022438Y-83617142D02*
X64117676Y-83521904D01*
X64117676Y-83521904D02*
X64212914Y-83474285D01*
X64212914Y-83474285D02*
X64403390Y-83426666D01*
X64403390Y-83426666D02*
X64546247Y-83426666D01*
X64546247Y-83426666D02*
X64736723Y-83474285D01*
X64736723Y-83474285D02*
X64831961Y-83521904D01*
X64831961Y-83521904D02*
X64927200Y-83617142D01*
X64927200Y-83617142D02*
X64974819Y-83759999D01*
X64974819Y-83759999D02*
X64974819Y-83998094D01*
X63974819Y-83093332D02*
X63974819Y-82474285D01*
X63974819Y-82474285D02*
X64355771Y-82807618D01*
X64355771Y-82807618D02*
X64355771Y-82664761D01*
X64355771Y-82664761D02*
X64403390Y-82569523D01*
X64403390Y-82569523D02*
X64451009Y-82521904D01*
X64451009Y-82521904D02*
X64546247Y-82474285D01*
X64546247Y-82474285D02*
X64784342Y-82474285D01*
X64784342Y-82474285D02*
X64879580Y-82521904D01*
X64879580Y-82521904D02*
X64927200Y-82569523D01*
X64927200Y-82569523D02*
X64974819Y-82664761D01*
X64974819Y-82664761D02*
X64974819Y-82950475D01*
X64974819Y-82950475D02*
X64927200Y-83045713D01*
X64927200Y-83045713D02*
X64879580Y-83093332D01*
X64654819Y-79711904D02*
X63654819Y-79711904D01*
X64654819Y-79140476D02*
X64083390Y-79569047D01*
X63654819Y-79140476D02*
X64226247Y-79711904D01*
X109526667Y-41207200D02*
X109669524Y-41254819D01*
X109669524Y-41254819D02*
X109907619Y-41254819D01*
X109907619Y-41254819D02*
X110002857Y-41207200D01*
X110002857Y-41207200D02*
X110050476Y-41159580D01*
X110050476Y-41159580D02*
X110098095Y-41064342D01*
X110098095Y-41064342D02*
X110098095Y-40969104D01*
X110098095Y-40969104D02*
X110050476Y-40873866D01*
X110050476Y-40873866D02*
X110002857Y-40826247D01*
X110002857Y-40826247D02*
X109907619Y-40778628D01*
X109907619Y-40778628D02*
X109717143Y-40731009D01*
X109717143Y-40731009D02*
X109621905Y-40683390D01*
X109621905Y-40683390D02*
X109574286Y-40635771D01*
X109574286Y-40635771D02*
X109526667Y-40540533D01*
X109526667Y-40540533D02*
X109526667Y-40445295D01*
X109526667Y-40445295D02*
X109574286Y-40350057D01*
X109574286Y-40350057D02*
X109621905Y-40302438D01*
X109621905Y-40302438D02*
X109717143Y-40254819D01*
X109717143Y-40254819D02*
X109955238Y-40254819D01*
X109955238Y-40254819D02*
X110098095Y-40302438D01*
X110431429Y-40254819D02*
X110669524Y-41254819D01*
X110669524Y-41254819D02*
X110860000Y-40540533D01*
X110860000Y-40540533D02*
X111050476Y-41254819D01*
X111050476Y-41254819D02*
X111288572Y-40254819D01*
X112193333Y-41254819D02*
X111621905Y-41254819D01*
X111907619Y-41254819D02*
X111907619Y-40254819D01*
X111907619Y-40254819D02*
X111812381Y-40397676D01*
X111812381Y-40397676D02*
X111717143Y-40492914D01*
X111717143Y-40492914D02*
X111621905Y-40540533D01*
X32078095Y-38584819D02*
X32078095Y-39394342D01*
X32078095Y-39394342D02*
X32125714Y-39489580D01*
X32125714Y-39489580D02*
X32173333Y-39537200D01*
X32173333Y-39537200D02*
X32268571Y-39584819D01*
X32268571Y-39584819D02*
X32459047Y-39584819D01*
X32459047Y-39584819D02*
X32554285Y-39537200D01*
X32554285Y-39537200D02*
X32601904Y-39489580D01*
X32601904Y-39489580D02*
X32649523Y-39394342D01*
X32649523Y-39394342D02*
X32649523Y-38584819D01*
X33554285Y-38584819D02*
X33363809Y-38584819D01*
X33363809Y-38584819D02*
X33268571Y-38632438D01*
X33268571Y-38632438D02*
X33220952Y-38680057D01*
X33220952Y-38680057D02*
X33125714Y-38822914D01*
X33125714Y-38822914D02*
X33078095Y-39013390D01*
X33078095Y-39013390D02*
X33078095Y-39394342D01*
X33078095Y-39394342D02*
X33125714Y-39489580D01*
X33125714Y-39489580D02*
X33173333Y-39537200D01*
X33173333Y-39537200D02*
X33268571Y-39584819D01*
X33268571Y-39584819D02*
X33459047Y-39584819D01*
X33459047Y-39584819D02*
X33554285Y-39537200D01*
X33554285Y-39537200D02*
X33601904Y-39489580D01*
X33601904Y-39489580D02*
X33649523Y-39394342D01*
X33649523Y-39394342D02*
X33649523Y-39156247D01*
X33649523Y-39156247D02*
X33601904Y-39061009D01*
X33601904Y-39061009D02*
X33554285Y-39013390D01*
X33554285Y-39013390D02*
X33459047Y-38965771D01*
X33459047Y-38965771D02*
X33268571Y-38965771D01*
X33268571Y-38965771D02*
X33173333Y-39013390D01*
X33173333Y-39013390D02*
X33125714Y-39061009D01*
X33125714Y-39061009D02*
X33078095Y-39156247D01*
X48383333Y-49304819D02*
X48050000Y-48828628D01*
X47811905Y-49304819D02*
X47811905Y-48304819D01*
X47811905Y-48304819D02*
X48192857Y-48304819D01*
X48192857Y-48304819D02*
X48288095Y-48352438D01*
X48288095Y-48352438D02*
X48335714Y-48400057D01*
X48335714Y-48400057D02*
X48383333Y-48495295D01*
X48383333Y-48495295D02*
X48383333Y-48638152D01*
X48383333Y-48638152D02*
X48335714Y-48733390D01*
X48335714Y-48733390D02*
X48288095Y-48781009D01*
X48288095Y-48781009D02*
X48192857Y-48828628D01*
X48192857Y-48828628D02*
X47811905Y-48828628D01*
X48859524Y-49304819D02*
X49050000Y-49304819D01*
X49050000Y-49304819D02*
X49145238Y-49257200D01*
X49145238Y-49257200D02*
X49192857Y-49209580D01*
X49192857Y-49209580D02*
X49288095Y-49066723D01*
X49288095Y-49066723D02*
X49335714Y-48876247D01*
X49335714Y-48876247D02*
X49335714Y-48495295D01*
X49335714Y-48495295D02*
X49288095Y-48400057D01*
X49288095Y-48400057D02*
X49240476Y-48352438D01*
X49240476Y-48352438D02*
X49145238Y-48304819D01*
X49145238Y-48304819D02*
X48954762Y-48304819D01*
X48954762Y-48304819D02*
X48859524Y-48352438D01*
X48859524Y-48352438D02*
X48811905Y-48400057D01*
X48811905Y-48400057D02*
X48764286Y-48495295D01*
X48764286Y-48495295D02*
X48764286Y-48733390D01*
X48764286Y-48733390D02*
X48811905Y-48828628D01*
X48811905Y-48828628D02*
X48859524Y-48876247D01*
X48859524Y-48876247D02*
X48954762Y-48923866D01*
X48954762Y-48923866D02*
X49145238Y-48923866D01*
X49145238Y-48923866D02*
X49240476Y-48876247D01*
X49240476Y-48876247D02*
X49288095Y-48828628D01*
X49288095Y-48828628D02*
X49335714Y-48733390D01*
D12*
%TO.C,R1*%
X79227064Y-34525000D02*
X78772936Y-34525000D01*
X79227064Y-35995000D02*
X78772936Y-35995000D01*
%TO.C,D1*%
X81500000Y-109270000D02*
X81500000Y-103760000D01*
X81500000Y-109270000D02*
X84800000Y-109270000D01*
X84800000Y-109270000D02*
X84800000Y-103760000D01*
%TO.C,R7*%
X42415000Y-60532936D02*
X42415000Y-60987064D01*
X43885000Y-60532936D02*
X43885000Y-60987064D01*
%TO.C,C1*%
X99911252Y-49500000D02*
X99388748Y-49500000D01*
X99911252Y-50970000D02*
X99388748Y-50970000D01*
%TO.C,SW5*%
X45790000Y-57400000D02*
X45790000Y-59910000D01*
X45790000Y-57400000D02*
X58010000Y-57400000D01*
X45790000Y-62210000D02*
X45790000Y-64810000D01*
X45790000Y-67110000D02*
X45790000Y-69620000D01*
X58010000Y-57400000D02*
X58010000Y-59910000D01*
X58010000Y-62210000D02*
X58010000Y-64810000D01*
X58010000Y-67110000D02*
X58010000Y-69620000D01*
X58010000Y-69620000D02*
X45790000Y-69620000D01*
X55450000Y-63510000D02*
G75*
G02*
X48350000Y-63510000I-3550000J0D01*
G01*
X48350000Y-63510000D02*
G75*
G02*
X55450000Y-63510000I3550000J0D01*
G01*
%TO.C,J5*%
X45970000Y-92210000D02*
X45970000Y-93410000D01*
X45970000Y-94610000D02*
X45970000Y-103510000D01*
X45970000Y-104810000D02*
X45970000Y-111410000D01*
X45970000Y-111410000D02*
X58170000Y-111410000D01*
X58170000Y-92210000D02*
X45970000Y-92210000D01*
X58170000Y-93410000D02*
X58170000Y-92210000D01*
X58170000Y-103510000D02*
X58170000Y-94610000D01*
X58170000Y-111410000D02*
X58170000Y-104810000D01*
%TO.C,U5*%
X19665000Y-41120000D02*
X19665000Y-51400000D01*
X19665000Y-51400000D02*
X21900000Y-51400000D01*
X23900000Y-51400000D02*
X26135000Y-51400000D01*
X26135000Y-41120000D02*
X19665000Y-41120000D01*
X26135000Y-51400000D02*
X26135000Y-41120000D01*
X21900000Y-51400000D02*
G75*
G02*
X23900000Y-51400000I1000000J0D01*
G01*
%TO.C,50mA1*%
X67502064Y-108600000D02*
X66297936Y-108600000D01*
X67502064Y-110420000D02*
X66297936Y-110420000D01*
%TO.C,Q1*%
X45640000Y-49660000D02*
X42040000Y-49660000D01*
X43840000Y-54110000D02*
G75*
G02*
X42001522Y-49671522I0J2600000D01*
G01*
X45678478Y-49671522D02*
G75*
G02*
X43840000Y-54110001I-1838478J-1838478D01*
G01*
%TO.C,R14*%
X29877064Y-39025000D02*
X29422936Y-39025000D01*
X29877064Y-40495000D02*
X29422936Y-40495000D01*
%TO.C,R5*%
X91915000Y-59282936D02*
X91915000Y-59737064D01*
X93385000Y-59282936D02*
X93385000Y-59737064D01*
%TO.C,J1*%
X102150000Y-51300000D02*
X102150000Y-43200000D01*
X102150000Y-51300000D02*
X105150000Y-51300000D01*
X105150000Y-43200000D02*
X102150000Y-43200000D01*
X105150000Y-43200000D02*
X105150000Y-51300000D01*
%TO.C,C6*%
X91915000Y-63498748D02*
X91915000Y-64021252D01*
X93385000Y-63498748D02*
X93385000Y-64021252D01*
%TO.C,C11*%
X29390000Y-41750000D02*
X31090000Y-41750000D01*
X29390000Y-46205563D02*
X29390000Y-41750000D01*
X30454437Y-47270000D02*
X29390000Y-46205563D01*
X30454437Y-47270000D02*
X31090000Y-47270000D01*
X33845563Y-47270000D02*
X33210000Y-47270000D01*
X33845563Y-47270000D02*
X34910000Y-46205563D01*
X34910000Y-41750000D02*
X33210000Y-41750000D01*
X34910000Y-46205563D02*
X34910000Y-41750000D01*
%TO.C,C10*%
X84900000Y-84500000D02*
X85900000Y-84500000D01*
X85400000Y-84000000D02*
X85400000Y-85000000D01*
X86140000Y-83814437D02*
X86140000Y-85500000D01*
X86140000Y-83814437D02*
X87204437Y-82750000D01*
X86140000Y-90205563D02*
X86140000Y-88520000D01*
X86140000Y-90205563D02*
X87204437Y-91270000D01*
X87204437Y-82750000D02*
X94660000Y-82750000D01*
X87204437Y-91270000D02*
X94660000Y-91270000D01*
X94660000Y-82750000D02*
X94660000Y-85500000D01*
X94660000Y-91270000D02*
X94660000Y-88520000D01*
%TO.C,R6*%
X71877064Y-54525000D02*
X71422936Y-54525000D01*
X71877064Y-55995000D02*
X71422936Y-55995000D01*
%TO.C,Q2*%
X45680000Y-44160000D02*
X42080000Y-44160000D01*
X43880000Y-48610000D02*
G75*
G02*
X42041522Y-44171522I0J2600000D01*
G01*
X45718478Y-44171522D02*
G75*
G02*
X43880000Y-48610001I-1838478J-1838478D01*
G01*
%TO.C,SW4*%
X61790000Y-57400000D02*
X61790000Y-59910000D01*
X61790000Y-57400000D02*
X74010000Y-57400000D01*
X61790000Y-62210000D02*
X61790000Y-64810000D01*
X61790000Y-67110000D02*
X61790000Y-69620000D01*
X74010000Y-57400000D02*
X74010000Y-59910000D01*
X74010000Y-62210000D02*
X74010000Y-64810000D01*
X74010000Y-67110000D02*
X74010000Y-69620000D01*
X74010000Y-69620000D02*
X61790000Y-69620000D01*
X71450000Y-63510000D02*
G75*
G02*
X64350000Y-63510000I-3550000J0D01*
G01*
X64350000Y-63510000D02*
G75*
G02*
X71450000Y-63510000I3550000J0D01*
G01*
%TO.C,L1*%
X86450000Y-44060000D02*
X88750000Y-44060000D01*
X86450000Y-51460000D02*
X86450000Y-44060000D01*
X88750000Y-51460000D02*
X86450000Y-51460000D01*
X91550000Y-44060000D02*
X93850000Y-44060000D01*
X93850000Y-44060000D02*
X93850000Y-51460000D01*
X93850000Y-51460000D02*
X91550000Y-51460000D01*
%TO.C,U2*%
X96890000Y-45462500D02*
X96940000Y-45462500D01*
X96890000Y-47282500D02*
X96890000Y-45462500D01*
X96940000Y-47282500D02*
X96890000Y-47282500D01*
X99960000Y-45462500D02*
X100010000Y-45462500D01*
X100010000Y-45462500D02*
X100010000Y-47282500D01*
X100010000Y-47282500D02*
X99960000Y-47282500D01*
X100290000Y-45162500D02*
X99960000Y-44922500D01*
X100290000Y-44682500D01*
X100290000Y-45162500D01*
G36*
X100290000Y-45162500D02*
G01*
X99960000Y-44922500D01*
X100290000Y-44682500D01*
X100290000Y-45162500D01*
G37*
%TO.C,C12*%
X79915000Y-22271252D02*
X79915000Y-21748748D01*
X81385000Y-22271252D02*
X81385000Y-21748748D01*
%TO.C,J2*%
X63497000Y-27480000D02*
X63497000Y-30240000D01*
X71227000Y-27480000D02*
X63497000Y-27480000D01*
X71227000Y-27480000D02*
X71227000Y-30240000D01*
X71227000Y-30240000D02*
X63497000Y-30240000D01*
X72497000Y-27480000D02*
X73877000Y-27480000D01*
X73877000Y-27480000D02*
X73877000Y-28860000D01*
%TO.C,C3*%
X79090000Y-49000000D02*
X79090000Y-50700000D01*
X79090000Y-54520000D02*
X79090000Y-52820000D01*
X83545563Y-49000000D02*
X79090000Y-49000000D01*
X83545563Y-54520000D02*
X79090000Y-54520000D01*
X84610000Y-50064437D02*
X83545563Y-49000000D01*
X84610000Y-50064437D02*
X84610000Y-50700000D01*
X84610000Y-53455563D02*
X83545563Y-54520000D01*
X84610000Y-53455563D02*
X84610000Y-52820000D01*
X85162500Y-53757500D02*
X85162500Y-53132500D01*
X85475000Y-53445000D02*
X84850000Y-53445000D01*
%TO.C,R4*%
X52264000Y-19473936D02*
X52264000Y-19928064D01*
X53734000Y-19473936D02*
X53734000Y-19928064D01*
%TO.C,SW3*%
X77790000Y-57400000D02*
X77790000Y-59910000D01*
X77790000Y-57400000D02*
X90010000Y-57400000D01*
X77790000Y-62210000D02*
X77790000Y-64810000D01*
X77790000Y-67110000D02*
X77790000Y-69620000D01*
X90010000Y-57400000D02*
X90010000Y-59910000D01*
X90010000Y-62210000D02*
X90010000Y-64810000D01*
X90010000Y-67110000D02*
X90010000Y-69620000D01*
X90010000Y-69620000D02*
X77790000Y-69620000D01*
X87450000Y-63510000D02*
G75*
G02*
X80350000Y-63510000I-3550000J0D01*
G01*
X80350000Y-63510000D02*
G75*
G02*
X87450000Y-63510000I3550000J0D01*
G01*
%TO.C,SW2*%
X55379000Y-17531000D02*
X55379000Y-21381000D01*
X55379000Y-24021000D02*
X55379000Y-24321000D01*
X56269000Y-24321000D02*
X55379000Y-24321000D01*
X56269000Y-24321000D02*
X56269000Y-23971000D01*
X56759000Y-21771000D02*
X61739000Y-21771000D01*
X62229000Y-24321000D02*
X62229000Y-23971000D01*
X63119000Y-17531000D02*
X55379000Y-17531000D01*
X63119000Y-21381000D02*
X63119000Y-17531000D01*
X63119000Y-24021000D02*
X63119000Y-24321000D01*
X63119000Y-24321000D02*
X62229000Y-24321000D01*
%TO.C,R8*%
X48777064Y-49515000D02*
X48322936Y-49515000D01*
X48777064Y-50985000D02*
X48322936Y-50985000D01*
%TO.C,Q3*%
X29040000Y-53000000D02*
X33660000Y-53000000D01*
X29040000Y-56260000D02*
X30420000Y-56260000D01*
X29040000Y-59960000D02*
X30420000Y-59960000D01*
X29040000Y-63220000D02*
X29040000Y-53000000D01*
X30420000Y-63220000D02*
X30420000Y-53000000D01*
X33660000Y-53000000D02*
X33660000Y-63220000D01*
X33660000Y-63220000D02*
X29040000Y-63220000D01*
%TO.C,C8*%
X42415000Y-64498748D02*
X42415000Y-65021252D01*
X43885000Y-64498748D02*
X43885000Y-65021252D01*
%TO.C,C7*%
X64661252Y-54525000D02*
X64138748Y-54525000D01*
X64661252Y-55995000D02*
X64138748Y-55995000D01*
%TO.C,K1*%
X18050000Y-71010000D02*
X33650000Y-71010000D01*
X18050000Y-90810000D02*
X18050000Y-71010000D01*
X18050000Y-90810000D02*
X24650000Y-90810000D01*
X19900000Y-83360000D02*
X19900000Y-85860000D01*
X19900000Y-83360000D02*
X24100000Y-83360000D01*
X21650000Y-75260000D02*
X24150000Y-75260000D01*
X24100000Y-81360000D02*
X27700000Y-81360000D01*
X24100000Y-85360000D02*
X24100000Y-81360000D01*
X25900000Y-78460000D02*
X23400000Y-73860000D01*
X25900000Y-79960000D02*
X25900000Y-78460000D01*
X25900000Y-79960000D02*
X29500000Y-79960000D01*
X25900000Y-86760000D02*
X25900000Y-87560000D01*
X25900000Y-86760000D02*
X29500000Y-86760000D01*
X27050000Y-90810000D02*
X33650000Y-90810000D01*
X27700000Y-81360000D02*
X24100000Y-85360000D01*
X27700000Y-81360000D02*
X27700000Y-85360000D01*
X27700000Y-83360000D02*
X31900000Y-83360000D01*
X27700000Y-85360000D02*
X24100000Y-85360000D01*
X29500000Y-79960000D02*
X29500000Y-86760000D01*
X30050000Y-75260000D02*
X27600000Y-75260000D01*
X31900000Y-85860000D02*
X31900000Y-83360000D01*
X33650000Y-71010000D02*
X33650000Y-90810000D01*
%TO.C,C9*%
X86140000Y-101500000D02*
X88890000Y-101500000D01*
X86140000Y-108955563D02*
X86140000Y-101500000D01*
X87204437Y-110020000D02*
X86140000Y-108955563D01*
X87204437Y-110020000D02*
X88890000Y-110020000D01*
X87390000Y-110760000D02*
X88390000Y-110760000D01*
X87890000Y-111260000D02*
X87890000Y-110260000D01*
X93595563Y-110020000D02*
X91910000Y-110020000D01*
X93595563Y-110020000D02*
X94660000Y-108955563D01*
X94660000Y-101500000D02*
X91910000Y-101500000D01*
X94660000Y-108955563D02*
X94660000Y-101500000D01*
%TO.C,RV1*%
X74290000Y-103650000D02*
X74620000Y-103650000D01*
X74290000Y-108370000D02*
X74290000Y-103650000D01*
X75420000Y-108370000D02*
X74290000Y-108370000D01*
X76380000Y-103650000D02*
X76920000Y-103650000D01*
X78680000Y-103650000D02*
X79010000Y-103650000D01*
X79010000Y-103650000D02*
X79010000Y-108370000D01*
X79010000Y-108370000D02*
X77880000Y-108370000D01*
%TO.C,C4*%
X79090000Y-43000000D02*
X79090000Y-44700000D01*
X79090000Y-48520000D02*
X79090000Y-46820000D01*
X83545563Y-43000000D02*
X79090000Y-43000000D01*
X83545563Y-48520000D02*
X79090000Y-48520000D01*
X84610000Y-44064437D02*
X83545563Y-43000000D01*
X84610000Y-44064437D02*
X84610000Y-44700000D01*
X84610000Y-47455563D02*
X83545563Y-48520000D01*
X84610000Y-47455563D02*
X84610000Y-46820000D01*
X85162500Y-47757500D02*
X85162500Y-47132500D01*
X85475000Y-47445000D02*
X84850000Y-47445000D01*
%TO.C,D4*%
X85410000Y-93260000D02*
X86430000Y-93260000D01*
X87210000Y-91790000D02*
X87210000Y-94730000D01*
X87330000Y-91790000D02*
X87330000Y-94730000D01*
X87450000Y-91790000D02*
X87450000Y-94730000D01*
X92890000Y-93260000D02*
X91870000Y-93260000D01*
X86430000Y-91790000D02*
X91870000Y-91790000D01*
X91870000Y-94730000D01*
X86430000Y-94730000D01*
X86430000Y-91790000D01*
%TO.C,BZ1*%
X110649999Y-34410000D02*
G75*
G02*
X107650000Y-34410000I-1499999J6400000D01*
G01*
X115380000Y-28010000D02*
G75*
G02*
X102920000Y-28010000I-6230000J0D01*
G01*
X102920000Y-28010000D02*
G75*
G02*
X115380000Y-28010000I6230000J0D01*
G01*
%TO.C,C2*%
X94915000Y-46223748D02*
X94915000Y-46746252D01*
X96385000Y-46223748D02*
X96385000Y-46746252D01*
%TO.C,K2*%
X44300000Y-71060000D02*
X59900000Y-71060000D01*
X44300000Y-90860000D02*
X44300000Y-71060000D01*
X44300000Y-90860000D02*
X50900000Y-90860000D01*
X46150000Y-83410000D02*
X46150000Y-85910000D01*
X46150000Y-83410000D02*
X50350000Y-83410000D01*
X47900000Y-75310000D02*
X50400000Y-75310000D01*
X50350000Y-81410000D02*
X53950000Y-81410000D01*
X50350000Y-85410000D02*
X50350000Y-81410000D01*
X52150000Y-78510000D02*
X49650000Y-73910000D01*
X52150000Y-80010000D02*
X52150000Y-78510000D01*
X52150000Y-80010000D02*
X55750000Y-80010000D01*
X52150000Y-86810000D02*
X52150000Y-87610000D01*
X52150000Y-86810000D02*
X55750000Y-86810000D01*
X53300000Y-90860000D02*
X59900000Y-90860000D01*
X53950000Y-81410000D02*
X50350000Y-85410000D01*
X53950000Y-81410000D02*
X53950000Y-85410000D01*
X53950000Y-83410000D02*
X58150000Y-83410000D01*
X53950000Y-85410000D02*
X50350000Y-85410000D01*
X55750000Y-80010000D02*
X55750000Y-86810000D01*
X56300000Y-75310000D02*
X53850000Y-75310000D01*
X58150000Y-85910000D02*
X58150000Y-83410000D01*
X59900000Y-71060000D02*
X59900000Y-90860000D01*
%TO.C,R12*%
X80350000Y-97760000D02*
X80460000Y-97760000D01*
X92710000Y-97760000D02*
X92600000Y-97760000D01*
X92600000Y-100130000D02*
X80460000Y-100130000D01*
X80460000Y-95390000D01*
X92600000Y-95390000D01*
X92600000Y-100130000D01*
%TO.C,C5*%
X58987748Y-22466000D02*
X59510252Y-22466000D01*
X58987748Y-23936000D02*
X59510252Y-23936000D01*
%TO.C,D2*%
X36150000Y-80380000D02*
X36150000Y-81030000D01*
X36150000Y-85920000D02*
X36150000Y-85270000D01*
X37270000Y-81630000D02*
X35030000Y-81630000D01*
X37270000Y-81750000D02*
X35030000Y-81750000D01*
X37270000Y-81870000D02*
X35030000Y-81870000D01*
X37270000Y-81030000D02*
X35030000Y-81030000D01*
X35030000Y-85270000D01*
X37270000Y-85270000D01*
X37270000Y-81030000D01*
%TO.C,J4*%
X19720000Y-92160000D02*
X19720000Y-93360000D01*
X19720000Y-94560000D02*
X19720000Y-103460000D01*
X19720000Y-104760000D02*
X19720000Y-111360000D01*
X19720000Y-111360000D02*
X31920000Y-111360000D01*
X31920000Y-92160000D02*
X19720000Y-92160000D01*
X31920000Y-93360000D02*
X31920000Y-92160000D01*
X31920000Y-103460000D02*
X31920000Y-94560000D01*
X31920000Y-111360000D02*
X31920000Y-104760000D01*
%TO.C,R11*%
X20350000Y-66000000D02*
X20460000Y-66000000D01*
X32710000Y-66000000D02*
X32600000Y-66000000D01*
X32600000Y-68370000D02*
X20460000Y-68370000D01*
X20460000Y-63630000D01*
X32600000Y-63630000D01*
X32600000Y-68370000D01*
%TO.C,U3*%
X82329216Y-13960000D02*
X82329216Y-20160000D01*
X82329216Y-13960000D02*
X100729216Y-13960000D01*
X82329216Y-38810000D02*
X82329216Y-39810000D01*
X82329216Y-39810000D02*
X83829216Y-39810000D01*
X100729216Y-13960000D02*
X100729216Y-20160000D01*
X100729216Y-39810000D02*
X99229216Y-39810000D01*
X100729216Y-39810000D02*
X100729216Y-38810000D01*
X82329216Y-20835000D02*
X81829216Y-20835000D01*
X82329216Y-20335000D01*
X82329216Y-20835000D01*
G36*
X82329216Y-20835000D02*
G01*
X81829216Y-20835000D01*
X82329216Y-20335000D01*
X82329216Y-20835000D01*
G37*
%TO.C,U4*%
D10*
X113400000Y-68510000D02*
X99600000Y-68510000D01*
X99600000Y-91010000D01*
X113400000Y-91010000D01*
X113400000Y-68510000D01*
X115300000Y-54710000D02*
X96300000Y-54710000D01*
X96300000Y-110710000D01*
X115300000Y-110710000D01*
X115300000Y-54710000D01*
D12*
%TO.C,R13*%
X25165000Y-35987064D02*
X25165000Y-35532936D01*
X26635000Y-35987064D02*
X26635000Y-35532936D01*
%TO.C,J3*%
X37670000Y-14280000D02*
X46830000Y-14280000D01*
X37670000Y-15985000D02*
X37670000Y-14280000D01*
X37670000Y-17995000D02*
X37670000Y-19915000D01*
X46830000Y-14280000D02*
X46830000Y-15985000D01*
X46830000Y-19915000D02*
X46830000Y-17995000D01*
%TO.C,R10*%
X27165000Y-53887064D02*
X27165000Y-53432936D01*
X28635000Y-53887064D02*
X28635000Y-53432936D01*
%TO.C,D3*%
X62400000Y-80490000D02*
X62400000Y-81140000D01*
X62400000Y-86030000D02*
X62400000Y-85380000D01*
X63520000Y-81740000D02*
X61280000Y-81740000D01*
X63520000Y-81860000D02*
X61280000Y-81860000D01*
X63520000Y-81980000D02*
X61280000Y-81980000D01*
X63520000Y-81140000D02*
X61280000Y-81140000D01*
X61280000Y-85380000D01*
X63520000Y-85380000D01*
X63520000Y-81140000D01*
%TO.C,SW1*%
X115970000Y-39620000D02*
X105750000Y-39620000D01*
X105750000Y-36900000D01*
X115970000Y-36900000D01*
X115970000Y-39620000D01*
%TO.C,U6*%
X30190000Y-32930000D02*
X30190000Y-38130000D01*
X30190000Y-38130000D02*
X31840000Y-38130000D01*
X33840000Y-38130000D02*
X35490000Y-38130000D01*
X35490000Y-32930000D02*
X30190000Y-32930000D01*
X35490000Y-38130000D02*
X35490000Y-32930000D01*
X31840000Y-38130000D02*
G75*
G02*
X33840000Y-38130000I1000000J0D01*
G01*
%TO.C,R9*%
X48777064Y-46465000D02*
X48322936Y-46465000D01*
X48777064Y-47935000D02*
X48322936Y-47935000D01*
%TD*%
%LPC*%
D13*
%TO.C,R1*%
X80000000Y-35260000D03*
X78000000Y-35260000D03*
%TD*%
D14*
%TO.C,D1*%
X83150000Y-107760000D03*
X83150000Y-103760000D03*
%TD*%
D15*
%TO.C,REF\u002A\u002A*%
X38300000Y-108260000D03*
%TD*%
D16*
%TO.C,R7*%
X43150000Y-59760000D03*
X43150000Y-61760000D03*
%TD*%
D17*
%TO.C,C1*%
X100687500Y-50235000D03*
X98612500Y-50235000D03*
%TD*%
D18*
%TO.C,H1*%
X78214000Y-29020000D03*
D19*
X78214000Y-29020000D03*
%TD*%
D20*
%TO.C,SW5*%
X45650000Y-61010000D03*
X58150000Y-61010000D03*
X45650000Y-66010000D03*
X58150000Y-66010000D03*
%TD*%
D21*
%TO.C,J5*%
X46990000Y-104170000D03*
X57150000Y-104170000D03*
X46990000Y-94010000D03*
X57150000Y-94010000D03*
D22*
X52070000Y-97810000D03*
%TD*%
D23*
%TO.C,U5*%
X27980000Y-50070000D03*
D24*
X27980000Y-47530000D03*
X27980000Y-44990000D03*
X27980000Y-42450000D03*
X17820000Y-42450000D03*
X17820000Y-44990000D03*
X17820000Y-47530000D03*
X17820000Y-50070000D03*
%TD*%
D25*
%TO.C,50mA1*%
X68387500Y-109510000D03*
X65412500Y-109510000D03*
%TD*%
D26*
%TO.C,Q1*%
X45110000Y-51510000D03*
D27*
X43840000Y-51510000D03*
X42570000Y-51510000D03*
%TD*%
D13*
%TO.C,R14*%
X30650000Y-39760000D03*
X28650000Y-39760000D03*
%TD*%
D28*
%TO.C,REF\u002A\u002A*%
X94800000Y-74760000D03*
%TD*%
D16*
%TO.C,R5*%
X92650000Y-58510000D03*
X92650000Y-60510000D03*
%TD*%
D29*
%TO.C,J1*%
X103650000Y-49800000D03*
D18*
X103650000Y-44720000D03*
%TD*%
D30*
%TO.C,C6*%
X92650000Y-62722500D03*
X92650000Y-64797500D03*
%TD*%
D31*
%TO.C,C11*%
X32150000Y-46572500D03*
X32150000Y-42447500D03*
%TD*%
D32*
%TO.C,C10*%
X87150000Y-87010000D03*
X93650000Y-87010000D03*
%TD*%
D13*
%TO.C,R6*%
X72650000Y-55260000D03*
X70650000Y-55260000D03*
%TD*%
D26*
%TO.C,Q2*%
X45150000Y-46010000D03*
D27*
X43880000Y-46010000D03*
X42610000Y-46010000D03*
%TD*%
D20*
%TO.C,SW4*%
X61650000Y-61010000D03*
X74150000Y-61010000D03*
X61650000Y-66010000D03*
X74150000Y-66010000D03*
%TD*%
D15*
%TO.C,REF\u002A\u002A*%
X112900000Y-108260000D03*
%TD*%
D33*
%TO.C,L1*%
X90150000Y-50960000D03*
X90150000Y-44560000D03*
%TD*%
D34*
%TO.C,U2*%
X99400000Y-45235000D03*
X98450000Y-45235000D03*
X97500000Y-45235000D03*
X97500000Y-47510000D03*
X98450000Y-47510000D03*
X99400000Y-47510000D03*
%TD*%
D35*
%TO.C,C12*%
X80650000Y-23047500D03*
X80650000Y-20972500D03*
%TD*%
D36*
%TO.C,J2*%
X72497000Y-28860000D03*
D21*
X69957000Y-28860000D03*
X67417000Y-28860000D03*
X64877000Y-28860000D03*
%TD*%
D37*
%TO.C,C3*%
X84050000Y-51760000D03*
X79650000Y-51760000D03*
%TD*%
D15*
%TO.C,REF\u002A\u002A*%
X112900000Y-22760000D03*
%TD*%
D16*
%TO.C,R4*%
X52999000Y-18701000D03*
X52999000Y-20701000D03*
%TD*%
D15*
%TO.C,REF\u002A\u002A*%
X23200000Y-25460000D03*
%TD*%
D20*
%TO.C,SW3*%
X77650000Y-61010000D03*
X90150000Y-61010000D03*
X77650000Y-66010000D03*
X90150000Y-66010000D03*
%TD*%
D38*
%TO.C,SW2*%
X55749000Y-22701000D03*
X62749000Y-22701000D03*
D21*
X56999000Y-20201000D03*
X61499000Y-20201000D03*
%TD*%
D13*
%TO.C,R8*%
X49550000Y-50250000D03*
X47550000Y-50250000D03*
%TD*%
D39*
%TO.C,Q3*%
X32300000Y-60650000D03*
D40*
X32300000Y-58110000D03*
X32300000Y-55570000D03*
%TD*%
D30*
%TO.C,C8*%
X43150000Y-63722500D03*
X43150000Y-65797500D03*
%TD*%
D17*
%TO.C,C7*%
X65437500Y-55260000D03*
X63362500Y-55260000D03*
%TD*%
D41*
%TO.C,K1*%
X25850000Y-89410000D03*
D42*
X31900000Y-87460000D03*
D41*
X31900000Y-75260000D03*
X19850000Y-75210000D03*
D42*
X19900000Y-87460000D03*
%TD*%
D43*
%TO.C,C9*%
X90400000Y-109010000D03*
X90400000Y-102510000D03*
%TD*%
D18*
%TO.C,H3*%
X55114000Y-52580000D03*
D19*
X55114000Y-52580000D03*
%TD*%
D44*
%TO.C,RV1*%
X77800000Y-103260000D03*
D45*
X76650000Y-108760000D03*
D44*
X75500000Y-103260000D03*
%TD*%
D37*
%TO.C,C4*%
X84050000Y-45760000D03*
X79650000Y-45760000D03*
%TD*%
D46*
%TO.C,D4*%
X84070000Y-93260000D03*
D38*
X94230000Y-93260000D03*
%TD*%
D47*
%TO.C,BZ1*%
X109150000Y-30510000D03*
D28*
X109150000Y-25510000D03*
%TD*%
D30*
%TO.C,C2*%
X95650000Y-45447500D03*
X95650000Y-47522500D03*
%TD*%
D41*
%TO.C,K2*%
X52100000Y-89460000D03*
D42*
X58150000Y-87510000D03*
D41*
X58150000Y-75310000D03*
X46100000Y-75260000D03*
D42*
X46150000Y-87510000D03*
%TD*%
D48*
%TO.C,R12*%
X94150000Y-97760000D03*
X78910000Y-97760000D03*
%TD*%
D49*
%TO.C,C5*%
X58211500Y-23201000D03*
X60286500Y-23201000D03*
%TD*%
D50*
%TO.C,D2*%
X36150000Y-79340000D03*
D24*
X36150000Y-86960000D03*
%TD*%
D21*
%TO.C,J4*%
X20740000Y-104120000D03*
X30900000Y-104120000D03*
X20740000Y-93960000D03*
X30900000Y-93960000D03*
D22*
X25820000Y-97760000D03*
%TD*%
D48*
%TO.C,R11*%
X34150000Y-66000000D03*
X18910000Y-66000000D03*
%TD*%
D51*
%TO.C,U3*%
X82779216Y-21600000D03*
X82779216Y-22870000D03*
X82779216Y-24140000D03*
X82779216Y-25410000D03*
X82779216Y-26680000D03*
X82779216Y-27950000D03*
X82779216Y-29220000D03*
X82779216Y-30490000D03*
X82779216Y-31760000D03*
X82779216Y-33030000D03*
X82779216Y-34300000D03*
X82779216Y-35570000D03*
X82779216Y-36840000D03*
X82779216Y-38110000D03*
D52*
X84544216Y-39360000D03*
X85814216Y-39360000D03*
X87084216Y-39360000D03*
X88354216Y-39360000D03*
X89624216Y-39360000D03*
X90894216Y-39360000D03*
X92164216Y-39360000D03*
X93434216Y-39360000D03*
X94704216Y-39360000D03*
X95974216Y-39360000D03*
X97244216Y-39360000D03*
X98514216Y-39360000D03*
D51*
X100279216Y-38110000D03*
X100279216Y-36840000D03*
X100279216Y-35570000D03*
X100279216Y-34300000D03*
X100279216Y-33030000D03*
X100279216Y-31760000D03*
X100279216Y-30490000D03*
X100279216Y-29220000D03*
X100279216Y-27950000D03*
X100279216Y-26680000D03*
X100279216Y-25410000D03*
X100279216Y-24140000D03*
X100279216Y-22870000D03*
X100279216Y-21600000D03*
D53*
X88629216Y-28620000D03*
X88629216Y-30020000D03*
X89329216Y-27920000D03*
X89329216Y-29320000D03*
X89329216Y-30720000D03*
X90029216Y-28620000D03*
D54*
X90029216Y-29320000D03*
D53*
X90029216Y-30020000D03*
X90729216Y-27920000D03*
X90729216Y-29320000D03*
X90729216Y-30720000D03*
X91429216Y-28620000D03*
X91429216Y-30020000D03*
%TD*%
D28*
%TO.C,U4*%
X106800000Y-57310000D03*
X106800000Y-59850000D03*
D47*
X106800000Y-62390000D03*
X106800000Y-64930000D03*
D28*
X106800000Y-103030000D03*
X106800000Y-105570000D03*
D47*
X106800000Y-108110000D03*
%TD*%
D18*
%TO.C,H2*%
X55114000Y-29020000D03*
D19*
X55114000Y-29020000D03*
%TD*%
D55*
%TO.C,R13*%
X25900000Y-36760000D03*
X25900000Y-34760000D03*
%TD*%
D28*
%TO.C,REF\u002A\u002A*%
X29900000Y-21060000D03*
%TD*%
D56*
%TO.C,J3*%
X45140000Y-20670000D03*
X39360000Y-20670000D03*
D57*
X45600000Y-21735000D03*
X44800000Y-21735000D03*
X43500000Y-21735000D03*
X42500000Y-21735000D03*
X42000000Y-21735000D03*
X41000000Y-21735000D03*
X39700000Y-21735000D03*
X38900000Y-21735000D03*
X39200000Y-21735000D03*
X40000000Y-21735000D03*
X40500000Y-21735000D03*
X41500000Y-21735000D03*
X43000000Y-21735000D03*
X44000000Y-21735000D03*
X44500000Y-21735000D03*
X45300000Y-21735000D03*
D58*
X46570000Y-21170000D03*
D59*
X46570000Y-16990000D03*
D58*
X37930000Y-21170000D03*
D59*
X37930000Y-16990000D03*
%TD*%
D55*
%TO.C,R10*%
X27900000Y-54660000D03*
X27900000Y-52660000D03*
%TD*%
D50*
%TO.C,D3*%
X62400000Y-79450000D03*
D24*
X62400000Y-87070000D03*
%TD*%
D60*
%TO.C,SW1*%
X110860000Y-38260000D03*
D24*
X113400000Y-38260000D03*
X108320000Y-38260000D03*
%TD*%
D23*
%TO.C,U6*%
X36650000Y-36800000D03*
D24*
X36650000Y-34260000D03*
X29030000Y-34260000D03*
X29030000Y-36800000D03*
%TD*%
D13*
%TO.C,R9*%
X49550000Y-47200000D03*
X47550000Y-47200000D03*
%TD*%
%LPD*%
M02*
