M48
; DRILL file {KiCad 9.0.6} date 2026-01-02T13:15:05-0500
; FORMAT={-:-/ absolute / inch / decimal}
; #@! TF.CreationDate,2026-01-02T13:15:05-05:00
; #@! TF.GenerationSoftware,Kicad,Pcbnew,9.0.6
; #@! TF.FileFunction,Plated,1,6,PTH
FMAT,2
INCH
; #@! TA.AperFunction,Plated,PTH,ComponentDrill
T1C0.0079
; #@! TA.AperFunction,Plated,PTH,ViaDrill
T2C0.0118
; #@! TA.AperFunction,Plated,PTH,ViaDrill
T3C0.0197
; #@! TA.AperFunction,Plated,PTH,ComponentDrill
T4C0.0236
; #@! TA.AperFunction,Plated,PTH,ViaDrill
T5C0.0276
; #@! TA.AperFunction,Plated,PTH,ComponentDrill
T6C0.0295
; #@! TA.AperFunction,Plated,PTH,ComponentDrill
T7C0.0315
; #@! TA.AperFunction,Plated,PTH,ComponentDrill
T8C0.0394
; #@! TA.AperFunction,Plated,PTH,ComponentDrill
T9C0.0433
; #@! TA.AperFunction,Plated,PTH,ViaDrill
T10C0.0472
; #@! TA.AperFunction,Plated,PTH,ComponentDrill
T11C0.0472
; #@! TA.AperFunction,Plated,PTH,ComponentDrill
T12C0.0512
; #@! TA.AperFunction,Plated,PTH,ViaDrill
T13C0.0630
; #@! TA.AperFunction,Plated,PTH,ComponentDrill
T14C0.0866
%
G90
G05
T1
X3.4893Y-1.1268
X3.4893Y-1.1819
X3.5169Y-1.0992
X3.5169Y-1.1543
X3.5169Y-1.2094
X3.5445Y-1.1268
X3.5445Y-1.1819
X3.572Y-1.0992
X3.572Y-1.1543
X3.572Y-1.2094
X3.5996Y-1.1268
X3.5996Y-1.1819
T2
X3.313Y-0.8567
X3.313Y-0.8961
X3.4311Y-1.4571
X3.5098Y-1.4571
X3.5886Y-1.4571
X4.002Y-0.8567
T3
X1.6988Y-2.2839
X2.0177Y-0.7363
X2.4469Y-2.1756
X2.6063Y-1.7819
X2.7953Y-1.7268
X2.9094Y-2.1756
X3.0306Y-1.3502
X3.3228Y-1.2996
X3.3228Y-1.3488
X3.3819Y-1.4079
X3.4213Y-1.4079
X3.6378Y-2.2248
T5
X3.6575Y-1.772
X3.815Y-1.9285
X3.8248Y-1.7219
X3.9134Y-1.7219
T6
X1.676Y-2.028
X1.6776Y-1.8114
X1.726Y-2.028
X1.7276Y-1.8114
X1.776Y-2.028
X1.7776Y-1.8114
T7
X0.7016Y-1.6713
X0.7016Y-1.7713
X0.7016Y-1.8713
X0.7016Y-1.9713
X1.1016Y-1.6713
X1.1016Y-1.7713
X1.1016Y-1.8713
X1.1016Y-1.9713
X1.1429Y-1.3488
X1.1429Y-1.4488
X1.4232Y-3.1236
X1.4232Y-3.4236
X1.4429Y-1.3488
X1.4429Y-1.4488
X2.4567Y-3.128
X2.4567Y-3.428
X4.2646Y-1.5063
X4.3646Y-1.5063
X4.4646Y-1.5063
T8
X0.7835Y-3.4433
X1.2559Y-3.4433
X1.8169Y-3.4453
X2.2441Y-0.7953
X2.2894Y-3.4453
X2.4212Y-0.7953
X2.5542Y-1.1362
X2.6542Y-1.1362
X2.7542Y-1.1362
X2.8542Y-1.1362
X4.2972Y-1.0043
X4.2972Y-1.2012
T9
X1.2717Y-2.1878
X1.2717Y-2.2878
X1.2717Y-2.3878
X3.3098Y-3.6717
X3.7098Y-3.6717
X4.2047Y-2.2563
X4.2047Y-2.3563
X4.2047Y-2.4563
X4.2047Y-2.5563
X4.2047Y-4.0563
X4.2047Y-4.1563
X4.2047Y-4.2563
T10
X1.2657Y-1.585
T11
X0.7445Y-2.5984
X1.3445Y-2.5984
X3.1067Y-3.8488
X3.7067Y-3.8488
T12
X0.7815Y-2.961
X1.0177Y-3.5201
X1.2559Y-2.963
X1.7972Y-2.402
X1.7972Y-2.5988
X1.815Y-2.963
X2.0512Y-3.522
X2.1948Y-0.8937
X2.2894Y-2.402
X2.2894Y-2.5988
X2.2894Y-2.965
X2.4272Y-2.402
X2.4272Y-2.5988
X2.4704Y-0.8937
X2.9193Y-2.402
X2.9193Y-2.5988
X3.0571Y-2.402
X3.0571Y-2.5988
X3.5492Y-2.402
X3.5492Y-2.5988
X4.0807Y-1.7606
X4.0807Y-1.9606
T13
X1.5709Y-3.6323
X2.024Y-1.125
X2.4567Y-4.3114
X2.5453Y-1.5752
X2.5846Y-4.085
X2.8701Y-4.2819
X3.0571Y-1.9098
X3.0669Y-4.1539
X3.3622Y-1.9098
X3.3622Y-4.0358
X3.3622Y-4.2917
X3.5295Y-3.0122
T14
X1.0165Y-3.8488
X2.05Y-3.8508
X2.1698Y-1.1425
X2.1698Y-2.0701
X3.0793Y-1.1425
T4
G00X1.4933Y-0.6807
M15
G01X1.4933Y-0.6571
M16
G05
G00X1.4933Y-0.8551
M15
G01X1.4933Y-0.8118
M16
G05
G00X1.8335Y-0.6807
M15
G01X1.8335Y-0.6571
M16
G05
G00X1.8335Y-0.8551
M15
G01X1.8335Y-0.8118
M16
G05
M30
